{"glyphs":{"0":{"ha":888,"x_min":0,"x_max":0,"o":"m 443 -14 b 78 486 210 -14 78 174 b 443 986 78 800 210 986 b 810 486 676 986 810 800 b 443 -14 810 174 676 -14 m 443 188 b 592 486 531 188 592 297 b 443 783 592 674 531 783 b 296 486 357 783 296 674 b 443 188 296 297 357 188 "},"1":{"ha":543,"x_min":0,"x_max":0,"o":"m 207 671 l 69 671 b 44 699 56 671 44 683 l 44 789 b 53 810 44 800 49 806 l 239 956 b 289 972 254 967 269 972 l 393 972 b 419 946 407 972 419 960 l 419 28 b 393 0 419 13 407 0 l 235 0 b 207 28 218 0 207 13 "},"2":{"ha":768,"x_min":0,"x_max":0,"o":"m 401 183 l 650 183 b 678 156 665 183 678 171 l 678 28 b 650 0 678 13 665 0 l 78 0 b 51 28 63 0 51 13 l 51 39 b 69 79 51 53 51 56 b 431 581 161 201 351 460 b 467 688 449 610 467 649 b 342 792 467 743 421 792 b 203 719 283 792 240 756 b 163 719 192 708 174 708 l 75 808 b 74 846 65 817 64 835 b 360 986 128 904 218 986 b 685 697 564 986 685 856 b 629 513 685 621 664 579 b 401 186 585 432 468 281 "},"3":{"ha":765,"x_min":0,"x_max":0,"o":"m 63 110 b 64 146 54 121 56 136 l 147 239 b 183 242 157 249 172 251 b 340 176 218 213 267 176 b 464 290 411 176 464 219 b 294 407 464 361 400 407 l 214 407 b 188 433 200 407 188 419 l 188 553 b 214 579 188 568 200 579 l 294 579 b 447 688 394 579 447 626 b 333 796 447 750 406 796 b 208 739 269 796 231 763 b 169 736 199 726 182 726 l 82 822 b 82 860 71 832 72 850 b 356 986 132 911 218 986 b 665 724 522 986 665 885 b 518 504 665 614 582 533 l 518 499 b 690 268 596 472 690 400 b 357 -14 690 113 554 -14 b 63 110 176 -14 93 72 "},"4":{"ha":892,"x_min":0,"x_max":0,"o":"m 67 201 b 39 229 51 201 39 214 l 39 353 b 58 404 39 369 39 381 l 539 978 b 560 986 543 982 547 986 l 663 986 b 690 958 678 986 690 974 l 690 379 l 804 379 b 832 353 821 379 832 368 l 832 229 b 804 201 832 215 821 201 l 690 201 l 690 28 b 664 0 690 13 678 0 l 513 0 b 486 28 499 0 486 13 l 486 201 l 67 201 m 263 374 l 488 374 l 488 644 l 485 644 l 263 376 "},"5":{"ha":788,"x_min":0,"x_max":0,"o":"m 90 104 b 86 153 71 126 69 136 l 174 244 b 211 246 183 254 201 254 b 382 178 265 201 313 178 b 518 314 458 178 518 235 b 369 451 518 401 463 451 l 150 451 b 106 503 121 451 106 479 l 106 946 b 132 972 106 960 117 972 l 593 972 b 621 946 608 972 621 960 l 621 819 b 593 793 621 806 608 793 l 299 793 l 299 639 l 400 639 b 726 322 597 639 726 514 b 372 -14 726 135 574 -14 b 90 104 224 -14 125 61 "},"6":{"ha":807,"x_min":0,"x_max":0,"o":"m 69 374 b 550 999 69 794 418 960 b 594 976 572 1006 588 996 l 636 865 b 608 824 642 849 638 833 b 321 593 542 803 356 731 b 457 622 358 610 418 622 b 742 313 592 622 742 524 b 414 -15 742 132 593 -15 b 69 374 193 -15 69 150 m 274 319 b 411 182 274 244 336 182 b 549 319 488 182 549 244 b 411 458 549 394 488 458 b 274 319 336 458 274 394 "},"7":{"ha":729,"x_min":0,"x_max":0,"o":"m 424 790 l 94 790 b 67 817 79 790 67 803 l 67 946 b 94 972 67 960 79 972 l 701 972 b 725 951 715 972 725 964 l 725 946 b 719 924 725 939 725 936 l 297 42 b 239 0 281 6 260 0 l 97 0 b 68 28 81 0 68 11 b 76 61 68 42 71 50 l 424 788 "},"8":{"ha":847,"x_min":0,"x_max":0,"o":"m 75 258 b 250 499 75 385 179 471 l 250 504 b 103 724 174 547 103 611 b 419 986 103 885 246 986 b 744 724 601 986 744 885 b 597 506 744 615 668 543 l 597 499 b 772 258 679 464 772 382 b 419 -14 772 89 635 -14 b 75 258 213 -14 75 89 m 422 599 b 525 715 490 622 525 667 b 422 808 525 764 486 808 b 322 715 363 808 322 764 b 422 599 322 664 356 624 m 307 269 b 425 161 307 206 351 161 b 540 269 496 161 540 207 b 422 400 540 322 500 375 b 307 269 349 375 307 322 "},"9":{"ha":808,"x_min":0,"x_max":0,"o":"m 171 107 b 199 149 165 125 169 140 b 486 376 265 171 451 233 b 350 347 449 361 389 347 b 65 658 215 347 65 447 b 393 986 65 839 214 986 b 738 597 614 986 738 819 b 257 -25 738 176 407 17 b 213 -3 235 -32 219 -22 l 171 107 m 396 513 b 533 651 471 513 533 575 b 396 789 533 725 471 789 b 258 651 319 789 258 725 b 396 513 258 575 319 513 "},"\u0000":{"ha":0,"x_min":0,"x_max":0,"o":""},"\r":{"ha":0,"x_min":0,"x_max":0,"o":""}," ":{"ha":333,"x_min":0,"x_max":0,"o":""},"!":{"ha":383,"x_min":0,"x_max":0,"o":"m 163 378 b 136 400 150 378 138 389 l 68 788 l 68 946 b 94 972 68 960 81 972 l 289 972 b 315 946 303 972 315 960 l 315 790 l 247 400 b 221 378 246 389 233 378 l 163 378 m 60 117 b 190 250 60 189 119 250 b 324 117 263 250 324 189 b 190 -14 324 46 263 -14 b 60 117 119 -14 60 46 "},"\"":{"ha":542,"x_min":0,"x_max":0,"o":"m 339 696 b 313 722 325 696 313 708 l 313 946 b 339 972 313 960 325 972 l 483 972 b 508 938 501 972 514 957 l 442 717 b 417 696 439 706 426 696 l 339 696 m 88 696 b 61 722 74 696 61 708 l 61 946 b 88 972 61 960 74 972 l 232 972 b 257 938 250 972 263 957 l 190 717 b 165 696 188 706 175 696 l 88 696 "},"#":{"ha":807,"x_min":0,"x_max":0,"o":"m 194 257 l 96 257 b 69 283 81 257 69 269 l 69 307 b 96 333 69 322 81 333 l 204 333 l 238 557 l 136 557 b 110 583 122 557 110 569 l 110 607 b 136 633 110 621 122 633 l 247 633 l 292 950 b 317 972 293 961 304 972 l 340 972 b 365 942 356 972 368 958 l 324 633 l 547 633 l 590 950 b 617 972 592 961 604 972 l 639 972 b 665 942 656 972 668 958 l 624 633 l 707 633 b 733 607 722 633 733 621 l 733 583 b 707 557 733 569 722 557 l 613 557 l 581 333 l 667 333 b 693 307 681 333 693 322 l 693 283 b 667 257 693 269 681 257 l 569 257 l 538 22 b 511 0 536 10 525 0 l 489 0 b 463 31 472 0 461 14 l 494 257 l 269 257 l 239 22 b 213 0 238 10 225 0 l 190 0 b 164 31 172 0 161 14 m 506 333 l 536 557 l 314 557 l 281 333 "},"$":{"ha":833,"x_min":0,"x_max":0,"o":"m 372 -12 b 111 89 235 -1 142 64 b 106 146 90 106 93 122 l 154 238 b 199 249 167 260 179 263 b 372 164 246 213 297 179 l 372 397 b 92 710 244 465 92 544 b 372 985 92 849 188 967 l 372 1029 b 399 1056 372 1044 385 1056 l 425 1056 b 451 1029 439 1056 451 1044 l 451 983 b 710 882 576 972 672 910 b 718 838 726 872 724 847 l 640 728 b 603 719 629 713 614 711 b 451 803 563 749 526 776 l 451 599 b 746 274 572 531 746 463 b 451 -12 746 131 635 4 l 451 -157 b 425 -182 451 -171 439 -182 l 399 -182 b 372 -157 385 -182 372 -171 l 372 -12 m 372 813 b 293 740 328 807 293 775 b 372 632 293 690 317 665 m 451 160 b 526 246 494 171 526 203 b 451 363 526 289 500 329 l 451 160 "},"%":{"ha":972,"x_min":0,"x_max":0,"o":"m 253 613 b 65 800 149 613 65 696 b 253 986 65 904 149 986 b 440 800 356 986 440 904 b 253 613 440 696 356 613 m 644 958 b 668 972 650 968 661 972 l 774 972 b 797 935 794 972 807 953 l 318 14 b 294 0 314 8 301 0 l 192 0 b 168 38 171 0 158 19 m 253 751 b 300 800 278 751 300 774 b 253 847 300 825 278 847 b 204 800 226 847 204 825 b 253 751 204 774 226 751 m 531 174 b 718 361 531 278 615 361 b 907 174 822 361 907 278 b 718 -14 907 71 822 -14 b 531 174 615 -14 531 71 m 671 174 b 718 126 671 149 693 126 b 767 174 744 126 767 149 b 718 222 767 200 744 222 b 671 174 693 222 671 200 "},"&":{"ha":960,"x_min":0,"x_max":0,"o":"m 68 250 b 258 529 68 450 258 529 l 258 533 l 231 563 b 139 761 175 621 139 681 b 415 986 139 867 238 986 b 686 754 574 986 686 883 b 535 508 686 601 535 519 l 660 381 b 706 488 678 410 696 454 b 760 525 714 517 722 539 l 861 489 b 879 425 892 478 885 442 b 792 251 846 328 792 254 l 910 142 b 907 78 928 125 942 113 l 829 -1 b 767 3 813 -17 789 -19 l 676 93 b 374 -14 625 46 542 -14 b 68 250 196 -14 68 106 m 418 624 b 508 742 418 624 508 664 b 413 831 508 789 472 831 b 324 756 361 831 324 799 b 361 681 324 721 340 701 l 418 624 m 267 278 b 397 160 267 211 324 160 b 547 231 506 160 547 231 l 365 424 b 267 278 365 424 267 390 "},"'":{"ha":289,"x_min":0,"x_max":0,"o":"m 88 696 b 61 722 74 696 61 708 l 61 946 b 88 972 61 960 74 972 l 231 972 b 256 938 249 972 261 957 l 189 717 b 164 696 186 706 174 696 l 88 696 "},"(":{"ha":469,"x_min":0,"x_max":0,"o":"m 401 -110 b 49 438 243 -99 49 -12 b 401 983 49 888 243 975 b 429 958 417 985 429 972 l 435 840 b 417 814 435 831 426 817 b 257 438 300 778 257 647 b 417 60 257 226 300 97 b 435 33 426 56 435 43 l 429 -83 b 401 -110 428 -99 418 -110 "},")":{"ha":469,"x_min":0,"x_max":0,"o":"m 35 35 b 53 60 35 44 44 57 b 213 438 169 97 213 226 b 53 814 213 647 169 778 b 35 840 43 817 35 831 l 40 958 b 68 983 40 972 53 985 b 421 438 226 975 421 888 b 68 -110 421 -12 226 -99 b 40 -85 53 -110 40 -99 l 35 35 "},"*":{"ha":617,"x_min":0,"x_max":0,"o":"m 279 482 b 253 508 265 482 253 494 l 256 633 l 153 563 b 117 569 142 554 124 558 l 86 618 b 93 656 78 631 79 647 l 213 726 l 93 799 b 85 836 81 807 78 824 b 118 885 99 857 107 869 b 153 890 126 894 142 899 l 256 819 l 253 946 b 279 972 253 960 265 972 l 336 972 b 363 946 350 972 363 960 l 360 819 l 464 890 b 500 883 475 897 493 894 l 531 836 b 524 797 539 824 538 806 l 404 726 l 524 654 b 532 618 538 646 539 629 l 497 569 b 463 563 490 558 474 556 l 360 632 l 363 508 b 336 482 363 494 350 482 l 279 482 "},"+":{"ha":833,"x_min":0,"x_max":0,"o":"m 342 406 l 139 406 b 113 432 125 406 113 418 l 113 529 b 139 556 113 543 125 556 l 342 556 l 342 760 b 368 785 342 774 354 785 l 465 785 b 492 760 479 785 492 774 l 492 556 l 696 556 b 721 529 710 556 721 543 l 721 432 b 696 406 721 418 710 406 l 492 406 l 492 203 b 465 178 492 189 479 178 l 368 178 b 342 203 354 178 342 189 "},",":{"ha":403,"x_min":0,"x_max":0,"o":"m 44 136 b 192 274 44 214 107 274 b 356 71 279 274 356 211 b 232 -282 356 -82 293 -196 b 194 -285 222 -294 208 -296 l 139 -246 b 139 -206 126 -235 129 -219 b 222 4 183 -142 222 -65 b 221 18 222 8 222 13 b 161 1 206 7 183 1 b 44 136 85 1 44 63 "},"-":{"ha":507,"x_min":0,"x_max":0,"o":"m 94 247 b 68 272 79 247 68 258 l 68 399 b 94 425 68 414 79 425 l 413 425 b 439 399 428 425 439 414 l 439 272 b 413 247 439 258 428 247 l 94 247 "},".":{"ha":392,"x_min":0,"x_max":0,"o":"m 43 136 b 194 290 43 221 113 290 b 349 136 276 290 349 221 b 194 -15 349 54 276 -15 b 43 136 113 -15 43 54 "},"/":{"ha":597,"x_min":0,"x_max":0,"o":"m 342 954 b 367 972 344 964 356 972 l 503 972 b 528 938 522 972 533 957 l 257 18 b 232 0 254 8 242 0 l 94 0 b 69 35 76 0 64 15 "},":":{"ha":388,"x_min":0,"x_max":0,"o":"m 193 401 b 67 528 124 401 67 458 b 193 656 67 597 124 656 b 322 528 264 656 322 597 b 193 401 322 458 264 401 m 67 113 b 193 240 67 182 124 240 b 322 113 264 240 322 182 b 193 -15 322 42 264 -15 b 67 113 124 -15 67 42 "},";":{"ha":394,"x_min":0,"x_max":0,"o":"m 194 401 b 68 528 122 401 68 458 b 194 656 68 597 122 656 b 322 528 264 656 322 597 b 194 401 322 458 264 401 m 71 108 b 190 221 71 172 122 221 b 324 57 261 221 324 171 b 224 -229 324 -67 272 -160 b 192 -231 215 -240 203 -242 l 147 -200 b 147 -167 138 -192 140 -179 b 215 3 183 -117 215 -54 b 214 14 215 7 215 8 b 165 0 203 6 183 0 b 71 108 103 0 71 50 "},"<":{"ha":833,"x_min":0,"x_max":0,"o":"m 140 292 b 126 315 133 296 126 307 l 126 322 b 140 346 126 331 133 342 l 626 640 b 665 618 644 651 665 640 l 665 497 b 654 478 665 492 660 481 l 389 321 l 654 169 b 665 150 660 167 665 156 l 665 29 b 626 7 665 7 644 -4 l 140 292 "},"=":{"ha":833,"x_min":0,"x_max":0,"o":"m 181 460 b 154 486 165 460 154 472 l 154 583 b 181 610 154 597 165 610 l 651 610 b 678 583 667 610 678 597 l 678 486 b 651 460 678 472 667 460 l 181 460 m 181 167 b 154 193 165 167 154 179 l 154 292 b 181 318 154 306 165 318 l 651 318 b 678 292 667 318 678 306 l 678 193 b 651 167 678 179 667 167 l 181 167 "},">":{"ha":833,"x_min":0,"x_max":0,"o":"m 167 150 b 178 169 167 156 172 167 l 443 321 l 178 478 b 167 497 172 481 167 492 l 167 618 b 206 640 167 640 188 651 l 692 346 b 706 322 699 342 706 331 l 706 315 b 692 292 706 307 699 296 l 206 7 b 167 29 188 -4 167 7 "},"?":{"ha":711,"x_min":0,"x_max":0,"o":"m 251 378 b 225 404 238 378 225 389 l 225 463 b 417 719 225 579 417 631 b 313 801 417 763 372 801 b 154 744 215 801 189 714 l 69 828 b 69 864 58 838 60 854 b 351 986 69 864 172 986 b 635 743 499 986 635 883 b 426 404 635 560 426 554 b 400 378 426 389 414 378 l 251 378 m 194 117 b 325 250 194 189 254 250 b 458 117 397 250 458 189 b 325 -14 458 46 397 -14 b 194 117 254 -14 194 46 "},"@":{"ha":1432,"x_min":0,"x_max":0,"o":"m 79 310 b 751 986 79 704 356 986 b 1368 400 1143 986 1368 735 b 1039 28 1368 217 1244 28 b 872 136 943 28 897 78 l 861 136 b 676 28 831 78 765 28 b 421 318 515 28 421 168 b 682 611 421 475 531 611 b 853 525 760 611 819 561 b 900 597 865 553 874 597 l 957 597 b 983 571 971 597 983 586 l 983 338 b 1061 201 983 217 1025 201 b 1178 389 1136 201 1178 288 b 744 811 1178 629 1035 811 b 263 310 451 811 263 618 b 582 -153 263 101 394 -76 b 599 -185 594 -158 603 -172 l 557 -299 b 525 -315 551 -312 539 -321 b 79 310 271 -231 79 22 m 593 324 b 694 206 593 247 640 206 b 793 325 751 206 793 260 b 690 444 793 394 751 444 b 593 324 631 444 593 390 "},"A":{"ha":931,"x_min":0,"x_max":0,"o":"m 24 0 b 0 36 3 0 -8 18 l 435 971 b 458 986 439 979 449 986 l 472 986 b 496 971 482 986 492 979 l 931 36 b 907 0 939 18 928 0 l 753 0 b 704 35 728 0 717 8 l 654 144 l 276 144 l 226 33 b 176 0 219 17 204 0 l 24 0 m 571 333 l 465 563 l 464 563 l 360 333 "},"B":{"ha":847,"x_min":0,"x_max":0,"o":"m 600 494 b 783 268 685 467 783 403 b 481 0 783 104 646 0 l 136 0 b 110 26 121 0 110 13 l 110 946 b 136 972 110 960 121 972 l 460 972 b 758 714 624 972 758 860 b 600 496 758 603 679 528 m 442 578 b 532 678 494 578 532 622 b 442 772 532 733 494 772 l 326 772 l 326 578 m 444 199 b 553 299 514 199 553 233 b 447 397 553 354 515 397 l 326 397 l 326 199 "},"C":{"ha":943,"x_min":0,"x_max":0,"o":"m 54 485 b 556 986 54 763 278 986 b 892 857 694 986 797 943 b 893 818 904 846 904 829 l 785 706 b 750 706 775 696 760 696 b 563 776 693 756 631 776 b 290 490 406 776 290 646 b 564 208 290 336 407 208 b 750 275 640 208 700 232 b 786 274 760 283 778 283 l 894 158 b 893 121 904 149 903 131 b 556 -14 799 29 679 -14 b 54 485 278 -14 54 207 "},"D":{"ha":1017,"x_min":0,"x_max":0,"o":"m 110 946 b 135 972 110 960 121 972 l 474 972 b 961 488 742 972 961 754 b 474 0 961 218 742 0 l 135 0 b 110 26 121 0 110 13 m 472 206 b 731 488 629 206 731 329 b 472 768 731 644 629 768 l 326 768 l 326 206 "},"E":{"ha":803,"x_min":0,"x_max":0,"o":"m 110 946 b 136 972 110 960 121 972 l 711 972 b 738 946 726 972 738 960 l 738 794 b 711 768 738 781 726 768 l 326 768 l 326 596 l 643 596 b 669 569 657 596 669 583 l 669 418 b 643 392 669 403 657 392 l 326 392 l 326 204 l 711 204 b 738 178 726 204 738 192 l 738 26 b 711 0 738 13 726 0 l 136 0 b 110 26 121 0 110 13 "},"F":{"ha":772,"x_min":0,"x_max":0,"o":"m 110 946 b 136 972 110 960 121 972 l 711 972 b 738 946 726 972 738 960 l 738 794 b 711 768 738 781 726 768 l 326 768 l 326 568 l 643 568 b 669 542 657 568 669 556 l 669 390 b 643 364 669 376 657 364 l 326 364 l 326 26 b 300 0 326 13 314 0 l 136 0 b 110 26 121 0 110 13 "},"G":{"ha":985,"x_min":0,"x_max":0,"o":"m 54 485 b 553 985 54 763 276 985 b 892 854 669 985 797 936 b 894 817 904 844 906 828 l 785 700 b 747 699 774 690 758 690 b 565 765 694 747 633 765 b 292 485 414 765 292 638 b 567 208 292 333 415 208 b 690 231 607 208 649 214 l 690 311 l 603 311 b 576 336 588 311 576 322 l 576 474 b 603 500 576 489 588 500 l 882 500 b 907 474 896 500 907 488 l 908 100 b 897 78 908 88 903 82 b 553 -12 897 78 754 -12 b 54 485 276 -12 54 207 "},"H":{"ha":1053,"x_min":0,"x_max":0,"o":"m 110 946 b 136 972 110 960 122 972 l 301 972 b 328 946 317 972 328 960 l 328 596 l 725 596 l 725 946 b 751 972 725 960 736 972 l 917 972 b 943 946 931 972 943 960 l 943 26 b 917 0 943 13 931 0 l 751 0 b 725 26 736 0 725 13 l 725 392 l 328 392 l 328 26 b 301 0 328 13 317 0 l 136 0 b 110 26 122 0 110 13 "},"I":{"ha":439,"x_min":0,"x_max":0,"o":"m 110 946 b 136 972 110 960 122 972 l 303 972 b 329 946 317 972 329 960 l 329 26 b 303 0 329 13 317 0 l 136 0 b 110 26 122 0 110 13 "},"J":{"ha":625,"x_min":0,"x_max":0,"o":"m 13 88 b 15 122 6 99 7 113 l 110 215 b 147 215 121 225 136 226 b 218 186 164 199 186 186 b 300 278 257 186 300 201 l 300 946 b 326 972 300 960 311 972 l 496 972 b 522 946 511 972 522 960 l 522 276 b 236 -14 522 83 386 -14 b 13 88 103 -14 36 58 "},"K":{"ha":921,"x_min":0,"x_max":0,"o":"m 110 939 b 143 972 110 957 124 972 l 306 972 b 339 939 324 972 339 957 l 339 568 l 647 958 b 674 972 653 965 665 972 l 849 972 b 874 921 875 972 889 942 l 549 508 l 903 53 b 876 1 918 32 903 1 l 685 1 b 660 11 675 1 663 7 l 339 442 l 339 33 b 306 0 339 15 324 0 l 143 0 b 110 33 124 0 110 15 "},"L":{"ha":708,"x_min":0,"x_max":0,"o":"m 110 946 b 136 972 110 960 121 972 l 301 972 b 328 946 315 972 328 960 l 328 204 l 658 204 b 685 178 674 204 685 192 l 685 26 b 658 0 685 13 674 0 l 136 0 b 110 26 121 0 110 13 "},"M":{"ha":1219,"x_min":0,"x_max":0,"o":"m 215 964 b 240 986 217 976 229 986 l 263 986 b 286 972 269 986 282 981 l 608 372 l 611 372 l 933 972 b 957 986 938 981 950 986 l 979 986 b 1004 964 990 986 1003 976 l 1161 31 b 1135 0 1164 13 1151 0 l 971 0 b 944 22 958 0 946 11 l 882 451 l 879 451 l 646 1 b 622 -14 642 -7 629 -14 l 597 -14 b 574 1 589 -14 578 -7 l 339 451 l 336 451 l 275 22 b 249 0 274 11 263 0 l 85 0 b 58 31 68 0 56 13 "},"N":{"ha":1054,"x_min":0,"x_max":0,"o":"m 108 961 b 135 986 108 975 121 986 l 156 986 b 190 965 169 986 179 976 l 724 453 b 725 453 724 453 725 453 l 725 946 b 751 972 725 960 736 972 l 918 972 b 944 946 932 972 944 960 l 944 11 b 918 -14 944 -6 932 -14 l 904 -14 b 869 1 890 -14 881 -10 l 329 544 b 328 544 329 544 328 544 l 328 26 b 301 0 328 13 317 0 l 136 0 b 110 26 122 0 110 13 "},"O":{"ha":1107,"x_min":0,"x_max":0,"o":"m 54 485 b 553 986 54 763 275 986 b 1053 485 831 986 1053 763 b 553 -14 1053 207 831 -14 b 54 485 275 -14 54 207 m 276 485 b 553 208 276 333 401 208 b 831 485 706 208 831 333 b 553 764 831 638 706 764 b 276 485 401 764 276 638 "},"P":{"ha":813,"x_min":0,"x_max":0,"o":"m 110 946 b 136 972 110 960 121 972 l 471 972 b 782 665 654 972 782 833 b 472 353 782 493 654 353 l 326 353 l 326 26 b 300 0 326 13 314 0 l 136 0 b 110 26 121 0 110 13 m 467 556 b 568 665 526 556 568 603 b 467 768 568 724 526 768 l 326 768 l 326 556 "},"Q":{"ha":1107,"x_min":0,"x_max":0,"o":"m 54 485 b 553 986 54 763 275 986 b 1053 485 831 986 1053 763 b 796 47 1053 304 949 140 l 975 -233 b 953 -275 986 -253 975 -275 l 765 -275 b 743 -261 754 -275 747 -268 l 596 -12 b 553 -14 579 -14 563 -14 b 54 485 275 -14 54 207 m 276 485 b 553 208 276 333 401 208 b 831 485 706 208 831 333 b 553 764 831 638 706 764 b 276 485 401 764 276 638 "},"R":{"ha":919,"x_min":0,"x_max":0,"o":"m 110 946 b 136 972 110 960 121 972 l 551 972 b 854 672 728 972 854 838 b 649 393 854 544 778 442 l 839 40 b 815 0 849 22 839 0 l 631 0 b 608 13 619 0 611 7 l 424 381 l 328 381 l 328 26 b 301 0 328 13 315 0 l 136 0 b 110 26 121 0 110 13 m 533 557 b 639 668 590 557 639 603 b 533 774 639 733 590 774 l 328 774 l 328 557 "},"S":{"ha":768,"x_min":0,"x_max":0,"o":"m 386 -14 b 74 93 206 -14 106 61 b 68 135 63 104 58 117 l 132 247 b 179 256 143 265 165 265 b 376 179 218 229 289 179 b 472 263 432 179 472 214 b 329 403 472 321 421 358 b 60 710 194 468 60 543 b 381 986 60 847 167 986 b 678 882 525 986 636 913 b 686 838 694 872 692 847 l 615 731 b 554 721 606 715 582 704 b 367 796 522 743 440 796 b 282 719 308 796 282 760 b 433 590 282 674 336 638 b 714 274 556 531 714 463 b 386 -14 714 131 590 -14 "},"T":{"ha":742,"x_min":0,"x_max":0,"o":"m 261 768 l 63 768 b 36 794 47 768 36 781 l 36 946 b 63 972 36 960 47 972 l 679 972 b 706 946 694 972 706 960 l 706 794 b 679 768 706 781 694 768 l 481 768 l 481 26 b 454 0 481 13 468 0 l 288 0 b 261 26 274 0 261 13 "},"U":{"ha":992,"x_min":0,"x_max":0,"o":"m 100 946 b 126 972 100 960 113 972 l 297 972 b 324 946 313 972 324 960 l 324 367 b 494 208 324 265 396 208 b 668 367 594 208 668 265 l 668 946 b 694 972 668 960 679 972 l 865 972 b 892 946 879 972 892 960 l 892 356 b 494 -14 892 144 714 -14 b 100 356 276 -14 100 144 "},"V":{"ha":929,"x_min":0,"x_max":0,"o":"m 699 957 b 722 972 701 964 711 972 l 907 972 b 931 936 928 972 939 954 l 494 1 b 471 -14 490 -7 482 -14 l 457 -14 b 433 1 446 -14 438 -7 l 0 936 b 24 972 -8 954 3 972 l 208 972 b 232 957 219 972 229 964 l 461 450 l 469 450 "},"W":{"ha":1228,"x_min":0,"x_max":0,"o":"m 25 939 b 50 972 19 958 31 972 l 213 972 b 238 953 224 972 235 963 l 357 482 l 363 482 l 578 971 b 601 986 582 979 590 986 l 626 986 b 650 971 639 986 647 979 l 865 482 l 871 482 l 990 953 b 1015 972 993 963 1004 972 l 1178 972 b 1203 939 1197 972 1208 958 l 940 6 b 915 -14 938 -6 926 -14 l 893 -14 b 869 1 883 -14 874 -7 l 615 569 l 611 569 l 358 1 b 335 -14 354 -7 344 -14 l 313 -14 b 288 6 301 -14 290 -6 "},"X":{"ha":896,"x_min":0,"x_max":0,"o":"m 318 499 l 38 933 b 61 972 26 951 38 972 l 264 972 b 286 960 274 972 282 965 l 446 701 l 447 701 l 610 960 b 632 972 613 965 622 972 l 835 972 b 858 933 858 972 871 951 l 576 499 l 868 39 b 846 0 881 19 868 0 l 653 0 b 629 13 644 0 633 6 l 447 293 l 444 293 l 267 13 b 243 0 263 7 254 0 l 50 0 b 26 39 26 0 14 21 "},"Y":{"ha":836,"x_min":0,"x_max":0,"o":"m 308 468 l 1 932 b 24 972 -10 950 1 972 l 204 972 b 226 960 215 972 222 965 l 419 675 l 613 960 b 635 972 617 965 622 972 l 815 972 b 838 932 838 972 849 950 l 526 469 l 526 26 b 500 0 526 13 514 0 l 335 0 b 308 26 319 0 308 13 "},"Z":{"ha":753,"x_min":0,"x_max":0,"o":"m 32 36 b 40 69 32 49 33 57 l 401 765 l 401 768 l 99 768 b 72 794 85 768 72 781 l 72 946 b 99 972 72 960 85 972 l 689 972 b 715 949 703 972 715 963 l 715 938 b 707 911 715 929 714 925 l 358 207 l 358 204 l 661 204 b 688 178 676 204 688 192 l 688 26 b 661 0 688 13 676 0 l 58 0 b 32 26 44 0 32 13 "},"[":{"ha":503,"x_min":0,"x_max":0,"o":"m 449 -168 b 475 -193 463 -168 475 -179 l 475 -306 b 449 -332 475 -319 463 -332 l 107 -332 b 81 -306 93 -332 81 -319 l 81 946 b 107 972 81 960 93 972 l 449 972 b 475 946 463 972 475 960 l 475 835 b 449 808 475 819 463 808 l 272 808 l 272 -168 "},"\\":{"ha":597,"x_min":0,"x_max":0,"o":"m 69 938 b 94 972 64 957 75 972 l 231 972 b 256 954 242 972 253 964 l 528 35 b 503 0 533 15 521 0 l 365 0 b 340 18 356 0 343 8 "},"]":{"ha":503,"x_min":0,"x_max":0,"o":"m 231 -168 l 231 808 l 54 808 b 28 835 40 808 28 819 l 28 946 b 54 972 28 960 40 972 l 396 972 b 422 946 410 972 422 960 l 422 -306 b 396 -332 422 -319 410 -332 l 54 -332 b 28 -306 40 -332 28 -319 l 28 -193 b 54 -168 28 -179 40 -168 "},"^":{"ha":728,"x_min":0,"x_max":0,"o":"m 69 525 b 47 564 47 525 36 546 l 340 978 b 364 992 344 985 356 992 l 371 992 b 394 978 379 992 390 985 l 681 564 b 658 525 692 546 681 525 l 538 525 b 518 536 532 525 521 531 l 365 743 l 210 536 b 190 525 207 531 196 525 l 69 525 "},"_":{"ha":813,"x_min":0,"x_max":0,"o":"m 131 -40 b 157 -14 131 -25 142 -14 l 656 -14 b 682 -40 671 -14 682 -25 l 682 -111 b 656 -136 682 -125 671 -136 l 157 -136 b 131 -111 142 -136 131 -125 l 131 -40 "},"`":{"ha":419,"x_min":0,"x_max":0,"o":"m 69 825 b 61 867 58 832 50 846 l 108 949 b 144 953 115 961 136 958 l 381 808 b 389 782 388 803 394 793 l 360 724 b 322 711 353 710 340 700 "},"a":{"ha":679,"x_min":0,"x_max":0,"o":"m 40 196 b 276 410 40 319 131 410 b 403 382 349 410 403 382 b 314 481 403 444 389 481 b 153 458 269 481 194 471 b 114 492 128 450 117 468 l 99 590 b 124 635 94 618 110 631 b 338 656 139 640 251 656 b 606 385 536 656 606 575 l 606 31 b 575 0 606 14 590 0 l 507 0 b 478 21 497 0 486 3 l 457 64 b 263 -15 418 31 364 -15 b 40 196 136 -15 40 68 m 247 211 b 318 140 247 172 279 140 b 390 211 357 140 390 172 b 318 282 390 249 357 282 b 247 211 279 282 247 249 "},"b":{"ha":800,"x_min":0,"x_max":0,"o":"m 79 942 b 110 972 79 957 93 972 l 260 972 b 290 942 276 972 290 957 l 290 614 b 439 656 311 631 374 656 b 757 321 610 656 757 547 b 440 -15 757 138 621 -15 b 224 85 299 -15 224 85 l 206 32 b 172 0 200 14 188 0 l 110 0 b 79 31 93 0 79 14 m 275 322 b 411 186 275 243 332 186 b 546 322 488 186 546 243 b 411 456 546 400 488 456 b 275 322 332 456 275 400 "},"c":{"ha":668,"x_min":0,"x_max":0,"o":"m 40 321 b 381 656 40 510 197 656 b 621 543 482 656 560 615 b 613 497 633 528 628 510 l 522 410 b 486 413 515 403 499 401 b 388 458 460 436 428 458 b 251 321 314 458 251 393 b 385 183 251 243 311 183 b 500 236 444 183 472 208 b 536 242 511 250 528 253 l 626 164 b 638 118 640 150 649 135 b 379 -15 578 29 494 -15 b 40 321 196 -15 40 128 "},"d":{"ha":800,"x_min":0,"x_max":0,"o":"m 43 321 b 361 656 43 547 190 656 b 510 619 424 656 489 636 l 510 942 b 540 972 510 957 524 972 l 690 972 b 721 942 707 972 721 957 l 721 31 b 690 0 721 14 707 0 l 628 0 b 594 32 613 0 600 14 l 576 85 b 360 -15 576 85 501 -15 b 43 321 179 -15 43 138 m 256 322 b 392 183 256 243 315 183 b 528 322 471 183 528 243 b 392 458 528 400 471 458 b 256 322 315 458 256 400 "},"e":{"ha":713,"x_min":0,"x_max":0,"o":"m 42 321 b 375 656 42 501 185 656 b 679 356 538 656 679 532 b 676 314 679 346 678 324 b 646 286 675 297 660 286 l 250 286 b 383 175 250 236 296 175 b 506 215 425 175 478 196 b 546 215 519 228 536 228 l 617 122 b 615 76 626 110 629 90 b 378 -15 560 19 479 -15 b 42 321 186 -15 42 122 m 463 408 b 369 488 460 451 424 488 b 274 408 317 488 282 451 "},"f":{"ha":556,"x_min":0,"x_max":0,"o":"m 129 451 l 74 451 b 43 482 56 451 43 465 l 43 611 b 74 642 43 629 56 642 l 129 642 l 129 694 b 406 986 129 867 219 986 b 601 925 489 986 574 951 b 607 889 611 918 614 901 l 539 769 b 504 761 532 758 517 754 b 421 786 483 774 453 786 b 340 694 349 786 340 746 l 340 642 l 501 642 b 532 611 518 642 532 629 l 532 482 b 501 451 532 465 518 451 l 340 451 l 340 31 b 308 0 340 14 325 0 l 160 0 b 129 31 144 0 129 14 "},"g":{"ha":799,"x_min":0,"x_max":0,"o":"m 721 21 b 378 -321 721 -211 571 -321 b 139 -251 282 -321 171 -278 b 132 -215 129 -243 126 -229 l 181 -99 b 218 -86 186 -86 204 -78 b 374 -137 249 -104 301 -137 b 510 -10 453 -137 510 -107 l 510 24 b 361 -15 489 7 421 -15 b 43 322 190 -15 43 96 b 360 656 43 506 179 656 b 576 557 501 656 576 557 l 594 610 b 628 642 600 626 613 642 l 690 642 b 721 611 707 642 721 626 m 256 321 b 392 183 256 243 315 183 b 528 321 471 183 528 243 b 392 458 528 397 471 458 b 256 321 315 458 256 397 "},"h":{"ha":763,"x_min":0,"x_max":0,"o":"m 79 942 b 110 972 79 957 93 972 l 260 972 b 290 942 276 972 290 957 l 290 610 b 426 656 335 640 379 656 b 692 331 628 656 692 508 l 692 31 b 661 0 692 14 676 0 l 511 0 b 481 31 493 0 481 14 l 481 333 b 385 458 481 406 454 458 b 290 333 333 458 290 431 l 290 31 b 256 0 290 10 283 0 l 110 0 b 79 31 93 0 79 14 "},"i":{"ha":367,"x_min":0,"x_max":0,"o":"m 78 611 b 108 642 78 629 92 642 l 258 642 b 289 611 275 642 289 629 l 289 31 b 258 0 289 14 275 0 l 108 0 b 78 31 92 0 78 14 m 182 731 b 63 850 115 731 63 785 b 182 972 63 917 115 972 b 303 850 249 972 303 917 b 182 731 303 785 249 731 "},"j":{"ha":369,"x_min":0,"x_max":0,"o":"m 185 731 b 65 850 118 731 65 785 b 185 972 65 917 118 972 b 306 850 251 972 306 917 b 185 731 306 785 251 731 m 290 -6 b 54 -340 290 -203 178 -308 b -14 -317 15 -350 -3 -343 l -54 -215 b -32 -168 -65 -186 -46 -174 b 79 -22 25 -146 79 -107 l 79 611 b 110 642 79 629 93 642 l 260 642 b 290 611 276 642 290 629 "},"k":{"ha":746,"x_min":0,"x_max":0,"o":"m 79 942 b 110 972 79 957 93 972 l 260 972 b 290 942 276 972 290 957 l 290 399 l 471 622 b 511 642 481 632 493 642 l 682 642 b 707 592 710 642 725 613 l 493 344 l 719 49 b 696 0 736 28 724 0 l 504 0 b 482 13 499 0 488 6 l 290 292 l 290 31 b 260 0 290 14 276 0 l 110 0 b 79 31 93 0 79 14 "},"l":{"ha":369,"x_min":0,"x_max":0,"o":"m 79 942 b 110 972 79 957 93 972 l 260 972 b 290 942 276 972 290 957 l 290 31 b 260 0 290 14 276 0 l 110 0 b 79 31 93 0 79 14 "},"m":{"ha":1147,"x_min":0,"x_max":0,"o":"m 78 611 b 108 642 78 629 90 642 l 169 642 b 196 624 181 642 192 635 l 222 558 b 421 656 264 600 317 656 b 611 558 510 656 553 622 b 814 656 644 594 704 656 b 1076 331 1011 656 1076 513 l 1076 31 b 1046 0 1076 14 1063 0 l 896 0 b 865 31 878 0 865 14 l 865 340 b 771 458 865 406 846 458 b 681 351 715 458 681 414 l 681 31 b 651 0 681 14 669 0 l 500 0 b 469 31 483 0 469 14 l 469 340 b 388 458 469 406 458 458 b 289 349 322 458 289 414 l 289 31 b 258 0 289 14 274 0 l 108 0 b 78 31 90 0 78 14 "},"n":{"ha":763,"x_min":0,"x_max":0,"o":"m 78 611 b 108 642 78 629 92 642 l 171 642 b 200 622 181 642 193 635 l 224 558 b 424 656 258 597 307 656 b 692 338 624 656 692 514 l 692 31 b 663 0 692 14 678 0 l 511 0 b 481 31 493 0 481 14 l 481 340 b 388 458 481 401 460 458 b 290 349 324 458 290 414 l 290 31 b 261 0 290 17 283 0 l 108 0 b 78 31 92 0 78 14 "},"o":{"ha":749,"x_min":0,"x_max":0,"o":"m 40 322 b 375 656 40 503 192 656 b 708 322 558 656 708 503 b 375 -15 708 139 558 -15 b 40 322 192 -15 40 139 m 240 322 b 375 183 240 247 300 183 b 508 322 449 183 508 247 b 375 458 508 396 449 458 b 240 322 300 458 240 396 "},"p":{"ha":799,"x_min":0,"x_max":0,"o":"m 290 -300 b 260 -331 290 -317 276 -331 l 110 -331 b 79 -300 93 -331 79 -317 l 79 611 b 110 642 79 626 93 642 l 172 642 b 206 610 188 642 200 626 l 224 557 b 440 656 224 557 299 656 b 756 322 621 656 756 506 b 439 -15 756 96 610 -15 b 290 22 376 -15 311 7 m 272 321 b 408 183 272 243 329 183 b 544 321 485 183 544 243 b 408 458 544 397 485 458 b 272 321 329 458 272 397 "},"r":{"ha":531,"x_min":0,"x_max":0,"o":"m 78 611 b 108 642 78 629 92 642 l 175 642 b 204 622 192 642 200 633 l 233 551 b 393 656 261 603 310 656 b 518 622 451 656 494 640 b 522 588 529 614 529 600 l 458 461 b 422 446 451 449 440 439 b 374 456 411 450 388 456 b 289 367 325 456 289 421 l 289 31 b 254 0 289 11 278 0 l 108 0 b 78 31 92 0 78 14 "},"s":{"ha":599,"x_min":0,"x_max":0,"o":"m 294 -15 b 65 38 190 -15 107 13 b 54 71 51 46 47 57 l 106 176 b 139 190 110 188 125 197 b 297 150 190 165 239 150 b 346 181 339 150 346 165 b 236 247 346 201 311 218 b 49 456 113 296 49 353 b 292 656 49 571 125 656 b 511 607 375 656 463 632 b 528 565 528 599 536 582 l 478 463 b 444 451 474 451 457 446 b 294 490 401 472 346 490 b 249 464 258 490 249 481 b 321 417 249 447 275 433 b 556 189 450 369 556 318 b 294 -15 556 78 465 -15 "},"t":{"ha":544,"x_min":0,"x_max":0,"o":"m 118 451 l 65 451 b 38 482 50 451 38 465 l 38 611 b 65 642 38 629 50 642 l 118 642 l 118 819 b 149 850 118 836 132 850 l 301 850 b 329 819 317 850 329 836 l 329 642 l 458 642 b 489 611 475 642 489 629 l 489 482 b 458 451 489 465 475 451 l 329 451 l 329 228 b 372 183 329 197 344 183 b 451 197 394 183 436 193 b 488 178 468 201 483 194 l 515 57 b 494 21 519 38 513 29 b 311 -15 451 3 379 -15 b 118 208 189 -15 118 63 "},"u":{"ha":746,"x_min":0,"x_max":0,"o":"m 72 611 b 101 642 72 629 86 642 l 253 642 b 283 611 269 642 283 629 l 283 294 b 369 183 283 222 304 183 b 457 283 432 183 457 226 l 457 611 b 492 642 457 638 476 642 l 638 642 b 668 611 654 642 668 629 l 668 31 b 638 0 668 14 654 0 l 574 0 b 543 22 560 0 549 11 l 521 82 b 318 -15 482 42 414 -15 b 72 290 131 -15 72 108 "},"v":{"ha":674,"x_min":0,"x_max":0,"o":"m 15 597 b 43 642 6 619 19 642 l 194 642 b 224 624 207 642 219 635 l 333 364 b 338 364 335 364 336 364 l 453 624 b 496 642 461 643 474 642 l 629 642 b 657 597 654 642 669 619 l 367 1 b 339 -15 363 -7 349 -15 l 331 -15 b 304 1 321 -15 310 -7 "},"w":{"ha":1001,"x_min":0,"x_max":0,"o":"m 21 603 b 50 642 14 624 26 642 l 188 642 b 217 622 197 642 213 635 l 310 356 l 311 356 l 468 643 b 493 656 471 649 479 656 l 508 656 b 533 643 521 656 531 650 l 692 356 l 693 356 l 785 622 b 817 642 790 638 800 642 l 951 642 b 981 603 974 642 988 622 l 768 4 b 739 -15 764 -7 751 -15 l 732 -15 b 707 -1 725 -15 710 -8 l 500 344 l 499 344 l 294 -1 b 269 -15 290 -8 276 -15 l 261 -15 b 233 4 250 -15 238 -7 "},"x":{"ha":738,"x_min":0,"x_max":0,"o":"m 54 0 b 31 49 28 0 17 28 l 232 326 l 36 593 b 61 642 21 614 33 642 l 238 642 b 264 629 250 642 261 636 l 367 465 l 372 465 l 476 629 b 503 642 479 636 486 642 l 679 642 b 704 593 707 642 719 614 l 508 329 l 706 49 b 681 0 719 28 707 0 l 507 0 b 483 14 496 0 488 7 l 372 182 l 367 182 b 250 13 335 138 278 51 b 224 0 246 6 236 0 l 54 0 "},"y":{"ha":688,"x_min":0,"x_max":0,"o":"m 25 600 b 51 642 18 621 28 642 l 217 642 b 242 624 228 642 239 635 l 329 283 l 332 283 l 456 624 b 483 642 460 635 471 642 l 642 642 b 669 600 667 642 679 622 l 290 -311 b 264 -331 286 -321 275 -331 l 108 -331 b 82 -287 85 -331 72 -310 l 215 49 "},"z":{"ha":583,"x_min":0,"x_max":0,"o":"m 72 0 b 42 31 56 0 42 14 b 51 67 42 43 42 47 l 251 446 l 251 449 l 86 449 b 57 479 71 449 57 463 l 57 611 b 86 642 57 629 71 642 l 521 642 b 547 597 544 642 560 621 l 332 194 l 332 192 l 489 192 b 519 161 506 192 519 179 l 519 31 b 489 0 519 14 506 0 l 72 0 "},"{":{"ha":544,"x_min":0,"x_max":0,"o":"m 136 163 b 40 251 136 225 74 244 b 19 276 29 253 19 265 l 19 357 b 38 382 19 368 29 379 b 136 471 38 382 136 414 l 136 608 b 483 985 136 940 340 976 b 511 961 499 986 510 976 l 518 843 b 499 817 518 832 508 819 b 346 608 401 792 346 744 l 346 499 b 228 321 346 389 228 321 l 228 315 b 346 149 264 300 346 249 l 346 32 b 499 -176 346 -104 401 -151 b 518 -203 508 -179 518 -192 l 511 -321 b 483 -344 510 -335 497 -346 b 136 32 340 -336 136 -300 "},"|":{"ha":236,"x_min":0,"x_max":0,"o":"m 81 1029 b 107 1056 81 1044 93 1056 l 131 1056 b 156 1029 144 1056 156 1044 l 156 -306 b 129 -331 156 -319 143 -331 l 107 -331 b 81 -306 93 -331 81 -319 "},"}":{"ha":544,"x_min":0,"x_max":0,"o":"m 408 32 b 61 -344 408 -300 204 -336 b 33 -321 47 -346 35 -335 l 26 -203 b 46 -176 26 -192 36 -179 b 199 32 143 -151 199 -104 l 199 149 b 317 315 199 249 281 300 l 317 321 b 199 499 317 321 199 389 l 199 608 b 46 817 199 744 143 792 b 26 843 36 819 26 832 l 33 961 b 61 985 35 976 46 986 b 408 608 204 976 408 940 l 408 471 b 507 382 408 414 507 382 b 525 357 515 379 525 368 l 525 276 b 504 251 525 265 515 253 b 408 163 471 244 408 225 "},"~":{"ha":747,"x_min":0,"x_max":0,"o":"m 42 326 b 39 360 33 336 31 350 b 258 501 39 360 136 501 b 394 447 315 501 354 474 b 496 404 425 428 456 404 b 585 472 533 404 565 444 b 625 474 596 486 613 486 l 706 389 b 708 354 714 379 717 364 b 494 214 708 354 614 214 b 339 275 425 214 385 244 b 256 308 313 292 288 308 b 167 242 217 308 185 269 b 126 239 156 228 138 226 "}," ":{"ha":333,"x_min":0,"x_max":0,"o":""},"À":{"ha":931,"x_min":0,"x_max":0,"o":"m 24 0 b 0 36 3 0 -8 18 l 435 971 b 458 986 439 979 449 986 l 472 986 b 496 971 482 986 492 979 l 931 36 b 907 0 939 18 928 0 l 753 0 b 704 35 728 0 717 8 l 654 144 l 276 144 l 226 33 b 176 0 219 17 204 0 l 24 0 m 571 333 l 465 563 l 464 563 l 360 333 m 311 1172 b 303 1214 300 1179 292 1193 l 350 1296 b 386 1300 357 1308 378 1306 l 622 1156 b 631 1129 629 1150 636 1140 l 601 1071 b 564 1058 594 1057 582 1047 "},"Á":{"ha":931,"x_min":0,"x_max":0,"o":"m 24 0 b 0 36 3 0 -8 18 l 435 971 b 458 986 439 979 449 986 l 472 986 b 496 971 482 986 492 979 l 931 36 b 907 0 939 18 928 0 l 753 0 b 704 35 728 0 717 8 l 654 144 l 276 144 l 226 33 b 176 0 219 17 204 0 l 24 0 m 571 333 l 465 563 l 464 563 l 360 333 m 367 1058 b 329 1071 349 1047 336 1057 l 300 1129 b 308 1156 294 1140 301 1150 l 544 1300 b 581 1296 553 1306 574 1308 l 628 1214 b 619 1172 639 1193 631 1179 l 367 1058 "},"Â":{"ha":931,"x_min":0,"x_max":0,"o":"m 24 0 b 0 36 3 0 -8 18 l 435 971 b 458 986 439 979 449 986 l 472 986 b 496 971 482 986 492 979 l 931 36 b 907 0 939 18 928 0 l 753 0 b 704 35 728 0 717 8 l 654 144 l 276 144 l 226 33 b 176 0 219 17 204 0 l 24 0 m 571 333 l 465 563 l 464 563 l 360 333 m 328 1058 b 297 1064 313 1050 306 1053 l 251 1129 b 260 1156 244 1139 253 1150 l 447 1300 b 481 1300 458 1308 472 1306 l 672 1156 b 681 1129 679 1150 686 1140 l 633 1065 b 604 1058 626 1056 614 1053 l 467 1139 l 328 1058 "},"Ã":{"ha":931,"x_min":0,"x_max":0,"o":"m 24 0 b 0 36 3 0 -8 18 l 435 971 b 458 986 439 979 449 986 l 472 986 b 496 971 482 986 492 979 l 931 36 b 907 0 939 18 928 0 l 753 0 b 704 35 728 0 717 8 l 654 144 l 276 144 l 226 33 b 176 0 219 17 204 0 l 24 0 m 571 333 l 465 563 l 464 563 l 360 333 m 254 1129 b 246 1161 244 1136 242 1151 b 394 1278 260 1186 319 1278 b 544 1213 461 1278 490 1213 b 597 1256 567 1213 588 1240 b 632 1258 604 1267 618 1271 l 679 1222 b 681 1182 690 1214 692 1199 b 542 1074 667 1158 615 1074 b 389 1140 469 1074 436 1140 b 333 1092 364 1140 346 1106 b 303 1090 325 1083 315 1082 "},"Ä":{"ha":931,"x_min":0,"x_max":0,"o":"m 24 0 b 0 36 3 0 -8 18 l 435 971 b 458 986 439 979 449 986 l 472 986 b 496 971 482 986 492 979 l 931 36 b 907 0 939 18 928 0 l 753 0 b 704 35 728 0 717 8 l 654 144 l 276 144 l 226 33 b 176 0 219 17 204 0 l 24 0 m 571 333 l 465 563 l 464 563 l 360 333 m 649 1060 b 544 1165 590 1060 544 1107 b 649 1269 544 1224 590 1269 b 754 1165 707 1269 754 1224 b 649 1060 754 1107 707 1060 m 281 1060 b 176 1165 222 1060 176 1107 b 281 1269 176 1224 222 1269 b 386 1165 339 1269 386 1224 b 281 1060 386 1107 339 1060 "},"Ā":{"ha":931,"x_min":0,"x_max":0,"o":"m 24 0 b 0 36 3 0 -8 18 l 435 971 b 458 986 439 979 449 986 l 472 986 b 496 971 482 986 492 979 l 931 36 b 907 0 939 18 928 0 l 753 0 b 704 35 728 0 717 8 l 654 144 l 276 144 l 226 33 b 176 0 219 17 204 0 l 24 0 m 571 333 l 465 563 l 464 563 l 360 333 m 288 1113 b 261 1138 272 1113 261 1124 l 261 1194 b 288 1221 261 1210 272 1221 l 643 1221 b 669 1194 658 1221 669 1210 l 669 1138 b 643 1113 669 1124 658 1113 l 288 1113 "},"Ă":{"ha":931,"x_min":0,"x_max":0,"o":"m 24 0 b 0 36 3 0 -8 18 l 435 971 b 458 986 439 979 449 986 l 472 986 b 496 971 482 986 492 979 l 931 36 b 907 0 939 18 928 0 l 753 0 b 704 35 728 0 717 8 l 654 144 l 276 144 l 226 33 b 176 0 219 17 204 0 l 24 0 m 571 333 l 465 563 l 464 563 l 360 333 m 465 1060 b 268 1226 363 1060 282 1132 b 294 1257 265 1243 276 1257 l 357 1257 b 381 1240 368 1257 378 1249 b 465 1174 393 1203 425 1174 b 547 1240 501 1174 535 1207 b 571 1257 550 1250 561 1257 l 636 1257 b 663 1226 653 1257 664 1243 b 465 1060 647 1132 567 1060 "},"Å":{"ha":931,"x_min":0,"x_max":0,"o":"m 24 0 b 0 36 3 0 -8 18 l 435 971 b 458 986 439 979 449 986 l 472 986 b 496 971 482 986 492 979 l 931 36 b 907 0 939 18 928 0 l 753 0 b 704 35 728 0 717 8 l 654 144 l 276 144 l 226 33 b 176 0 219 17 204 0 l 24 0 m 571 333 l 465 563 l 464 563 l 360 333 m 465 1044 b 306 1204 376 1044 306 1115 b 465 1364 306 1293 376 1364 b 625 1204 553 1364 625 1293 b 465 1044 625 1115 553 1044 m 465 1143 b 525 1204 497 1143 525 1172 b 465 1264 525 1236 497 1264 b 404 1204 433 1264 404 1236 b 465 1143 404 1172 433 1143 "},"Ǻ":{"ha":933,"x_min":0,"x_max":0,"o":"m 368 1215 b 331 1228 350 1204 338 1214 l 301 1286 b 310 1313 296 1297 303 1307 l 546 1457 b 582 1453 554 1463 575 1465 l 629 1371 b 621 1329 640 1350 632 1336 l 368 1215 m 25 0 b 1 36 4 0 -7 18 l 406 906 b 307 1054 347 929 307 986 b 467 1214 307 1143 378 1214 b 626 1054 554 1214 626 1143 b 526 906 626 986 585 929 l 932 36 b 908 0 940 18 929 0 l 754 0 b 706 35 729 0 718 8 l 656 144 l 278 144 l 228 33 b 178 0 221 17 206 0 l 25 0 m 467 993 b 526 1054 499 993 526 1022 b 467 1114 526 1086 499 1114 b 406 1054 435 1114 406 1086 b 467 993 406 1022 435 993 m 572 333 l 467 563 l 465 563 l 361 333 "},"Ą":{"ha":931,"x_min":0,"x_max":0,"o":"m 24 0 b 0 36 3 0 -8 18 l 435 971 b 458 986 439 979 449 986 l 472 986 b 496 971 482 986 492 979 l 931 36 b 907 0 939 18 928 0 l 851 0 b 728 -164 811 -29 728 -101 b 775 -215 728 -203 747 -215 b 858 -175 811 -215 847 -186 b 889 -186 871 -162 889 -169 l 889 -265 b 867 -312 889 -283 885 -300 b 739 -346 843 -328 794 -346 b 589 -197 639 -346 589 -279 b 718 4 589 -97 671 -32 l 654 144 l 276 144 l 226 33 b 176 0 219 17 204 0 l 24 0 m 571 333 l 465 563 l 464 563 l 360 333 "},"Æ":{"ha":1249,"x_min":0,"x_max":0,"o":"m -1 0 b -18 36 -22 0 -29 18 l 539 929 b 600 972 557 957 564 972 l 1157 972 b 1183 946 1172 972 1183 960 l 1183 794 b 1157 768 1183 781 1172 768 l 772 768 l 772 596 l 1089 596 b 1115 569 1103 596 1115 583 l 1115 418 b 1089 392 1115 403 1103 392 l 772 392 l 772 204 l 1157 204 b 1183 178 1172 204 1183 192 l 1183 26 b 1157 0 1183 13 1172 0 l 582 0 b 556 26 567 0 556 13 l 556 144 l 300 144 l 226 24 b 186 0 217 7 207 0 l -1 0 m 556 333 l 556 579 l 403 333 "},"Ǽ":{"ha":1249,"x_min":0,"x_max":0,"o":"m -1 0 b -18 36 -22 0 -29 18 l 539 929 b 600 972 557 957 564 972 l 1157 972 b 1183 946 1172 972 1183 960 l 1183 794 b 1157 768 1183 781 1172 768 l 772 768 l 772 596 l 1089 596 b 1115 569 1103 596 1115 583 l 1115 418 b 1089 392 1115 403 1103 392 l 772 392 l 772 204 l 1157 204 b 1183 178 1172 204 1183 192 l 1183 26 b 1157 0 1183 13 1172 0 l 582 0 b 556 26 567 0 556 13 l 556 144 l 300 144 l 226 24 b 186 0 217 7 207 0 l -1 0 m 556 333 l 556 579 l 403 333 m 747 1060 b 710 1072 729 1049 717 1058 l 681 1131 b 689 1157 675 1142 682 1151 l 925 1301 b 961 1297 933 1307 954 1310 l 1008 1215 b 1000 1174 1019 1194 1011 1181 l 747 1060 "},"Ć":{"ha":943,"x_min":0,"x_max":0,"o":"m 54 485 b 556 986 54 763 278 986 b 892 857 694 986 797 943 b 893 818 904 846 904 829 l 785 706 b 750 706 775 696 760 696 b 563 776 693 756 631 776 b 290 490 406 776 290 646 b 564 208 290 336 407 208 b 750 275 640 208 700 232 b 786 274 760 283 778 283 l 894 158 b 893 121 904 149 903 131 b 556 -14 799 29 679 -14 b 54 485 278 -14 54 207 m 458 1058 b 421 1071 440 1047 428 1057 l 392 1129 b 400 1156 386 1140 393 1150 l 636 1300 b 672 1296 644 1306 665 1308 l 719 1214 b 711 1172 731 1193 722 1179 l 458 1058 "},"Ĉ":{"ha":943,"x_min":0,"x_max":0,"o":"m 54 485 b 556 986 54 763 278 986 b 892 857 694 986 797 943 b 893 818 904 846 904 829 l 785 706 b 750 706 775 696 760 696 b 563 776 693 756 631 776 b 290 490 406 776 290 646 b 564 208 290 336 407 208 b 750 275 640 208 700 232 b 786 274 760 283 778 283 l 894 158 b 893 121 904 149 903 131 b 556 -14 799 29 679 -14 b 54 485 278 -14 54 207 m 419 1058 b 389 1064 404 1050 397 1053 l 343 1129 b 351 1156 336 1139 344 1150 l 539 1300 b 572 1300 550 1308 564 1306 l 764 1156 b 772 1129 771 1150 778 1140 l 725 1065 b 696 1058 718 1056 706 1053 l 558 1139 l 419 1058 "},"Č":{"ha":943,"x_min":0,"x_max":0,"o":"m 54 485 b 556 986 54 763 278 986 b 892 857 694 986 797 943 b 893 818 904 846 904 829 l 785 706 b 750 706 775 696 760 696 b 563 776 693 756 631 776 b 290 490 406 776 290 646 b 564 208 290 336 407 208 b 750 275 640 208 700 232 b 786 274 760 283 778 283 l 894 158 b 893 121 904 149 903 131 b 556 -14 799 29 679 -14 b 54 485 278 -14 54 207 m 350 1203 b 342 1229 343 1208 336 1218 l 389 1293 b 418 1300 396 1303 408 1306 l 556 1219 l 694 1300 b 725 1294 710 1308 717 1306 l 771 1229 b 763 1203 778 1219 769 1208 l 575 1058 b 542 1058 564 1050 550 1053 "},"Ċ":{"ha":943,"x_min":0,"x_max":0,"o":"m 54 485 b 556 986 54 763 278 986 b 892 857 694 986 797 943 b 893 818 904 846 904 829 l 785 706 b 750 706 775 696 760 696 b 563 776 693 756 631 776 b 290 490 406 776 290 646 b 564 208 290 336 407 208 b 750 275 640 208 700 232 b 786 274 760 283 778 283 l 894 158 b 893 121 904 149 903 131 b 556 -14 799 29 679 -14 b 54 485 278 -14 54 207 m 557 1064 b 438 1183 490 1064 438 1118 b 557 1306 438 1250 490 1306 b 678 1183 624 1306 678 1250 b 557 1064 678 1118 624 1064 "},"Ç":{"ha":943,"x_min":0,"x_max":0,"o":"m 54 485 b 556 986 54 763 278 986 b 892 857 694 986 797 943 b 893 818 904 846 904 829 l 785 706 b 750 706 775 696 760 696 b 563 776 699 751 631 776 b 290 490 406 776 290 646 b 564 208 290 336 407 208 b 750 275 629 208 700 232 b 786 274 760 283 778 283 l 894 158 b 893 121 904 149 903 131 b 583 -12 806 36 697 -7 l 542 -79 b 563 -78 550 -78 557 -78 b 688 -200 625 -78 688 -111 b 514 -346 688 -294 608 -346 b 397 -312 460 -346 421 -332 b 396 -269 385 -301 388 -287 l 410 -237 b 451 -224 419 -215 433 -211 b 507 -242 458 -229 482 -242 b 565 -196 542 -242 565 -228 b 507 -150 565 -164 542 -150 b 457 -162 483 -150 468 -158 b 429 -136 442 -168 422 -150 l 488 -10 b 54 485 242 22 54 229 "},"Ď":{"ha":1017,"x_min":0,"x_max":0,"o":"m 110 946 b 135 972 110 960 121 972 l 474 972 b 961 488 742 972 961 754 b 474 0 961 218 742 0 l 135 0 b 110 26 121 0 110 13 m 472 206 b 731 488 629 206 731 329 b 472 768 731 644 629 768 l 326 768 l 326 206 m 236 1203 b 228 1229 229 1208 222 1218 l 275 1293 b 304 1300 282 1303 294 1306 l 442 1219 l 581 1300 b 611 1294 596 1308 603 1306 l 657 1229 b 649 1203 664 1219 656 1208 l 461 1058 b 428 1058 450 1050 436 1053 "},"Đ":{"ha":1017,"x_min":0,"x_max":0,"o":"m 110 443 l 69 443 b 44 469 56 443 44 456 l 44 493 b 69 519 44 507 56 519 l 110 519 l 110 946 b 135 972 110 960 121 972 l 474 972 b 961 488 742 972 961 754 b 474 0 961 218 742 0 l 135 0 b 110 26 121 0 110 13 m 460 206 b 731 488 617 206 731 329 b 460 768 731 644 617 768 l 326 768 l 326 519 l 524 519 b 550 493 539 519 550 507 l 550 468 b 524 443 550 454 539 443 l 326 443 l 326 206 "},"Ð":{"ha":1017,"x_min":0,"x_max":0,"o":"m 110 443 l 69 443 b 44 469 56 443 44 456 l 44 493 b 69 519 44 507 56 519 l 110 519 l 110 946 b 135 972 110 960 121 972 l 474 972 b 961 488 742 972 961 754 b 474 0 961 218 742 0 l 135 0 b 110 26 121 0 110 13 m 460 206 b 731 488 617 206 731 329 b 460 768 731 644 617 768 l 326 768 l 326 519 l 524 519 b 550 493 539 519 550 507 l 550 468 b 524 443 550 454 539 443 l 326 443 l 326 206 "},"È":{"ha":803,"x_min":0,"x_max":0,"o":"m 110 946 b 136 972 110 960 121 972 l 711 972 b 738 946 726 972 738 960 l 738 794 b 711 768 738 781 726 768 l 326 768 l 326 596 l 643 596 b 669 569 657 596 669 583 l 669 418 b 643 392 669 403 657 392 l 326 392 l 326 204 l 711 204 b 738 178 726 204 738 192 l 738 26 b 711 0 738 13 726 0 l 136 0 b 110 26 121 0 110 13 m 276 1172 b 268 1214 265 1179 257 1193 l 315 1296 b 351 1300 322 1308 343 1306 l 588 1156 b 596 1129 594 1150 601 1140 l 567 1071 b 529 1058 560 1057 547 1047 "},"É":{"ha":803,"x_min":0,"x_max":0,"o":"m 110 946 b 136 972 110 960 121 972 l 711 972 b 738 946 726 972 738 960 l 738 794 b 711 768 738 781 726 768 l 326 768 l 326 596 l 643 596 b 669 569 657 596 669 583 l 669 418 b 643 392 669 403 657 392 l 326 392 l 326 204 l 711 204 b 738 178 726 204 738 192 l 738 26 b 711 0 738 13 726 0 l 136 0 b 110 26 121 0 110 13 m 332 1058 b 294 1071 314 1047 301 1057 l 265 1129 b 274 1156 260 1140 267 1150 l 510 1300 b 546 1296 518 1306 539 1308 l 593 1214 b 585 1172 604 1193 596 1179 l 332 1058 "},"Ê":{"ha":803,"x_min":0,"x_max":0,"o":"m 110 946 b 136 972 110 960 121 972 l 711 972 b 738 946 726 972 738 960 l 738 794 b 711 768 738 781 726 768 l 326 768 l 326 596 l 643 596 b 669 569 657 596 669 583 l 669 418 b 643 392 669 403 657 392 l 326 392 l 326 204 l 711 204 b 738 178 726 204 738 192 l 738 26 b 711 0 738 13 726 0 l 136 0 b 110 26 121 0 110 13 m 293 1058 b 263 1064 278 1050 271 1053 l 217 1129 b 225 1156 210 1139 218 1150 l 413 1300 b 446 1300 424 1308 438 1306 l 638 1156 b 646 1129 644 1150 651 1140 l 599 1065 b 569 1058 592 1056 579 1053 l 432 1139 l 293 1058 "},"Ě":{"ha":803,"x_min":0,"x_max":0,"o":"m 110 946 b 136 972 110 960 121 972 l 711 972 b 738 946 726 972 738 960 l 738 794 b 711 768 738 781 726 768 l 326 768 l 326 596 l 643 596 b 669 569 657 596 669 583 l 669 418 b 643 392 669 403 657 392 l 326 392 l 326 204 l 711 204 b 738 178 726 204 738 192 l 738 26 b 711 0 738 13 726 0 l 136 0 b 110 26 121 0 110 13 m 224 1203 b 215 1229 217 1208 210 1218 l 263 1293 b 292 1300 269 1303 282 1306 l 429 1219 l 568 1300 b 599 1294 583 1308 590 1306 l 644 1229 b 636 1203 651 1219 643 1208 l 449 1058 b 415 1058 438 1050 424 1053 "},"Ë":{"ha":803,"x_min":0,"x_max":0,"o":"m 110 946 b 136 972 110 960 121 972 l 711 972 b 738 946 726 972 738 960 l 738 794 b 711 768 738 781 726 768 l 326 768 l 326 596 l 643 596 b 669 569 657 596 669 583 l 669 418 b 643 392 669 403 657 392 l 326 392 l 326 204 l 711 204 b 738 178 726 204 738 192 l 738 26 b 711 0 738 13 726 0 l 136 0 b 110 26 121 0 110 13 m 610 1060 b 506 1165 551 1060 506 1107 b 610 1269 506 1224 551 1269 b 715 1165 668 1269 715 1224 b 610 1060 715 1107 668 1060 m 242 1060 b 138 1165 183 1060 138 1107 b 242 1269 138 1224 183 1269 b 347 1165 300 1269 347 1224 b 242 1060 347 1107 300 1060 "},"Ē":{"ha":803,"x_min":0,"x_max":0,"o":"m 110 946 b 136 972 110 960 121 972 l 711 972 b 738 946 726 972 738 960 l 738 794 b 711 768 738 781 726 768 l 326 768 l 326 596 l 643 596 b 669 569 657 596 669 583 l 669 418 b 643 392 669 403 657 392 l 326 392 l 326 204 l 711 204 b 738 178 726 204 738 192 l 738 26 b 711 0 738 13 726 0 l 136 0 b 110 26 121 0 110 13 m 253 1113 b 226 1138 238 1113 226 1124 l 226 1194 b 253 1221 226 1210 238 1221 l 608 1221 b 635 1194 624 1221 635 1210 l 635 1138 b 608 1113 635 1124 624 1113 l 253 1113 "},"Ĕ":{"ha":803,"x_min":0,"x_max":0,"o":"m 110 946 b 136 972 110 960 121 972 l 711 972 b 738 946 726 972 738 960 l 738 794 b 711 768 738 781 726 768 l 326 768 l 326 596 l 643 596 b 669 569 657 596 669 583 l 669 418 b 643 392 669 403 657 392 l 326 392 l 326 204 l 711 204 b 738 178 726 204 738 192 l 738 26 b 711 0 738 13 726 0 l 136 0 b 110 26 121 0 110 13 m 431 1060 b 233 1226 328 1060 247 1132 b 260 1257 231 1243 242 1257 l 322 1257 b 346 1240 333 1257 343 1249 b 431 1174 358 1203 390 1174 b 513 1240 467 1174 500 1207 b 536 1257 515 1250 526 1257 l 601 1257 b 628 1226 618 1257 629 1243 b 431 1060 613 1132 532 1060 "},"Ė":{"ha":803,"x_min":0,"x_max":0,"o":"m 110 946 b 136 972 110 960 121 972 l 711 972 b 738 946 726 972 738 960 l 738 794 b 711 768 738 781 726 768 l 326 768 l 326 596 l 643 596 b 669 569 657 596 669 583 l 669 418 b 643 392 669 403 657 392 l 326 392 l 326 204 l 711 204 b 738 178 726 204 738 192 l 738 26 b 711 0 738 13 726 0 l 136 0 b 110 26 121 0 110 13 m 431 1064 b 311 1183 364 1064 311 1118 b 431 1306 311 1250 364 1306 b 551 1183 497 1306 551 1250 b 431 1064 551 1118 497 1064 "},"Ę":{"ha":803,"x_min":0,"x_max":0,"o":"m 110 946 b 136 972 110 960 121 972 l 711 972 b 738 946 726 972 738 960 l 738 794 b 711 768 738 781 726 768 l 326 768 l 326 596 l 643 596 b 669 569 657 596 669 583 l 669 418 b 643 392 669 403 657 392 l 326 392 l 326 204 l 711 204 b 738 178 726 204 738 192 l 738 29 b 725 4 738 19 732 8 b 588 -164 686 -24 588 -99 b 635 -215 588 -203 607 -215 b 718 -175 671 -215 707 -186 b 749 -186 731 -162 749 -169 l 749 -265 b 726 -312 749 -283 744 -300 b 599 -346 703 -328 654 -346 b 449 -197 499 -346 449 -279 b 579 0 449 -100 531 -36 l 136 0 b 110 26 121 0 110 13 "},"Ĝ":{"ha":985,"x_min":0,"x_max":0,"o":"m 54 485 b 553 985 54 763 276 985 b 892 854 669 985 797 936 b 894 817 904 844 906 828 l 785 700 b 747 699 774 690 758 690 b 565 765 694 747 633 765 b 292 485 414 765 292 638 b 567 208 292 333 415 208 b 690 231 607 208 649 214 l 690 311 l 603 311 b 576 336 588 311 576 322 l 576 474 b 603 500 576 489 588 500 l 882 500 b 907 474 896 500 907 488 l 908 100 b 897 78 908 88 903 82 b 553 -12 897 78 754 -12 b 54 485 276 -12 54 207 m 417 1058 b 386 1064 401 1050 394 1053 l 340 1129 b 349 1156 333 1139 342 1150 l 536 1300 b 569 1300 547 1308 561 1306 l 761 1156 b 769 1129 768 1150 775 1140 l 722 1065 b 693 1058 715 1056 703 1053 l 556 1139 l 417 1058 "},"Ğ":{"ha":985,"x_min":0,"x_max":0,"o":"m 54 485 b 553 985 54 763 276 985 b 892 854 669 985 797 936 b 894 817 904 844 906 828 l 785 700 b 747 699 774 690 758 690 b 565 765 694 747 633 765 b 292 485 414 765 292 638 b 567 208 292 333 415 208 b 690 231 607 208 649 214 l 690 311 l 603 311 b 576 336 588 311 576 322 l 576 474 b 603 500 576 489 588 500 l 882 500 b 907 474 896 500 907 488 l 908 100 b 897 78 908 88 903 82 b 553 -12 897 78 754 -12 b 54 485 276 -12 54 207 m 554 1060 b 357 1226 451 1060 371 1132 b 383 1257 354 1243 365 1257 l 446 1257 b 469 1240 457 1257 467 1249 b 554 1174 482 1203 514 1174 b 636 1240 590 1174 624 1207 b 660 1257 639 1250 650 1257 l 725 1257 b 751 1226 742 1257 753 1243 b 554 1060 736 1132 656 1060 "},"Ġ":{"ha":985,"x_min":0,"x_max":0,"o":"m 54 485 b 553 985 54 763 276 985 b 892 854 669 985 797 936 b 894 817 904 844 906 828 l 785 700 b 747 699 774 690 758 690 b 565 765 694 747 633 765 b 292 485 414 765 292 638 b 567 208 292 333 415 208 b 690 231 607 208 649 214 l 690 311 l 603 311 b 576 336 588 311 576 322 l 576 474 b 603 500 576 489 588 500 l 882 500 b 907 474 896 500 907 488 l 908 100 b 897 78 908 88 903 82 b 553 -12 897 78 754 -12 b 54 485 276 -12 54 207 m 554 1064 b 435 1183 488 1064 435 1118 b 554 1306 435 1250 488 1306 b 675 1183 621 1306 675 1250 b 554 1064 675 1118 621 1064 "},"Ģ":{"ha":985,"x_min":0,"x_max":0,"o":"m 54 485 b 553 985 54 763 276 985 b 892 854 669 985 797 936 b 894 817 904 844 906 828 l 785 700 b 747 699 774 690 758 690 b 565 765 694 747 633 765 b 292 485 414 765 292 638 b 567 208 292 333 415 208 b 690 231 607 208 649 214 l 690 311 l 603 311 b 576 336 588 311 576 322 l 576 474 b 603 500 576 489 588 500 l 882 500 b 907 474 896 500 907 488 l 908 100 b 897 78 908 88 903 82 b 553 -12 897 78 754 -12 b 54 485 276 -12 54 207 m 410 -200 b 529 -89 410 -129 460 -89 b 663 -233 600 -89 663 -128 b 590 -440 663 -331 625 -393 b 558 -442 581 -450 569 -450 l 517 -411 b 514 -379 504 -403 504 -389 b 547 -289 533 -356 547 -318 b 547 -279 547 -286 547 -283 b 501 -292 547 -279 528 -292 b 410 -200 444 -292 410 -253 "},"Ĥ":{"ha":1053,"x_min":0,"x_max":0,"o":"m 110 946 b 136 972 110 960 122 972 l 301 972 b 328 946 317 972 328 960 l 328 596 l 725 596 l 725 946 b 751 972 725 960 736 972 l 917 972 b 943 946 931 972 943 960 l 943 26 b 917 0 943 13 931 0 l 751 0 b 725 26 736 0 725 13 l 725 392 l 328 392 l 328 26 b 301 0 328 13 317 0 l 136 0 b 110 26 122 0 110 13 m 389 1058 b 358 1064 374 1050 367 1053 l 313 1129 b 321 1156 306 1139 314 1150 l 508 1300 b 542 1300 519 1308 533 1306 l 733 1156 b 742 1129 740 1150 747 1140 l 694 1065 b 665 1058 688 1056 675 1053 l 528 1139 l 389 1058 "},"Ħ":{"ha":1053,"x_min":0,"x_max":0,"o":"m 110 738 l 71 738 b 46 764 57 738 46 750 l 46 788 b 71 814 46 801 57 814 l 110 814 l 110 946 b 136 972 110 960 122 972 l 301 972 b 328 946 317 972 328 960 l 328 814 l 725 814 l 725 946 b 751 972 725 960 736 972 l 917 972 b 943 946 931 972 943 960 l 943 814 l 982 814 b 1008 788 997 814 1008 801 l 1008 763 b 982 738 1008 749 997 738 l 943 738 l 943 26 b 917 0 943 13 931 0 l 751 0 b 725 26 736 0 725 13 l 725 392 l 328 392 l 328 26 b 301 0 328 13 317 0 l 136 0 b 110 26 122 0 110 13 m 725 596 l 725 738 l 328 738 l 328 596 "},"Ì":{"ha":439,"x_min":0,"x_max":0,"o":"m 110 946 b 136 972 110 960 122 972 l 303 972 b 329 946 317 972 329 960 l 329 26 b 303 0 329 13 317 0 l 136 0 b 110 26 122 0 110 13 m 65 1172 b 57 1214 54 1179 46 1193 l 104 1296 b 140 1300 111 1308 132 1306 l 376 1156 b 385 1129 383 1150 390 1140 l 356 1071 b 318 1058 349 1057 336 1047 "},"Í":{"ha":439,"x_min":0,"x_max":0,"o":"m 110 946 b 136 972 110 960 122 972 l 303 972 b 329 946 317 972 329 960 l 329 26 b 303 0 329 13 317 0 l 136 0 b 110 26 122 0 110 13 m 121 1058 b 83 1071 103 1047 90 1057 l 54 1129 b 63 1156 49 1140 56 1150 l 299 1300 b 335 1296 307 1306 328 1308 l 382 1214 b 374 1172 393 1193 385 1179 l 121 1058 "},"Ĭ":{"ha":439,"x_min":0,"x_max":0,"o":"m 110 946 b 136 972 110 960 122 972 l 303 972 b 329 946 317 972 329 960 l 329 26 b 303 0 329 13 317 0 l 136 0 b 110 26 122 0 110 13 m 219 1060 b 22 1226 117 1060 36 1132 b 49 1257 19 1243 31 1257 l 111 1257 b 135 1240 122 1257 132 1249 b 219 1174 147 1203 179 1174 b 301 1240 256 1174 289 1207 b 325 1257 304 1250 315 1257 l 390 1257 b 417 1226 407 1257 418 1243 b 219 1060 401 1132 321 1060 "},"Î":{"ha":439,"x_min":0,"x_max":0,"o":"m 110 946 b 136 972 110 960 122 972 l 303 972 b 329 946 317 972 329 960 l 329 26 b 303 0 329 13 317 0 l 136 0 b 110 26 122 0 110 13 m 82 1058 b 51 1064 67 1050 60 1053 l 6 1129 b 14 1156 -1 1139 7 1150 l 201 1300 b 235 1300 213 1308 226 1306 l 426 1156 b 435 1129 433 1150 440 1140 l 388 1065 b 358 1058 381 1056 368 1053 l 221 1139 l 82 1058 "},"Ĩ":{"ha":439,"x_min":0,"x_max":0,"o":"m 110 946 b 136 972 110 960 122 972 l 303 972 b 329 946 317 972 329 960 l 329 26 b 303 0 329 13 317 0 l 136 0 b 110 26 122 0 110 13 m 8 1129 b 0 1161 -1 1136 -4 1151 b 149 1278 14 1186 74 1278 b 299 1213 215 1278 244 1213 b 351 1256 321 1213 342 1240 b 386 1258 358 1267 372 1271 l 433 1222 b 435 1182 444 1214 446 1199 b 296 1074 421 1158 369 1074 b 143 1140 224 1074 190 1140 b 88 1092 118 1140 100 1106 b 57 1090 79 1083 69 1082 "},"Ï":{"ha":439,"x_min":0,"x_max":0,"o":"m 110 946 b 136 972 110 960 122 972 l 303 972 b 329 946 317 972 329 960 l 329 26 b 303 0 329 13 317 0 l 136 0 b 110 26 122 0 110 13 m 403 1060 b 299 1165 344 1060 299 1107 b 403 1269 299 1224 344 1269 b 508 1165 461 1269 508 1224 b 403 1060 508 1107 461 1060 m 35 1060 b -69 1165 -24 1060 -69 1107 b 35 1269 -69 1224 -24 1269 b 140 1165 93 1269 140 1224 b 35 1060 140 1107 93 1060 "},"Ī":{"ha":439,"x_min":0,"x_max":0,"o":"m 110 946 b 136 972 110 960 122 972 l 303 972 b 329 946 317 972 329 960 l 329 26 b 303 0 329 13 317 0 l 136 0 b 110 26 122 0 110 13 m 42 1113 b 15 1138 26 1113 15 1124 l 15 1194 b 42 1221 15 1210 26 1221 l 397 1221 b 424 1194 413 1221 424 1210 l 424 1138 b 397 1113 424 1124 413 1113 l 42 1113 "},"İ":{"ha":439,"x_min":0,"x_max":0,"o":"m 110 946 b 136 972 110 960 122 972 l 303 972 b 329 946 317 972 329 960 l 329 26 b 303 0 329 13 317 0 l 136 0 b 110 26 122 0 110 13 m 219 1064 b 100 1183 153 1064 100 1118 b 219 1306 100 1250 153 1306 b 340 1183 286 1306 340 1250 b 219 1064 340 1118 286 1064 "},"Į":{"ha":439,"x_min":0,"x_max":0,"o":"m 110 946 b 136 972 110 960 122 972 l 303 972 b 329 946 317 972 329 960 l 329 26 b 303 0 329 13 317 0 l 288 0 b 164 -164 247 -29 164 -101 b 211 -215 164 -203 183 -215 b 294 -175 247 -215 283 -186 b 325 -186 307 -162 325 -169 l 325 -265 b 303 -312 325 -283 321 -300 b 175 -346 279 -328 231 -346 b 25 -197 75 -346 25 -279 b 149 0 25 -100 100 -36 l 136 0 b 110 26 122 0 110 13 "},"Ĵ":{"ha":625,"x_min":0,"x_max":0,"o":"m 13 88 b 15 122 6 99 7 113 l 110 215 b 147 215 121 225 136 226 b 218 186 164 199 186 186 b 300 278 257 186 300 201 l 300 946 b 326 972 300 960 311 972 l 496 972 b 522 946 511 972 522 960 l 522 276 b 236 -14 522 83 386 -14 b 13 88 103 -14 36 58 m 265 1058 b 235 1064 250 1050 243 1053 l 189 1129 b 197 1156 182 1139 190 1150 l 385 1300 b 418 1300 396 1308 410 1306 l 610 1156 b 618 1129 617 1150 624 1140 l 571 1065 b 542 1058 564 1056 551 1053 l 404 1139 l 265 1058 "},"Ķ":{"ha":921,"x_min":0,"x_max":0,"o":"m 110 939 b 143 972 110 957 124 972 l 306 972 b 339 939 324 972 339 957 l 339 568 l 647 958 b 674 972 653 965 665 972 l 849 972 b 874 921 875 972 889 942 l 549 508 l 903 53 b 876 1 918 32 903 1 l 685 1 b 660 11 675 1 663 7 l 339 442 l 339 33 b 306 0 339 15 324 0 l 143 0 b 110 33 124 0 110 15 m 378 -200 b 497 -89 378 -129 428 -89 b 631 -233 568 -89 631 -128 b 558 -440 631 -331 593 -393 b 526 -442 549 -450 538 -450 l 485 -411 b 482 -379 472 -403 472 -389 b 515 -289 501 -356 515 -318 b 515 -279 515 -286 515 -283 b 469 -292 515 -279 496 -292 b 378 -200 413 -292 378 -253 "},"Ĺ":{"ha":708,"x_min":0,"x_max":0,"o":"m 110 946 b 136 972 110 960 121 972 l 301 972 b 328 946 315 972 328 960 l 328 204 l 658 204 b 685 178 674 204 685 192 l 685 26 b 658 0 685 13 674 0 l 136 0 b 110 26 121 0 110 13 m 118 1058 b 81 1071 100 1047 88 1057 l 51 1129 b 60 1156 46 1140 53 1150 l 296 1300 b 332 1296 304 1306 325 1308 l 379 1214 b 371 1172 390 1193 382 1179 l 118 1058 "},"Ľ":{"ha":718,"x_min":0,"x_max":0,"o":"m 110 946 b 136 972 110 960 121 972 l 301 972 b 328 946 315 972 328 960 l 328 204 l 658 204 b 685 178 674 204 685 192 l 685 26 b 658 0 685 13 674 0 l 136 0 b 110 26 121 0 110 13 m 418 875 b 538 986 418 946 468 986 b 671 842 608 986 671 947 b 599 635 671 744 633 682 b 567 633 589 625 578 625 l 525 664 b 522 696 513 672 513 686 b 556 786 542 719 556 757 b 556 796 556 789 556 792 b 510 783 556 796 536 783 b 418 875 453 783 418 822 "},"Ļ":{"ha":708,"x_min":0,"x_max":0,"o":"m 110 946 b 136 972 110 960 121 972 l 301 972 b 328 946 315 972 328 960 l 328 204 l 658 204 b 685 178 674 204 685 192 l 685 26 b 658 0 685 13 674 0 l 136 0 b 110 26 121 0 110 13 m 271 -200 b 390 -89 271 -129 321 -89 b 524 -233 461 -89 524 -128 b 451 -440 524 -331 486 -393 b 419 -442 442 -450 431 -450 l 378 -411 b 375 -379 365 -403 365 -389 b 408 -289 394 -356 408 -318 b 408 -279 408 -286 408 -283 b 363 -292 408 -279 389 -292 b 271 -200 306 -292 271 -253 "},"Ł":{"ha":708,"x_min":0,"x_max":0,"o":"m 110 422 l 78 404 b 42 414 65 397 49 401 l 31 435 b 39 469 24 446 26 463 l 110 510 l 110 946 b 136 972 110 960 121 972 l 301 972 b 328 946 315 972 328 960 l 328 636 l 432 697 b 468 688 446 704 461 700 l 481 665 b 471 631 488 654 483 639 l 328 547 l 328 204 l 658 204 b 685 178 674 204 685 192 l 685 26 b 658 0 685 13 674 0 l 136 0 b 110 26 121 0 110 13 "},"Ŀ":{"ha":758,"x_min":0,"x_max":0,"o":"m 110 946 b 136 972 110 960 121 972 l 301 972 b 328 946 315 972 328 960 l 328 204 l 658 204 b 685 178 674 204 685 192 l 685 26 b 658 0 685 13 674 0 l 136 0 b 110 26 121 0 110 13 m 629 417 b 510 536 563 417 510 471 b 629 658 510 603 563 658 b 750 536 696 658 750 603 b 629 417 750 471 696 417 "},"Ń":{"ha":1054,"x_min":0,"x_max":0,"o":"m 108 961 b 135 986 108 975 121 986 l 156 986 b 190 965 169 986 179 976 l 724 453 b 725 453 724 453 725 453 l 725 946 b 751 972 725 960 736 972 l 918 972 b 944 946 932 972 944 960 l 944 11 b 918 -14 944 -6 932 -14 l 904 -14 b 869 1 890 -14 881 -10 l 329 544 b 328 544 329 544 328 544 l 328 26 b 301 0 328 13 317 0 l 136 0 b 110 26 122 0 110 13 m 431 1058 b 393 1071 413 1047 400 1057 l 364 1129 b 372 1156 358 1140 365 1150 l 608 1300 b 644 1296 617 1306 638 1308 l 692 1214 b 683 1172 703 1193 694 1179 l 431 1058 "},"Ň":{"ha":1054,"x_min":0,"x_max":0,"o":"m 108 961 b 135 986 108 975 121 986 l 156 986 b 190 965 169 986 179 976 l 724 453 b 725 453 724 453 725 453 l 725 946 b 751 972 725 960 736 972 l 918 972 b 944 946 932 972 944 960 l 944 11 b 918 -14 944 -6 932 -14 l 904 -14 b 869 1 890 -14 881 -10 l 329 544 b 328 544 329 544 328 544 l 328 26 b 301 0 328 13 317 0 l 136 0 b 110 26 122 0 110 13 m 322 1203 b 314 1229 315 1208 308 1218 l 361 1293 b 390 1300 368 1303 381 1306 l 528 1219 l 667 1300 b 697 1294 682 1308 689 1306 l 743 1229 b 735 1203 750 1219 742 1208 l 547 1058 b 514 1058 536 1050 522 1053 "},"Ñ":{"ha":1054,"x_min":0,"x_max":0,"o":"m 108 961 b 135 986 108 975 121 986 l 156 986 b 190 965 169 986 179 976 l 724 453 b 725 453 724 453 725 453 l 725 946 b 751 972 725 960 736 972 l 918 972 b 944 946 932 972 944 960 l 944 11 b 918 -14 944 -6 932 -14 l 904 -14 b 869 1 890 -14 881 -10 l 329 544 b 328 544 329 544 328 544 l 328 26 b 301 0 328 13 317 0 l 136 0 b 110 26 122 0 110 13 m 318 1129 b 310 1161 308 1136 306 1151 b 458 1278 324 1186 383 1278 b 608 1213 525 1278 554 1213 b 661 1256 631 1213 651 1240 b 696 1258 668 1267 682 1271 l 743 1222 b 744 1182 754 1214 756 1199 b 606 1074 731 1158 679 1074 b 453 1140 533 1074 500 1140 b 397 1092 428 1140 410 1106 b 367 1090 389 1083 379 1082 "},"Ņ":{"ha":1054,"x_min":0,"x_max":0,"o":"m 108 961 b 135 986 108 975 121 986 l 156 986 b 190 965 169 986 179 976 l 724 453 b 725 453 724 453 725 453 l 725 946 b 751 972 725 960 736 972 l 918 972 b 944 946 932 972 944 960 l 944 11 b 918 -14 944 -6 932 -14 l 904 -14 b 869 1 890 -14 881 -10 l 329 544 b 328 544 329 544 328 544 l 328 26 b 301 0 328 13 317 0 l 136 0 b 110 26 122 0 110 13 m 436 -200 b 556 -89 436 -129 486 -89 b 689 -233 626 -89 689 -128 b 617 -440 689 -331 651 -393 b 585 -442 607 -450 596 -450 l 543 -411 b 540 -379 531 -403 531 -389 b 574 -289 560 -356 574 -318 b 574 -279 574 -286 574 -283 b 528 -292 574 -279 554 -292 b 436 -200 471 -292 436 -253 "},"Ò":{"ha":1107,"x_min":0,"x_max":0,"o":"m 54 485 b 553 986 54 763 275 986 b 1053 485 831 986 1053 763 b 553 -14 1053 207 831 -14 b 54 485 275 -14 54 207 m 276 485 b 553 208 276 333 401 208 b 831 485 706 208 831 333 b 553 764 831 638 706 764 b 276 485 401 764 276 638 m 399 1172 b 390 1214 388 1179 379 1193 l 438 1296 b 474 1300 444 1308 465 1306 l 710 1156 b 718 1129 717 1150 724 1140 l 689 1071 b 651 1058 682 1057 669 1047 "},"Ó":{"ha":1107,"x_min":0,"x_max":0,"o":"m 54 485 b 553 986 54 763 275 986 b 1053 485 831 986 1053 763 b 553 -14 1053 207 831 -14 b 54 485 275 -14 54 207 m 276 485 b 553 208 276 333 401 208 b 831 485 706 208 831 333 b 553 764 831 638 706 764 b 276 485 401 764 276 638 m 454 1058 b 417 1071 436 1047 424 1057 l 388 1129 b 396 1156 382 1140 389 1150 l 632 1300 b 668 1296 640 1306 661 1308 l 715 1214 b 707 1172 726 1193 718 1179 l 454 1058 "},"Ô":{"ha":1107,"x_min":0,"x_max":0,"o":"m 54 485 b 553 986 54 763 275 986 b 1053 485 831 986 1053 763 b 553 -14 1053 207 831 -14 b 54 485 275 -14 54 207 m 276 485 b 553 208 276 333 401 208 b 831 485 706 208 831 333 b 553 764 831 638 706 764 b 276 485 401 764 276 638 m 415 1058 b 385 1064 400 1050 393 1053 l 339 1129 b 347 1156 332 1139 340 1150 l 535 1300 b 568 1300 546 1308 560 1306 l 760 1156 b 768 1129 767 1150 774 1140 l 721 1065 b 692 1058 714 1056 701 1053 l 554 1139 l 415 1058 "},"Õ":{"ha":1107,"x_min":0,"x_max":0,"o":"m 54 485 b 553 986 54 763 275 986 b 1053 485 831 986 1053 763 b 553 -14 1053 207 831 -14 b 54 485 275 -14 54 207 m 276 485 b 553 208 276 333 401 208 b 831 485 706 208 831 333 b 553 764 831 638 706 764 b 276 485 401 764 276 638 m 342 1129 b 333 1161 332 1136 329 1151 b 482 1278 347 1186 407 1278 b 632 1213 549 1278 578 1213 b 685 1256 654 1213 675 1240 b 719 1258 692 1267 706 1271 l 767 1222 b 768 1182 778 1214 779 1199 b 629 1074 754 1158 703 1074 b 476 1140 557 1074 524 1140 b 421 1092 451 1140 433 1106 b 390 1090 413 1083 403 1082 "},"Ö":{"ha":1107,"x_min":0,"x_max":0,"o":"m 54 485 b 553 986 54 763 275 986 b 1053 485 831 986 1053 763 b 553 -14 1053 207 831 -14 b 54 485 275 -14 54 207 m 276 485 b 553 208 276 333 401 208 b 831 485 706 208 831 333 b 553 764 831 638 706 764 b 276 485 401 764 276 638 m 736 1060 b 632 1165 678 1060 632 1107 b 736 1269 632 1224 678 1269 b 842 1165 794 1269 842 1224 b 736 1060 842 1107 794 1060 m 368 1060 b 264 1165 310 1060 264 1107 b 368 1269 264 1224 310 1269 b 474 1165 426 1269 474 1224 b 368 1060 474 1107 426 1060 "},"Ō":{"ha":1107,"x_min":0,"x_max":0,"o":"m 54 485 b 553 986 54 763 275 986 b 1053 485 831 986 1053 763 b 553 -14 1053 207 831 -14 b 54 485 275 -14 54 207 m 276 485 b 553 208 276 333 401 208 b 831 485 706 208 831 333 b 553 764 831 638 706 764 b 276 485 401 764 276 638 m 375 1113 b 349 1138 360 1113 349 1124 l 349 1194 b 375 1221 349 1210 360 1221 l 731 1221 b 757 1194 746 1221 757 1210 l 757 1138 b 731 1113 757 1124 746 1113 l 375 1113 "},"Ŏ":{"ha":1107,"x_min":0,"x_max":0,"o":"m 54 485 b 553 986 54 763 275 986 b 1053 485 831 986 1053 763 b 553 -14 1053 207 831 -14 b 54 485 275 -14 54 207 m 276 485 b 553 208 276 333 401 208 b 831 485 706 208 831 333 b 553 764 831 638 706 764 b 276 485 401 764 276 638 m 553 1060 b 356 1226 450 1060 369 1132 b 382 1257 353 1243 364 1257 l 444 1257 b 468 1240 456 1257 465 1249 b 553 1174 481 1203 513 1174 b 635 1240 589 1174 622 1207 b 658 1257 638 1250 649 1257 l 724 1257 b 750 1226 740 1257 751 1243 b 553 1060 735 1132 654 1060 "},"Ő":{"ha":1107,"x_min":0,"x_max":0,"o":"m 54 485 b 553 986 54 763 275 986 b 1053 485 831 986 1053 763 b 553 -14 1053 207 831 -14 b 54 485 275 -14 54 207 m 276 485 b 553 208 276 333 401 208 b 831 485 706 208 831 333 b 553 764 831 638 706 764 b 276 485 401 764 276 638 m 651 1067 b 625 1093 638 1067 621 1079 l 667 1289 b 693 1315 671 1303 679 1315 l 824 1315 b 849 1281 850 1315 860 1297 l 740 1088 b 715 1067 733 1078 725 1067 l 651 1067 m 421 1067 b 394 1093 407 1067 390 1079 l 436 1289 b 463 1315 440 1303 449 1315 l 593 1315 b 618 1281 619 1315 628 1299 l 510 1088 b 485 1067 504 1076 494 1067 l 421 1067 "},"Ø":{"ha":1108,"x_min":0,"x_max":0,"o":"m 82 32 b 81 68 72 42 71 58 l 174 160 b 56 485 100 247 56 360 b 554 986 56 763 276 986 b 881 865 679 986 793 940 l 978 961 b 1014 961 988 972 1004 971 l 1031 944 b 1031 908 1042 935 1042 919 l 933 811 b 1054 485 1008 724 1054 610 b 554 -14 1054 207 832 -14 b 228 106 428 -14 314 31 l 135 14 b 99 15 125 4 108 6 l 82 32 m 722 707 b 554 764 675 742 617 764 b 278 485 403 764 278 638 b 333 319 278 422 299 365 m 388 265 b 554 208 433 229 492 208 b 832 485 707 208 832 333 b 775 653 832 547 811 607 l 388 265 "},"Ǿ":{"ha":1108,"x_min":0,"x_max":0,"o":"m 82 32 b 81 68 72 42 71 58 l 174 160 b 56 485 100 247 56 360 b 554 986 56 763 276 986 b 881 865 679 986 793 940 l 978 961 b 1014 961 988 972 1004 971 l 1031 944 b 1031 908 1042 935 1042 919 l 933 811 b 1054 485 1008 724 1054 610 b 554 -14 1054 207 832 -14 b 228 106 428 -14 314 31 l 135 14 b 99 15 125 4 108 6 l 82 32 m 722 707 b 554 764 675 742 617 764 b 278 485 403 764 278 638 b 333 319 278 422 299 365 m 388 265 b 554 208 433 229 492 208 b 832 485 707 208 832 333 b 775 653 832 547 811 607 l 388 265 m 456 1058 b 418 1071 438 1047 425 1057 l 389 1129 b 397 1156 383 1140 390 1150 l 633 1300 b 669 1296 642 1306 663 1308 l 717 1214 b 708 1172 728 1193 719 1179 l 456 1058 "},"Œ":{"ha":1363,"x_min":0,"x_max":0,"o":"m 54 485 b 553 986 54 763 275 986 b 696 972 625 986 696 972 l 1271 972 b 1297 946 1286 972 1297 960 l 1297 794 b 1271 768 1297 781 1286 768 l 886 768 l 886 596 l 1203 596 b 1229 569 1217 596 1229 583 l 1229 418 b 1203 392 1229 403 1217 392 l 886 392 l 886 204 l 1271 204 b 1297 178 1286 204 1297 192 l 1297 26 b 1271 0 1297 13 1286 0 l 696 0 b 553 -14 696 0 622 -14 b 54 485 275 -14 54 207 m 276 485 b 553 204 276 333 401 204 b 669 226 594 204 633 210 l 669 744 b 553 767 633 761 594 767 b 276 485 401 767 276 638 "},"Ŕ":{"ha":919,"x_min":0,"x_max":0,"o":"m 110 946 b 136 972 110 960 121 972 l 551 972 b 854 672 728 972 854 838 b 649 393 854 544 778 442 l 839 40 b 815 0 849 22 839 0 l 631 0 b 608 13 619 0 611 7 l 424 381 l 328 381 l 328 26 b 301 0 328 13 315 0 l 136 0 b 110 26 121 0 110 13 m 533 557 b 639 668 590 557 639 603 b 533 774 639 733 590 774 l 328 774 l 328 557 m 342 1058 b 304 1071 324 1047 311 1057 l 275 1129 b 283 1156 269 1140 276 1150 l 519 1300 b 556 1296 528 1306 549 1308 l 603 1214 b 594 1172 614 1193 606 1179 l 342 1058 "},"Ř":{"ha":919,"x_min":0,"x_max":0,"o":"m 110 946 b 136 972 110 960 121 972 l 551 972 b 854 672 728 972 854 838 b 649 393 854 544 778 442 l 839 40 b 815 0 849 22 839 0 l 631 0 b 608 13 619 0 611 7 l 424 381 l 328 381 l 328 26 b 301 0 328 13 315 0 l 136 0 b 110 26 121 0 110 13 m 533 557 b 639 668 590 557 639 603 b 533 774 639 733 590 774 l 328 774 l 328 557 m 233 1203 b 225 1229 226 1208 219 1218 l 272 1293 b 301 1300 279 1303 292 1306 l 439 1219 l 578 1300 b 608 1294 593 1308 600 1306 l 654 1229 b 646 1203 661 1219 653 1208 l 458 1058 b 425 1058 447 1050 433 1053 "},"Ŗ":{"ha":919,"x_min":0,"x_max":0,"o":"m 110 946 b 136 972 110 960 121 972 l 551 972 b 854 672 728 972 854 838 b 649 393 854 544 778 442 l 839 40 b 815 0 849 22 839 0 l 631 0 b 608 13 619 0 611 7 l 424 381 l 328 381 l 328 26 b 301 0 328 13 315 0 l 136 0 b 110 26 121 0 110 13 m 533 557 b 639 668 590 557 639 603 b 533 774 639 733 590 774 l 328 774 l 328 557 m 346 -200 b 465 -89 346 -129 396 -89 b 599 -233 536 -89 599 -128 b 526 -440 599 -331 561 -393 b 494 -442 517 -450 506 -450 l 453 -411 b 450 -379 440 -403 440 -389 b 483 -289 469 -356 483 -318 b 483 -279 483 -286 483 -283 b 438 -292 483 -279 464 -292 b 346 -200 381 -292 346 -253 "},"Ś":{"ha":768,"x_min":0,"x_max":0,"o":"m 386 -14 b 74 93 206 -14 106 61 b 68 135 63 104 58 117 l 132 247 b 179 256 143 265 165 265 b 376 179 218 229 289 179 b 472 263 432 179 472 214 b 329 403 472 321 421 358 b 60 710 194 468 60 543 b 381 986 60 847 167 986 b 678 882 525 986 636 913 b 686 838 694 872 692 847 l 615 731 b 554 721 606 715 582 704 b 367 796 522 743 440 796 b 282 719 308 796 282 760 b 433 590 282 674 336 638 b 714 274 556 531 714 463 b 386 -14 714 131 590 -14 m 283 1058 b 246 1071 265 1047 253 1057 l 217 1129 b 225 1156 211 1140 218 1150 l 461 1300 b 497 1296 469 1306 490 1308 l 544 1214 b 536 1172 556 1193 547 1179 l 283 1058 "},"Ŝ":{"ha":768,"x_min":0,"x_max":0,"o":"m 386 -14 b 74 93 206 -14 106 61 b 68 135 63 104 58 117 l 132 247 b 179 256 143 265 165 265 b 376 179 218 229 289 179 b 472 263 432 179 472 214 b 329 403 472 321 421 358 b 60 710 194 468 60 543 b 381 986 60 847 167 986 b 678 882 525 986 636 913 b 686 838 694 872 692 847 l 615 731 b 554 721 606 715 582 704 b 367 796 522 743 440 796 b 282 719 308 796 282 760 b 433 590 282 674 336 638 b 714 274 556 531 714 463 b 386 -14 714 131 590 -14 m 244 1058 b 214 1064 229 1050 222 1053 l 168 1129 b 176 1156 161 1139 169 1150 l 364 1300 b 397 1300 375 1308 389 1306 l 589 1156 b 597 1129 596 1150 603 1140 l 550 1065 b 521 1058 543 1056 531 1053 l 383 1139 l 244 1058 "},"Š":{"ha":768,"x_min":0,"x_max":0,"o":"m 386 -14 b 74 93 206 -14 106 61 b 68 135 63 104 58 117 l 132 247 b 179 256 143 265 165 265 b 376 179 218 229 289 179 b 472 263 432 179 472 214 b 329 403 472 321 421 358 b 60 710 194 468 60 543 b 381 986 60 847 167 986 b 678 882 525 986 636 913 b 686 838 694 872 692 847 l 615 731 b 554 721 606 715 582 704 b 367 796 522 743 440 796 b 282 719 308 796 282 760 b 433 590 282 674 336 638 b 714 274 556 531 714 463 b 386 -14 714 131 590 -14 m 175 1203 b 167 1229 168 1208 161 1218 l 214 1293 b 243 1300 221 1303 233 1306 l 381 1219 l 519 1300 b 550 1294 535 1308 542 1306 l 596 1229 b 588 1203 603 1219 594 1208 l 400 1058 b 367 1058 389 1050 375 1053 "},"Ş":{"ha":768,"x_min":0,"x_max":0,"o":"m 318 -10 b 74 93 179 6 101 65 b 68 135 63 104 58 117 l 132 247 b 179 256 143 265 165 265 b 376 179 218 229 289 179 b 472 263 432 179 472 214 b 329 403 472 321 421 358 b 60 710 194 468 60 543 b 381 986 60 847 167 986 b 678 882 525 986 636 913 b 686 838 694 872 692 847 l 615 731 b 554 721 606 715 582 704 b 367 796 522 743 440 796 b 282 719 308 796 282 760 b 433 590 282 674 336 638 b 714 274 556 531 714 463 b 414 -12 714 138 601 0 l 372 -79 b 393 -78 381 -78 388 -78 b 518 -200 456 -78 518 -111 b 344 -346 518 -294 439 -346 b 228 -312 290 -346 251 -332 b 226 -269 215 -301 218 -287 l 240 -237 b 282 -224 250 -215 264 -211 b 338 -242 289 -229 313 -242 b 396 -196 372 -242 396 -228 b 338 -150 396 -164 372 -150 b 288 -162 314 -150 299 -158 b 260 -136 272 -168 253 -150 l 318 -10 "},"Ș":{"ha":768,"x_min":0,"x_max":0,"o":"m 386 -14 b 74 93 206 -14 106 61 b 68 135 63 104 58 117 l 132 247 b 179 256 143 265 165 265 b 376 179 218 229 289 179 b 472 263 432 179 472 214 b 329 403 472 321 421 358 b 60 710 194 468 60 543 b 381 986 60 847 167 986 b 678 882 525 986 636 913 b 686 838 694 872 692 847 l 615 731 b 554 721 606 715 582 704 b 367 796 522 743 440 796 b 282 719 308 796 282 760 b 433 590 282 674 336 638 b 714 274 556 531 714 463 b 386 -14 714 131 590 -14 m 258 -200 b 378 -89 258 -129 308 -89 b 511 -233 449 -89 511 -128 b 439 -440 511 -331 474 -393 b 407 -442 429 -450 418 -450 l 365 -411 b 363 -379 353 -403 353 -389 b 396 -289 382 -356 396 -318 b 396 -279 396 -286 396 -283 b 350 -292 396 -279 376 -292 b 258 -200 293 -292 258 -253 "},"Ť":{"ha":742,"x_min":0,"x_max":0,"o":"m 261 768 l 63 768 b 36 794 47 768 36 781 l 36 946 b 63 972 36 960 47 972 l 679 972 b 706 946 694 972 706 960 l 706 794 b 679 768 706 781 694 768 l 481 768 l 481 26 b 454 0 481 13 468 0 l 288 0 b 261 26 274 0 261 13 m 164 1203 b 156 1229 157 1208 150 1218 l 203 1293 b 232 1300 210 1303 222 1306 l 369 1219 l 508 1300 b 539 1294 524 1308 531 1306 l 585 1229 b 576 1203 592 1219 583 1208 l 389 1058 b 356 1058 378 1050 364 1053 "},"Ţ":{"ha":742,"x_min":0,"x_max":0,"o":"m 261 768 l 63 768 b 36 794 47 768 36 781 l 36 946 b 63 972 36 960 47 972 l 679 972 b 706 946 694 972 706 960 l 706 794 b 679 768 706 781 694 768 l 481 768 l 481 26 b 454 0 481 13 468 0 l 414 0 l 364 -79 b 385 -78 372 -78 379 -78 b 510 -200 447 -78 510 -111 b 336 -346 510 -294 431 -346 b 219 -312 282 -346 243 -332 b 218 -269 207 -301 210 -287 l 232 -237 b 274 -224 242 -215 256 -211 b 329 -242 281 -229 304 -242 b 388 -196 364 -242 388 -228 b 329 -150 388 -164 364 -150 b 279 -162 306 -150 290 -158 b 251 -136 264 -168 244 -150 l 314 0 l 288 0 b 261 26 274 0 261 13 "},"Ț":{"ha":742,"x_min":0,"x_max":0,"o":"m 261 768 l 63 768 b 36 794 47 768 36 781 l 36 946 b 63 972 36 960 47 972 l 679 972 b 706 946 694 972 706 960 l 706 794 b 679 768 706 781 694 768 l 481 768 l 481 26 b 454 0 481 13 468 0 l 288 0 b 261 26 274 0 261 13 m 239 -200 b 358 -89 239 -129 289 -89 b 492 -233 429 -89 492 -128 b 419 -440 492 -331 454 -393 b 388 -442 410 -450 399 -450 l 346 -411 b 343 -379 333 -403 333 -389 b 376 -289 363 -356 376 -318 b 376 -279 376 -286 376 -283 b 331 -292 376 -279 357 -292 b 239 -200 274 -292 239 -253 "},"Ŧ":{"ha":742,"x_min":0,"x_max":0,"o":"m 261 401 l 147 401 b 122 428 133 401 122 414 l 122 451 b 147 478 122 465 133 478 l 261 478 l 261 768 l 63 768 b 36 794 47 768 36 781 l 36 946 b 63 972 36 960 47 972 l 679 972 b 706 946 694 972 706 960 l 706 794 b 679 768 706 781 694 768 l 481 768 l 481 478 l 601 478 b 628 451 617 478 628 465 l 628 426 b 601 401 628 413 617 401 l 481 401 l 481 26 b 454 0 481 13 468 0 l 288 0 b 261 26 274 0 261 13 "},"Þ":{"ha":811,"x_min":0,"x_max":0,"o":"m 110 946 b 136 972 110 960 121 972 l 300 972 b 326 946 314 972 326 960 l 326 796 l 471 796 b 782 489 642 796 782 657 b 472 176 782 317 642 176 l 326 176 l 326 26 b 300 0 326 13 314 0 l 136 0 b 110 26 121 0 110 13 m 458 379 b 568 489 518 379 568 426 b 458 592 568 547 518 592 l 326 592 l 326 379 "},"Ù":{"ha":992,"x_min":0,"x_max":0,"o":"m 100 946 b 126 972 100 960 113 972 l 297 972 b 324 946 313 972 324 960 l 324 367 b 494 208 324 265 396 208 b 668 367 594 208 668 265 l 668 946 b 694 972 668 960 679 972 l 865 972 b 892 946 879 972 892 960 l 892 356 b 494 -14 892 144 714 -14 b 100 356 276 -14 100 144 m 342 1172 b 333 1214 331 1179 322 1193 l 381 1296 b 417 1300 388 1308 408 1306 l 653 1156 b 661 1129 660 1150 667 1140 l 632 1071 b 594 1058 625 1057 613 1047 "},"Ú":{"ha":992,"x_min":0,"x_max":0,"o":"m 100 946 b 126 972 100 960 113 972 l 297 972 b 324 946 313 972 324 960 l 324 367 b 494 208 324 265 396 208 b 668 367 594 208 668 265 l 668 946 b 694 972 668 960 679 972 l 865 972 b 892 946 879 972 892 960 l 892 356 b 494 -14 892 144 714 -14 b 100 356 276 -14 100 144 m 397 1058 b 360 1071 379 1047 367 1057 l 331 1129 b 339 1156 325 1140 332 1150 l 575 1300 b 611 1296 583 1306 604 1308 l 658 1214 b 650 1172 669 1193 661 1179 l 397 1058 "},"Û":{"ha":992,"x_min":0,"x_max":0,"o":"m 100 946 b 126 972 100 960 113 972 l 297 972 b 324 946 313 972 324 960 l 324 367 b 494 208 324 265 396 208 b 668 367 594 208 668 265 l 668 946 b 694 972 668 960 679 972 l 865 972 b 892 946 879 972 892 960 l 892 356 b 494 -14 892 144 714 -14 b 100 356 276 -14 100 144 m 357 1058 b 326 1064 342 1050 335 1053 l 281 1129 b 289 1156 274 1139 282 1150 l 476 1300 b 510 1300 488 1308 501 1306 l 701 1156 b 710 1129 708 1150 715 1140 l 663 1065 b 633 1058 656 1056 643 1053 l 496 1139 l 357 1058 "},"Ũ":{"ha":992,"x_min":0,"x_max":0,"o":"m 100 946 b 126 972 100 960 113 972 l 297 972 b 324 946 313 972 324 960 l 324 367 b 494 208 324 265 396 208 b 668 367 594 208 668 265 l 668 946 b 694 972 668 960 679 972 l 865 972 b 892 946 879 972 892 960 l 892 356 b 494 -14 892 144 714 -14 b 100 356 276 -14 100 144 m 285 1129 b 276 1161 275 1136 272 1151 b 425 1278 290 1186 350 1278 b 575 1213 492 1278 521 1213 b 628 1256 597 1213 618 1240 b 663 1258 635 1267 649 1271 l 710 1222 b 711 1182 721 1214 722 1199 b 572 1074 697 1158 646 1074 b 419 1140 500 1074 467 1140 b 364 1092 394 1140 376 1106 b 333 1090 356 1083 346 1082 "},"Ü":{"ha":992,"x_min":0,"x_max":0,"o":"m 100 946 b 126 972 100 960 113 972 l 297 972 b 324 946 313 972 324 960 l 324 367 b 494 208 324 265 396 208 b 668 367 594 208 668 265 l 668 946 b 694 972 668 960 679 972 l 865 972 b 892 946 879 972 892 960 l 892 356 b 494 -14 892 144 714 -14 b 100 356 276 -14 100 144 m 678 1060 b 574 1165 619 1060 574 1107 b 678 1269 574 1224 619 1269 b 783 1165 736 1269 783 1224 b 678 1060 783 1107 736 1060 m 310 1060 b 206 1165 251 1060 206 1107 b 310 1269 206 1224 251 1269 b 415 1165 368 1269 415 1224 b 310 1060 415 1107 368 1060 "},"Ū":{"ha":992,"x_min":0,"x_max":0,"o":"m 100 946 b 126 972 100 960 113 972 l 297 972 b 324 946 313 972 324 960 l 324 367 b 494 208 324 265 396 208 b 668 367 594 208 668 265 l 668 946 b 694 972 668 960 679 972 l 865 972 b 892 946 879 972 892 960 l 892 356 b 494 -14 892 144 714 -14 b 100 356 276 -14 100 144 m 318 1113 b 292 1138 303 1113 292 1124 l 292 1194 b 318 1221 292 1210 303 1221 l 674 1221 b 700 1194 689 1221 700 1210 l 700 1138 b 674 1113 700 1124 689 1113 l 318 1113 "},"Ŭ":{"ha":992,"x_min":0,"x_max":0,"o":"m 100 946 b 126 972 100 960 113 972 l 297 972 b 324 946 313 972 324 960 l 324 367 b 494 208 324 265 396 208 b 668 367 594 208 668 265 l 668 946 b 694 972 668 960 679 972 l 865 972 b 892 946 879 972 892 960 l 892 356 b 494 -14 892 144 714 -14 b 100 356 276 -14 100 144 m 496 1060 b 299 1226 393 1060 313 1132 b 325 1257 296 1243 307 1257 l 388 1257 b 411 1240 399 1257 408 1249 b 496 1174 424 1203 456 1174 b 578 1240 532 1174 565 1207 b 601 1257 581 1250 592 1257 l 667 1257 b 693 1226 683 1257 694 1243 b 496 1060 678 1132 597 1060 "},"Ů":{"ha":992,"x_min":0,"x_max":0,"o":"m 100 946 b 126 972 100 960 113 972 l 297 972 b 324 946 313 972 324 960 l 324 367 b 494 208 324 265 396 208 b 668 367 594 208 668 265 l 668 946 b 694 972 668 960 679 972 l 865 972 b 892 946 879 972 892 960 l 892 356 b 494 -14 892 144 714 -14 b 100 356 276 -14 100 144 m 496 1044 b 336 1204 407 1044 336 1115 b 496 1364 336 1293 407 1364 b 656 1204 583 1364 656 1293 b 496 1044 656 1115 583 1044 m 496 1143 b 556 1204 528 1143 556 1172 b 496 1264 556 1236 528 1264 b 435 1204 464 1264 435 1236 b 496 1143 435 1172 464 1143 "},"Ű":{"ha":992,"x_min":0,"x_max":0,"o":"m 100 946 b 126 972 100 960 113 972 l 297 972 b 324 946 313 972 324 960 l 324 367 b 494 208 324 265 396 208 b 668 367 594 208 668 265 l 668 946 b 694 972 668 960 679 972 l 865 972 b 892 946 879 972 892 960 l 892 356 b 494 -14 892 144 714 -14 b 100 356 276 -14 100 144 m 581 1067 b 554 1093 567 1067 550 1079 l 596 1289 b 622 1315 600 1303 608 1315 l 753 1315 b 778 1281 779 1315 789 1297 l 669 1088 b 644 1067 663 1078 654 1067 l 581 1067 m 350 1067 b 324 1093 336 1067 319 1079 l 365 1289 b 392 1315 369 1303 378 1315 l 522 1315 b 547 1281 549 1315 557 1299 l 439 1088 b 414 1067 433 1076 424 1067 l 350 1067 "},"Ų":{"ha":992,"x_min":0,"x_max":0,"o":"m 100 946 b 126 972 100 960 113 972 l 297 972 b 324 946 313 972 324 960 l 324 383 b 494 208 324 286 396 208 b 668 383 594 208 668 286 l 668 946 b 694 972 668 960 679 972 l 865 972 b 892 946 879 972 892 960 l 892 372 b 594 -1 892 194 765 42 b 472 -164 553 -32 472 -103 b 519 -215 472 -203 492 -215 b 603 -175 556 -215 592 -186 b 633 -186 615 -162 633 -169 l 633 -265 b 611 -312 633 -283 629 -300 b 483 -346 588 -328 539 -346 b 333 -197 383 -346 333 -279 b 443 -10 333 -110 396 -49 b 100 372 249 14 100 178 "},"Ẃ":{"ha":1228,"x_min":0,"x_max":0,"o":"m 25 939 b 50 972 19 958 31 972 l 213 972 b 238 953 224 972 235 963 l 357 482 l 363 482 l 578 971 b 601 986 582 979 590 986 l 626 986 b 650 971 639 986 647 979 l 865 482 l 871 482 l 990 953 b 1015 972 993 963 1004 972 l 1178 972 b 1203 939 1197 972 1208 958 l 940 6 b 915 -14 938 -6 926 -14 l 893 -14 b 869 1 883 -14 874 -7 l 615 569 l 611 569 l 358 1 b 335 -14 354 -7 344 -14 l 313 -14 b 288 6 301 -14 290 -6 m 513 1058 b 475 1071 494 1047 482 1057 l 446 1129 b 454 1156 440 1140 447 1150 l 690 1300 b 726 1296 699 1306 719 1308 l 774 1214 b 765 1172 785 1193 776 1179 l 513 1058 "},"Ŵ":{"ha":1228,"x_min":0,"x_max":0,"o":"m 25 939 b 50 972 19 958 31 972 l 213 972 b 238 953 224 972 235 963 l 357 482 l 363 482 l 578 971 b 601 986 582 979 590 986 l 626 986 b 650 971 639 986 647 979 l 865 482 l 871 482 l 990 953 b 1015 972 993 963 1004 972 l 1178 972 b 1203 939 1197 972 1208 958 l 940 6 b 915 -14 938 -6 926 -14 l 893 -14 b 869 1 883 -14 874 -7 l 615 569 l 611 569 l 358 1 b 335 -14 354 -7 344 -14 l 313 -14 b 288 6 301 -14 290 -6 m 474 1058 b 443 1064 458 1050 451 1053 l 397 1129 b 406 1156 390 1139 399 1150 l 593 1300 b 626 1300 604 1308 618 1306 l 818 1156 b 826 1129 825 1150 832 1140 l 779 1065 b 750 1058 772 1056 760 1053 l 613 1139 l 474 1058 "},"Ẅ":{"ha":1228,"x_min":0,"x_max":0,"o":"m 25 939 b 50 972 19 958 31 972 l 213 972 b 238 953 224 972 235 963 l 357 482 l 363 482 l 578 971 b 601 986 582 979 590 986 l 626 986 b 650 971 639 986 647 979 l 865 482 l 871 482 l 990 953 b 1015 972 993 963 1004 972 l 1178 972 b 1203 939 1197 972 1208 958 l 940 6 b 915 -14 938 -6 926 -14 l 893 -14 b 869 1 883 -14 874 -7 l 615 569 l 611 569 l 358 1 b 335 -14 354 -7 344 -14 l 313 -14 b 288 6 301 -14 290 -6 m 794 1060 b 690 1165 736 1060 690 1107 b 794 1269 690 1224 736 1269 b 900 1165 853 1269 900 1224 b 794 1060 900 1107 853 1060 m 426 1060 b 322 1165 368 1060 322 1107 b 426 1269 322 1224 368 1269 b 532 1165 485 1269 532 1224 b 426 1060 532 1107 485 1060 "},"Ẁ":{"ha":1228,"x_min":0,"x_max":0,"o":"m 25 939 b 50 972 19 958 31 972 l 213 972 b 238 953 224 972 235 963 l 357 482 l 363 482 l 578 971 b 601 986 582 979 590 986 l 626 986 b 650 971 639 986 647 979 l 865 482 l 871 482 l 990 953 b 1015 972 993 963 1004 972 l 1178 972 b 1203 939 1197 972 1208 958 l 940 6 b 915 -14 938 -6 926 -14 l 893 -14 b 869 1 883 -14 874 -7 l 615 569 l 611 569 l 358 1 b 335 -14 354 -7 344 -14 l 313 -14 b 288 6 301 -14 290 -6 m 458 1172 b 450 1214 447 1179 439 1193 l 497 1296 b 533 1300 504 1308 525 1306 l 769 1156 b 778 1129 776 1150 783 1140 l 749 1071 b 711 1058 742 1057 729 1047 "},"Ý":{"ha":836,"x_min":0,"x_max":0,"o":"m 308 468 l 1 932 b 24 972 -10 950 1 972 l 204 972 b 226 960 215 972 222 965 l 419 675 l 613 960 b 635 972 617 965 622 972 l 815 972 b 838 932 838 972 849 950 l 526 469 l 526 26 b 500 0 526 13 514 0 l 335 0 b 308 26 319 0 308 13 m 321 1058 b 283 1071 303 1047 290 1057 l 254 1129 b 263 1156 249 1140 256 1150 l 499 1300 b 535 1296 507 1306 528 1308 l 582 1214 b 574 1172 593 1193 585 1179 l 321 1058 "},"Ŷ":{"ha":836,"x_min":0,"x_max":0,"o":"m 308 468 l 1 932 b 24 972 -10 950 1 972 l 204 972 b 226 960 215 972 222 965 l 419 675 l 613 960 b 635 972 617 965 622 972 l 815 972 b 838 932 838 972 849 950 l 526 469 l 526 26 b 500 0 526 13 514 0 l 335 0 b 308 26 319 0 308 13 m 282 1058 b 251 1064 267 1050 260 1053 l 206 1129 b 214 1156 199 1139 207 1150 l 401 1300 b 435 1300 413 1308 426 1306 l 626 1156 b 635 1129 633 1150 640 1140 l 588 1065 b 558 1058 581 1056 568 1053 l 421 1139 l 282 1058 "},"Ÿ":{"ha":836,"x_min":0,"x_max":0,"o":"m 308 468 l 1 932 b 24 972 -10 950 1 972 l 204 972 b 226 960 215 972 222 965 l 419 675 l 613 960 b 635 972 617 965 622 972 l 815 972 b 838 932 838 972 849 950 l 526 469 l 526 26 b 500 0 526 13 514 0 l 335 0 b 308 26 319 0 308 13 m 603 1060 b 499 1165 544 1060 499 1107 b 603 1269 499 1224 544 1269 b 708 1165 661 1269 708 1224 b 603 1060 708 1107 661 1060 m 235 1060 b 131 1165 176 1060 131 1107 b 235 1269 131 1224 176 1269 b 340 1165 293 1269 340 1224 b 235 1060 340 1107 293 1060 "},"Ỳ":{"ha":836,"x_min":0,"x_max":0,"o":"m 308 468 l 1 932 b 24 972 -10 950 1 972 l 204 972 b 226 960 215 972 222 965 l 419 675 l 613 960 b 635 972 617 965 622 972 l 815 972 b 838 932 838 972 849 950 l 526 469 l 526 26 b 500 0 526 13 514 0 l 335 0 b 308 26 319 0 308 13 m 265 1172 b 257 1214 254 1179 246 1193 l 304 1296 b 340 1300 311 1308 332 1306 l 576 1156 b 585 1129 583 1150 590 1140 l 556 1071 b 518 1058 549 1057 536 1047 "},"Ź":{"ha":753,"x_min":0,"x_max":0,"o":"m 32 36 b 40 69 32 49 33 57 l 401 765 l 401 768 l 99 768 b 72 794 85 768 72 781 l 72 946 b 99 972 72 960 85 972 l 689 972 b 715 949 703 972 715 963 l 715 938 b 707 911 715 929 714 925 l 358 207 l 358 204 l 661 204 b 688 178 676 204 688 192 l 688 26 b 661 0 688 13 676 0 l 58 0 b 32 26 44 0 32 13 m 289 1058 b 251 1071 271 1047 258 1057 l 222 1129 b 231 1156 217 1140 224 1150 l 467 1300 b 503 1296 475 1306 496 1308 l 550 1214 b 542 1172 561 1193 553 1179 l 289 1058 "},"Ž":{"ha":753,"x_min":0,"x_max":0,"o":"m 32 36 b 40 69 32 49 33 57 l 401 765 l 401 768 l 99 768 b 72 794 85 768 72 781 l 72 946 b 99 972 72 960 85 972 l 689 972 b 715 949 703 972 715 963 l 715 938 b 707 911 715 929 714 925 l 358 207 l 358 204 l 661 204 b 688 178 676 204 688 192 l 688 26 b 661 0 688 13 676 0 l 58 0 b 32 26 44 0 32 13 m 181 1203 b 172 1229 174 1208 167 1218 l 219 1293 b 249 1300 226 1303 239 1306 l 386 1219 l 525 1300 b 556 1294 540 1308 547 1306 l 601 1229 b 593 1203 608 1219 600 1208 l 406 1058 b 372 1058 394 1050 381 1053 "},"Ż":{"ha":753,"x_min":0,"x_max":0,"o":"m 32 36 b 40 69 32 49 33 57 l 401 765 l 401 768 l 99 768 b 72 794 85 768 72 781 l 72 946 b 99 972 72 960 85 972 l 689 972 b 715 949 703 972 715 963 l 715 938 b 707 911 715 929 714 925 l 358 207 l 358 204 l 661 204 b 688 178 676 204 688 192 l 688 26 b 661 0 688 13 676 0 l 58 0 b 32 26 44 0 32 13 m 388 1064 b 268 1183 321 1064 268 1118 b 388 1306 268 1250 321 1306 b 508 1183 454 1306 508 1250 b 388 1064 508 1118 454 1064 "},"à":{"ha":679,"x_min":0,"x_max":0,"o":"m 40 196 b 276 410 40 319 131 410 b 403 382 349 410 403 382 b 314 481 403 444 389 481 b 153 458 269 481 194 471 b 114 492 128 450 117 468 l 99 590 b 124 635 94 618 110 631 b 338 656 139 640 251 656 b 606 385 536 656 606 575 l 606 31 b 575 0 606 14 590 0 l 507 0 b 478 21 497 0 486 3 l 457 64 b 263 -15 418 31 364 -15 b 40 196 136 -15 40 68 m 247 211 b 318 140 247 172 279 140 b 390 211 357 140 390 172 b 318 282 390 249 357 282 b 247 211 279 282 247 249 m 208 825 b 200 867 197 832 189 846 l 247 949 b 283 953 254 961 275 958 l 519 808 b 528 782 526 803 533 793 l 499 724 b 461 711 492 710 479 700 "},"á":{"ha":679,"x_min":0,"x_max":0,"o":"m 40 196 b 276 410 40 319 131 410 b 403 382 349 410 403 382 b 314 481 403 444 389 481 b 153 458 269 481 194 471 b 114 492 128 450 117 468 l 99 590 b 124 635 94 618 110 631 b 338 656 139 640 251 656 b 606 385 536 656 606 575 l 606 31 b 575 0 606 14 590 0 l 507 0 b 478 21 497 0 486 3 l 457 64 b 263 -15 418 31 364 -15 b 40 196 136 -15 40 68 m 247 211 b 318 140 247 172 279 140 b 390 211 357 140 390 172 b 318 282 390 249 357 282 b 247 211 279 282 247 249 m 236 711 b 199 724 218 700 206 710 l 169 782 b 178 808 164 793 171 803 l 414 953 b 450 949 422 958 443 961 l 497 867 b 489 825 508 846 500 832 l 236 711 "},"â":{"ha":679,"x_min":0,"x_max":0,"o":"m 40 196 b 276 410 40 319 131 410 b 403 382 349 410 403 382 b 314 481 403 444 389 481 b 153 458 269 481 194 471 b 114 492 128 450 117 468 l 99 590 b 124 635 94 618 110 631 b 338 656 139 640 251 656 b 606 385 536 656 606 575 l 606 31 b 575 0 606 14 590 0 l 507 0 b 478 21 497 0 486 3 l 457 64 b 263 -15 418 31 364 -15 b 40 196 136 -15 40 68 m 247 211 b 318 140 247 172 279 140 b 390 211 357 140 390 172 b 318 282 390 249 357 282 b 247 211 279 282 247 249 m 213 711 b 182 717 197 703 190 706 l 136 782 b 144 808 129 792 138 803 l 332 953 b 365 953 343 961 357 958 l 557 808 b 565 782 564 803 571 793 l 518 718 b 489 711 511 708 499 706 l 351 792 l 213 711 "},"ã":{"ha":679,"x_min":0,"x_max":0,"o":"m 40 196 b 276 410 40 319 131 410 b 403 382 349 410 403 382 b 314 481 403 444 389 481 b 153 458 269 481 194 471 b 114 492 128 450 117 468 l 99 590 b 124 635 94 618 110 631 b 338 656 139 640 251 656 b 606 385 536 656 606 575 l 606 31 b 575 0 606 14 590 0 l 507 0 b 478 21 497 0 486 3 l 457 64 b 263 -15 418 31 364 -15 b 40 196 136 -15 40 68 m 247 211 b 318 140 247 172 279 140 b 390 211 357 140 390 172 b 318 282 390 249 357 282 b 247 211 279 282 247 249 m 119 810 b 111 842 110 817 107 832 b 260 958 125 867 185 958 b 410 893 326 958 356 893 b 463 936 432 893 453 921 b 497 939 469 947 483 951 l 544 903 b 546 863 556 894 557 879 b 407 754 532 839 481 754 b 254 821 335 754 301 821 b 199 772 229 821 211 786 b 168 771 190 764 181 763 "},"ä":{"ha":679,"x_min":0,"x_max":0,"o":"m 40 196 b 276 410 40 319 131 410 b 403 382 349 410 403 382 b 314 481 403 444 389 481 b 153 458 269 481 194 471 b 114 492 128 450 117 468 l 99 590 b 124 635 94 618 110 631 b 338 656 139 640 251 656 b 606 385 536 656 606 575 l 606 31 b 575 0 606 14 590 0 l 507 0 b 478 21 497 0 486 3 l 457 64 b 263 -15 418 31 364 -15 b 40 196 136 -15 40 68 m 247 211 b 318 140 247 172 279 140 b 390 211 357 140 390 172 b 318 282 390 249 357 282 b 247 211 279 282 247 249 m 490 736 b 386 842 432 736 386 783 b 490 946 386 900 432 946 b 596 842 549 946 596 900 b 490 736 596 783 549 736 m 206 736 b 101 842 147 736 101 783 b 206 946 101 900 147 946 b 311 842 264 946 311 900 b 206 736 311 783 264 736 "},"ā":{"ha":679,"x_min":0,"x_max":0,"o":"m 40 196 b 276 410 40 319 131 410 b 403 382 349 410 403 382 b 314 481 403 444 389 481 b 153 458 269 481 194 471 b 114 492 128 450 117 468 l 99 590 b 124 635 94 618 110 631 b 338 656 139 640 251 656 b 606 385 536 656 606 575 l 606 31 b 575 0 606 14 590 0 l 507 0 b 478 21 497 0 486 3 l 457 64 b 263 -15 418 31 364 -15 b 40 196 136 -15 40 68 m 247 211 b 318 140 247 172 279 140 b 390 211 357 140 390 172 b 318 282 390 249 357 282 b 247 211 279 282 247 249 m 168 782 b 142 807 153 782 142 793 l 142 864 b 168 890 142 879 153 890 l 524 890 b 550 864 539 890 550 879 l 550 807 b 524 782 550 793 539 782 l 168 782 "},"ă":{"ha":679,"x_min":0,"x_max":0,"o":"m 40 196 b 276 410 40 319 131 410 b 403 382 349 410 403 382 b 314 481 403 444 389 481 b 153 458 269 481 194 471 b 114 492 128 450 117 468 l 99 590 b 124 635 94 618 110 631 b 338 656 139 640 251 656 b 606 385 536 656 606 575 l 606 31 b 575 0 606 14 590 0 l 507 0 b 478 21 497 0 486 3 l 457 64 b 263 -15 418 31 364 -15 b 40 196 136 -15 40 68 m 247 211 b 318 140 247 172 279 140 b 390 211 357 140 390 172 b 318 282 390 249 357 282 b 247 211 279 282 247 249 m 350 732 b 153 899 247 732 167 804 b 179 929 150 915 161 929 l 242 929 b 265 913 253 929 263 921 b 350 846 278 875 310 846 b 432 913 386 846 419 879 b 456 929 435 922 446 929 l 521 929 b 547 899 538 929 549 915 b 350 732 532 804 451 732 "},"å":{"ha":679,"x_min":0,"x_max":0,"o":"m 40 196 b 276 410 40 319 131 410 b 403 382 349 410 403 382 b 314 481 403 444 389 481 b 153 458 269 481 194 471 b 114 492 128 450 117 468 l 99 590 b 124 635 94 618 110 631 b 338 656 139 640 251 656 b 606 385 536 656 606 575 l 606 31 b 575 0 606 14 590 0 l 507 0 b 478 21 497 0 486 3 l 457 64 b 263 -15 418 31 364 -15 b 40 196 136 -15 40 68 m 247 211 b 318 140 247 172 279 140 b 390 211 357 140 390 172 b 318 282 390 249 357 282 b 247 211 279 282 247 249 m 349 708 b 189 868 260 708 189 779 b 349 1028 189 957 260 1028 b 508 868 436 1028 508 957 b 349 708 508 779 436 708 m 349 807 b 408 868 381 807 408 836 b 349 928 408 900 381 928 b 288 868 317 928 288 900 b 349 807 288 836 317 807 "},"ǻ":{"ha":679,"x_min":0,"x_max":0,"o":"m 347 707 b 188 853 258 707 188 764 b 347 999 188 942 258 999 b 507 853 435 999 507 942 b 347 707 507 764 435 707 m 347 806 b 407 853 379 806 407 821 b 347 899 407 885 379 899 b 286 853 315 899 286 885 b 347 806 286 821 315 806 m 249 1001 b 211 1014 231 990 218 1000 l 182 1072 b 190 1099 176 1083 183 1093 l 426 1215 b 464 1211 435 1221 457 1224 l 510 1129 b 501 1088 521 1108 513 1094 l 249 1001 m 40 196 b 276 410 40 319 131 410 b 403 382 349 410 403 382 b 314 481 403 444 389 481 b 153 458 269 481 194 471 b 114 492 128 450 117 468 l 99 590 b 124 635 94 618 110 631 b 338 656 139 640 251 656 b 606 385 536 656 606 575 l 606 31 b 575 0 606 14 590 0 l 507 0 b 478 21 497 0 486 3 l 457 64 b 263 -15 418 31 364 -15 b 40 196 136 -15 40 68 m 247 211 b 318 140 247 172 279 140 b 390 211 357 140 390 172 b 318 282 390 249 357 282 b 247 211 279 282 247 249 "},"ą":{"ha":679,"x_min":0,"x_max":0,"o":"m 40 196 b 276 410 40 319 131 410 b 403 382 349 410 403 382 b 314 481 403 444 389 481 b 153 458 269 481 194 471 b 114 492 128 450 117 468 l 99 590 b 124 635 94 618 110 631 b 338 656 139 640 251 656 b 606 385 536 656 606 575 l 606 38 b 582 0 606 17 592 7 b 457 -164 535 -32 457 -101 b 504 -215 457 -203 476 -215 b 588 -175 540 -215 576 -186 b 618 -186 600 -162 618 -169 l 618 -265 b 596 -312 618 -283 614 -300 b 468 -346 572 -328 524 -346 b 318 -197 368 -346 318 -279 b 479 17 318 -101 422 -18 l 457 64 b 263 -15 418 31 364 -15 b 40 196 136 -15 40 68 m 247 211 b 318 140 247 172 279 140 b 390 211 357 140 390 172 b 318 282 390 249 357 282 b 247 211 279 282 247 249 "},"æ":{"ha":1061,"x_min":0,"x_max":0,"o":"m 40 199 b 281 410 40 318 126 410 b 403 382 344 410 403 382 b 317 481 404 454 382 481 b 154 460 272 481 194 471 b 117 486 135 454 121 460 l 99 601 b 125 633 97 617 111 631 b 339 656 125 633 253 656 b 542 601 436 656 500 638 b 725 656 593 636 657 656 b 1028 356 888 656 1028 532 b 996 286 1028 326 1029 286 l 599 286 b 731 176 600 238 647 176 b 856 217 792 176 829 199 b 894 217 865 226 886 229 l 964 122 b 965 79 976 111 978 90 b 729 -15 907 19 829 -15 b 488 90 635 -15 546 24 b 264 -15 468 65 389 -15 b 40 199 128 -15 40 71 m 811 408 b 718 488 808 451 772 488 b 622 408 665 488 631 451 m 247 211 b 318 140 247 172 279 140 b 390 211 357 140 390 172 b 318 282 390 249 357 282 b 247 211 279 282 247 249 "},"ǽ":{"ha":1061,"x_min":0,"x_max":0,"o":"m 40 199 b 281 410 40 318 126 410 b 403 382 344 410 403 382 b 317 481 404 454 382 481 b 154 460 272 481 194 471 b 117 486 135 454 121 460 l 99 601 b 125 633 97 617 111 631 b 339 656 125 633 253 656 b 542 601 436 656 500 638 b 725 656 593 636 657 656 b 1028 356 888 656 1028 532 b 996 286 1028 326 1029 286 l 599 286 b 731 176 600 238 647 176 b 856 217 792 176 829 199 b 894 217 865 226 886 229 l 964 122 b 965 79 976 111 978 90 b 729 -15 907 19 829 -15 b 488 90 635 -15 546 24 b 264 -15 468 65 389 -15 b 40 199 128 -15 40 71 m 811 408 b 718 488 808 451 772 488 b 622 408 665 488 631 451 m 247 211 b 318 140 247 172 279 140 b 390 211 357 140 390 172 b 318 282 390 249 357 282 b 247 211 279 282 247 249 m 483 711 b 446 724 465 700 453 710 l 417 782 b 425 808 411 793 418 803 l 661 953 b 697 949 669 958 690 961 l 744 867 b 736 825 756 846 747 832 l 483 711 "},"ć":{"ha":668,"x_min":0,"x_max":0,"o":"m 40 321 b 381 656 40 510 197 656 b 621 543 482 656 560 615 b 613 497 633 528 628 510 l 522 410 b 486 413 515 403 499 401 b 388 458 460 436 428 458 b 251 321 314 458 251 393 b 385 183 251 243 311 183 b 500 236 444 183 472 208 b 536 242 511 250 528 253 l 626 164 b 638 118 640 150 649 135 b 379 -15 578 29 494 -15 b 40 321 196 -15 40 128 m 292 711 b 254 724 274 700 261 710 l 225 782 b 233 808 219 793 226 803 l 469 953 b 506 949 478 958 499 961 l 553 867 b 544 825 564 846 556 832 l 292 711 "},"ĉ":{"ha":668,"x_min":0,"x_max":0,"o":"m 40 321 b 381 656 40 510 197 656 b 621 543 482 656 560 615 b 613 497 633 528 628 510 l 522 410 b 486 413 515 403 499 401 b 388 458 460 436 428 458 b 251 321 314 458 251 393 b 385 183 251 243 311 183 b 500 236 444 183 472 208 b 536 242 511 250 528 253 l 626 164 b 638 118 640 150 649 135 b 379 -15 578 29 494 -15 b 40 321 196 -15 40 128 m 251 711 b 221 717 236 703 229 706 l 175 782 b 183 808 168 792 176 803 l 371 953 b 404 953 382 961 396 958 l 596 808 b 604 782 603 803 610 793 l 557 718 b 528 711 550 708 538 706 l 390 792 l 251 711 "},"č":{"ha":668,"x_min":0,"x_max":0,"o":"m 40 321 b 381 656 40 510 197 656 b 621 543 482 656 560 615 b 613 497 633 528 628 510 l 522 410 b 486 413 515 403 499 401 b 388 458 460 436 428 458 b 251 321 314 458 251 393 b 385 183 251 243 311 183 b 500 236 444 183 472 208 b 536 242 511 250 528 253 l 626 164 b 638 118 640 150 649 135 b 379 -15 578 29 494 -15 b 40 321 196 -15 40 128 m 176 856 b 168 882 169 861 163 871 l 215 946 b 244 953 222 956 235 958 l 382 872 l 521 953 b 551 947 536 961 543 958 l 597 882 b 589 856 604 872 596 861 l 401 711 b 368 711 390 703 376 706 "},"ċ":{"ha":668,"x_min":0,"x_max":0,"o":"m 40 321 b 381 656 40 510 197 656 b 621 543 482 656 560 615 b 613 497 633 528 628 510 l 522 410 b 486 413 515 403 499 401 b 388 458 460 436 428 458 b 251 321 314 458 251 393 b 385 183 251 243 311 183 b 500 236 444 183 472 208 b 536 242 511 250 528 253 l 626 164 b 638 118 640 150 649 135 b 379 -15 578 29 494 -15 b 40 321 196 -15 40 128 m 386 731 b 267 850 319 731 267 785 b 386 972 267 917 319 972 b 507 850 453 972 507 917 b 386 731 507 785 453 731 "},"ç":{"ha":668,"x_min":0,"x_max":0,"o":"m 40 321 b 381 656 40 510 197 656 b 621 543 482 656 560 615 b 613 497 633 528 628 510 l 522 410 b 486 413 515 403 499 401 b 388 458 460 436 428 458 b 251 321 314 458 251 393 b 385 183 251 243 311 183 b 500 236 444 183 472 208 b 536 242 511 250 528 253 l 626 164 b 638 118 640 150 649 135 b 403 -14 582 35 506 -8 l 363 -79 b 383 -78 371 -78 378 -78 b 508 -200 446 -78 508 -111 b 335 -346 508 -294 429 -346 b 218 -312 281 -346 242 -332 b 217 -269 206 -301 208 -287 l 231 -237 b 272 -224 240 -215 254 -211 b 328 -242 279 -229 303 -242 b 386 -196 363 -242 386 -228 b 328 -150 386 -164 363 -150 b 278 -162 304 -150 289 -158 b 250 -136 263 -168 243 -150 l 310 -8 b 40 321 158 22 40 153 "},"ď":{"ha":810,"x_min":0,"x_max":0,"o":"m 43 321 b 361 656 43 547 190 656 b 510 619 424 656 489 636 l 510 942 b 540 972 510 957 524 972 l 690 972 b 721 942 707 972 721 957 l 721 31 b 690 0 721 14 707 0 l 628 0 b 594 32 613 0 600 14 l 576 85 b 360 -15 576 85 501 -15 b 43 321 179 -15 43 138 m 256 322 b 392 183 256 243 315 183 b 528 322 471 183 528 243 b 392 458 528 400 471 458 b 256 322 315 458 256 400 m 738 875 b 857 986 738 946 788 986 b 990 842 928 986 990 947 b 918 635 990 744 953 682 b 886 633 908 625 897 625 l 844 664 b 842 696 832 672 832 686 b 875 786 861 719 875 757 b 875 796 875 789 875 792 b 829 783 875 796 856 783 b 738 875 772 783 738 822 "},"đ":{"ha":800,"x_min":0,"x_max":0,"o":"m 43 321 b 361 656 43 547 190 656 b 510 619 424 656 489 636 l 510 738 l 371 738 b 344 763 356 738 344 749 l 344 788 b 371 814 344 801 356 814 l 510 814 l 510 942 b 540 972 510 957 524 972 l 690 972 b 721 942 707 972 721 957 l 721 814 l 756 814 b 781 788 769 814 781 801 l 781 764 b 756 738 781 750 769 738 l 721 738 l 721 31 b 690 0 721 14 707 0 l 628 0 b 594 32 613 0 600 14 l 576 85 b 360 -15 576 85 501 -15 b 43 321 179 -15 43 138 m 256 322 b 392 183 256 243 315 183 b 528 322 471 183 528 243 b 392 458 528 400 471 458 b 256 322 315 458 256 400 "},"ð":{"ha":765,"x_min":0,"x_max":0,"o":"m 43 314 b 328 624 43 522 193 624 b 464 594 368 624 426 611 b 336 758 447 668 394 721 l 226 696 b 190 704 211 686 197 690 l 178 725 b 186 763 169 738 172 756 l 253 801 b 165 836 232 814 183 831 b 149 871 146 842 142 853 l 190 982 b 244 1000 197 1000 214 1010 b 428 901 269 992 347 957 l 529 961 b 565 950 542 968 558 963 l 578 929 b 569 893 585 917 582 900 l 494 850 b 715 375 611 750 715 597 b 371 -14 715 151 592 -14 b 43 314 192 -14 43 133 m 236 321 b 374 183 236 246 297 183 b 511 321 449 183 511 246 b 374 460 511 396 449 460 b 236 321 297 460 236 396 "},"è":{"ha":713,"x_min":0,"x_max":0,"o":"m 42 321 b 375 656 42 501 185 656 b 679 356 538 656 679 532 b 676 314 679 346 678 324 b 646 286 675 297 660 286 l 250 286 b 383 175 250 236 296 175 b 506 215 425 175 478 196 b 546 215 519 228 536 228 l 617 122 b 615 76 626 110 629 90 b 378 -15 560 19 479 -15 b 42 321 186 -15 42 122 m 463 408 b 369 488 460 451 424 488 b 274 408 317 488 282 451 m 229 825 b 221 867 218 832 210 846 l 268 949 b 304 953 275 961 296 958 l 540 808 b 549 782 547 803 554 793 l 519 724 b 482 711 513 710 500 700 "},"é":{"ha":713,"x_min":0,"x_max":0,"o":"m 42 321 b 375 656 42 501 185 656 b 679 356 538 656 679 532 b 676 314 679 346 678 324 b 646 286 675 297 660 286 l 250 286 b 383 175 250 236 296 175 b 506 215 425 175 478 196 b 546 215 519 228 536 228 l 617 122 b 615 76 626 110 629 90 b 378 -15 560 19 479 -15 b 42 321 186 -15 42 122 m 463 408 b 369 488 460 451 424 488 b 274 408 317 488 282 451 m 276 711 b 239 724 258 700 246 710 l 210 782 b 218 808 204 793 211 803 l 454 953 b 490 949 463 958 483 961 l 538 867 b 529 825 549 846 540 832 l 276 711 "},"ê":{"ha":713,"x_min":0,"x_max":0,"o":"m 42 321 b 375 656 42 501 185 656 b 679 356 538 656 679 532 b 676 314 679 346 678 324 b 646 286 675 297 660 286 l 250 286 b 383 175 250 236 296 175 b 506 215 425 175 478 196 b 546 215 519 228 536 228 l 617 122 b 615 76 626 110 629 90 b 378 -15 560 19 479 -15 b 42 321 186 -15 42 122 m 463 408 b 369 488 460 451 424 488 b 274 408 317 488 282 451 m 242 711 b 211 717 226 703 219 706 l 165 782 b 174 808 158 792 167 803 l 361 953 b 394 953 372 961 386 958 l 586 808 b 594 782 593 803 600 793 l 547 718 b 518 711 540 708 528 706 l 381 792 l 242 711 "},"ě":{"ha":713,"x_min":0,"x_max":0,"o":"m 42 321 b 375 656 42 501 185 656 b 679 356 538 656 679 532 b 676 314 679 346 678 324 b 646 286 675 297 660 286 l 250 286 b 383 175 250 236 296 175 b 506 215 425 175 478 196 b 546 215 519 228 536 228 l 617 122 b 615 76 626 110 629 90 b 378 -15 560 19 479 -15 b 42 321 186 -15 42 122 m 463 408 b 369 488 460 451 424 488 b 274 408 317 488 282 451 m 172 856 b 164 882 165 861 158 871 l 211 946 b 240 953 218 956 231 958 l 378 872 l 517 953 b 547 947 532 961 539 958 l 593 882 b 585 856 600 872 592 861 l 397 711 b 364 711 386 703 372 706 "},"ë":{"ha":713,"x_min":0,"x_max":0,"o":"m 42 321 b 375 656 42 501 185 656 b 679 356 538 656 679 532 b 676 314 679 346 678 324 b 646 286 675 297 660 286 l 250 286 b 383 175 250 236 296 175 b 506 215 425 175 478 196 b 546 215 519 228 536 228 l 617 122 b 615 76 626 110 629 90 b 378 -15 560 19 479 -15 b 42 321 186 -15 42 122 m 463 408 b 369 488 460 451 424 488 b 274 408 317 488 282 451 m 521 736 b 417 842 463 736 417 783 b 521 946 417 900 463 946 b 626 842 579 946 626 900 b 521 736 626 783 579 736 m 236 736 b 132 842 178 736 132 783 b 236 946 132 900 178 946 b 342 842 294 946 342 900 b 236 736 342 783 294 736 "},"ē":{"ha":713,"x_min":0,"x_max":0,"o":"m 42 321 b 375 656 42 501 185 656 b 679 356 538 656 679 532 b 676 314 679 346 678 324 b 646 286 675 297 660 286 l 250 286 b 383 175 250 236 296 175 b 506 215 425 175 478 196 b 546 215 519 228 536 228 l 617 122 b 615 76 626 110 629 90 b 378 -15 560 19 479 -15 b 42 321 186 -15 42 122 m 463 408 b 369 488 460 451 424 488 b 274 408 317 488 282 451 m 197 782 b 171 807 182 782 171 793 l 171 864 b 197 890 171 879 182 890 l 553 890 b 579 864 568 890 579 879 l 579 807 b 553 782 579 793 568 782 l 197 782 "},"ĕ":{"ha":713,"x_min":0,"x_max":0,"o":"m 42 321 b 375 656 42 501 185 656 b 679 356 538 656 679 532 b 676 314 679 346 678 324 b 646 286 675 297 660 286 l 250 286 b 383 175 250 236 296 175 b 506 215 425 175 478 196 b 546 215 519 228 536 228 l 617 122 b 615 76 626 110 629 90 b 378 -15 560 19 479 -15 b 42 321 186 -15 42 122 m 463 408 b 369 488 460 451 424 488 b 274 408 317 488 282 451 m 379 732 b 182 899 276 732 196 804 b 208 929 179 915 190 929 l 271 929 b 294 913 282 929 292 921 b 379 846 307 875 339 846 b 461 913 415 846 449 879 b 485 929 464 922 475 929 l 550 929 b 576 899 567 929 578 915 b 379 732 561 804 481 732 "},"ė":{"ha":713,"x_min":0,"x_max":0,"o":"m 42 321 b 375 656 42 501 185 656 b 679 356 538 656 679 532 b 676 314 679 346 678 324 b 646 286 675 297 660 286 l 250 286 b 383 175 250 236 296 175 b 506 215 425 175 478 196 b 546 215 519 228 536 228 l 617 122 b 615 76 626 110 629 90 b 378 -15 560 19 479 -15 b 42 321 186 -15 42 122 m 463 408 b 369 488 460 451 424 488 b 274 408 317 488 282 451 m 375 731 b 256 850 308 731 256 785 b 375 972 256 917 308 972 b 496 850 442 972 496 917 b 375 731 496 785 442 731 "},"ę":{"ha":713,"x_min":0,"x_max":0,"o":"m 42 321 b 375 656 42 501 185 656 b 679 356 538 656 679 532 b 676 314 679 346 678 324 b 646 286 675 297 660 286 l 250 286 b 383 175 250 236 296 175 b 506 215 425 175 478 196 b 546 215 519 228 536 228 l 617 122 b 615 76 626 110 629 90 b 483 0 581 40 536 14 b 361 -164 443 -31 361 -103 b 408 -215 361 -203 381 -215 b 492 -175 444 -215 481 -186 b 522 -186 504 -162 522 -169 l 522 -265 b 500 -312 522 -283 518 -300 b 372 -346 476 -328 428 -346 b 222 -197 272 -346 222 -279 b 329 -12 222 -111 282 -50 b 42 321 163 8 42 139 m 463 408 b 369 488 460 451 424 488 b 274 408 317 488 282 451 "},"ĝ":{"ha":799,"x_min":0,"x_max":0,"o":"m 264 711 b 233 717 249 703 242 706 l 188 782 b 196 808 181 792 189 803 l 383 953 b 417 953 394 961 408 958 l 608 808 b 617 782 615 803 622 793 l 569 718 b 540 711 563 708 550 706 l 403 792 l 264 711 m 721 21 b 378 -321 721 -211 571 -321 b 139 -251 282 -321 171 -278 b 132 -215 129 -243 126 -229 l 181 -99 b 218 -86 186 -86 204 -78 b 374 -137 249 -104 301 -137 b 510 -10 453 -137 510 -107 l 510 24 b 361 -15 489 7 421 -15 b 43 322 190 -15 43 96 b 360 656 43 506 179 656 b 576 557 501 656 576 557 l 594 610 b 628 642 600 626 613 642 l 690 642 b 721 611 707 642 721 626 m 256 321 b 392 183 256 243 315 183 b 528 321 471 183 528 243 b 392 458 528 397 471 458 b 256 321 315 458 256 397 "},"ğ":{"ha":799,"x_min":0,"x_max":0,"o":"m 400 732 b 203 899 297 732 217 804 b 229 929 200 915 211 929 l 292 929 b 315 913 303 929 313 921 b 400 846 328 875 360 846 b 482 913 436 846 469 879 b 506 929 485 922 496 929 l 571 929 b 597 899 588 929 599 915 b 400 732 582 804 501 732 m 721 21 b 378 -321 721 -211 571 -321 b 139 -251 282 -321 171 -278 b 132 -215 129 -243 126 -229 l 181 -99 b 218 -86 186 -86 204 -78 b 374 -137 249 -104 301 -137 b 510 -10 453 -137 510 -107 l 510 24 b 361 -15 489 7 421 -15 b 43 322 190 -15 43 96 b 360 656 43 506 179 656 b 576 557 501 656 576 557 l 594 610 b 628 642 600 626 613 642 l 690 642 b 721 611 707 642 721 626 m 256 321 b 392 183 256 243 315 183 b 528 321 471 183 528 243 b 392 458 528 397 471 458 b 256 321 315 458 256 397 "},"ġ":{"ha":799,"x_min":0,"x_max":0,"o":"m 721 21 b 378 -321 721 -211 571 -321 b 139 -251 282 -321 171 -278 b 132 -215 129 -243 126 -229 l 181 -99 b 218 -86 186 -86 204 -78 b 374 -137 249 -104 301 -137 b 510 -10 453 -137 510 -107 l 510 24 b 361 -15 489 7 421 -15 b 43 322 190 -15 43 96 b 360 656 43 506 179 656 b 576 557 501 656 576 557 l 594 610 b 628 642 600 626 613 642 l 690 642 b 721 611 707 642 721 626 m 256 321 b 392 183 256 243 315 183 b 528 321 471 183 528 243 b 392 458 528 397 471 458 b 256 321 315 458 256 397 m 374 731 b 254 850 307 731 254 785 b 374 972 254 917 307 972 b 494 850 440 972 494 917 b 374 731 494 785 440 731 "},"ģ":{"ha":799,"x_min":0,"x_max":0,"o":"m 721 21 b 378 -321 721 -211 571 -321 b 139 -251 282 -321 171 -278 b 132 -215 129 -243 126 -229 l 181 -99 b 218 -86 186 -86 204 -78 b 374 -137 249 -104 301 -137 b 510 -10 453 -137 510 -107 l 510 24 b 361 -15 489 7 421 -15 b 43 322 190 -15 43 96 b 360 656 43 506 179 656 b 576 557 501 656 576 557 l 594 610 b 628 642 600 626 613 642 l 690 642 b 721 611 707 642 721 626 m 256 321 b 392 183 256 243 315 183 b 528 321 471 183 528 243 b 392 458 528 397 471 458 b 256 321 315 458 256 397 m 529 822 b 410 711 529 751 479 711 b 276 856 339 711 276 750 b 349 1063 276 953 314 1015 b 381 1064 358 1072 368 1072 l 422 1033 b 425 1001 435 1025 435 1010 b 390 911 406 978 390 940 b 390 901 390 908 390 904 b 436 914 390 901 411 914 b 529 822 494 914 529 875 "},"ĥ":{"ha":763,"x_min":0,"x_max":0,"o":"m 79 942 b 110 972 79 957 93 972 l 260 972 b 290 942 276 972 290 957 l 290 610 b 426 656 335 640 379 656 b 692 331 628 656 692 508 l 692 31 b 661 0 692 14 676 0 l 511 0 b 481 31 493 0 481 14 l 481 333 b 385 458 481 406 454 458 b 290 333 333 458 290 431 l 290 31 b 256 0 290 10 283 0 l 110 0 b 79 31 93 0 79 14 m 35 1013 b 4 1018 19 1004 13 1007 l -42 1083 b -33 1110 -49 1093 -40 1104 l 154 1254 b 188 1254 165 1263 179 1260 l 379 1110 b 388 1083 386 1104 393 1094 l 340 1019 b 311 1013 333 1010 321 1007 l 174 1093 l 35 1013 "},"ħ":{"ha":789,"x_min":0,"x_max":0,"o":"m 79 738 l 46 738 b 21 764 32 738 21 750 l 21 788 b 46 814 21 801 32 814 l 79 814 l 79 942 b 110 972 79 957 93 972 l 260 972 b 290 942 276 972 290 957 l 290 814 l 431 814 b 457 788 446 814 457 801 l 457 763 b 431 738 457 749 446 738 l 290 738 l 290 610 b 440 656 335 640 393 656 b 719 331 642 656 719 508 l 719 31 b 689 0 719 14 704 0 l 539 0 b 508 31 521 0 508 14 l 508 333 b 399 458 508 406 468 458 b 290 333 347 458 290 431 l 290 31 b 256 0 290 10 283 0 l 110 0 b 79 31 93 0 79 14 "},"ı":{"ha":393,"x_min":0,"x_max":0,"o":"m 78 611 b 108 642 78 629 92 642 l 285 642 b 315 611 301 642 315 629 l 315 31 b 285 0 315 14 301 0 l 108 0 b 78 31 92 0 78 14 "},"ì":{"ha":393,"x_min":0,"x_max":0,"o":"m 78 611 b 108 642 78 629 92 642 l 285 642 b 315 611 301 642 315 629 l 315 31 b 285 0 315 14 301 0 l 108 0 b 78 31 92 0 78 14 m 49 825 b 40 867 38 832 29 846 l 88 949 b 124 953 94 961 115 958 l 360 808 b 368 782 367 803 374 793 l 339 724 b 301 711 332 710 319 700 "},"í":{"ha":393,"x_min":0,"x_max":0,"o":"m 78 611 b 108 642 78 629 92 642 l 285 642 b 315 611 301 642 315 629 l 315 31 b 285 0 315 14 301 0 l 108 0 b 78 31 92 0 78 14 m 79 711 b 42 724 61 700 49 710 l 13 782 b 21 808 7 793 14 803 l 257 953 b 293 949 265 958 286 961 l 340 867 b 332 825 351 846 343 832 l 79 711 "},"ĭ":{"ha":393,"x_min":0,"x_max":0,"o":"m 78 611 b 108 642 78 629 92 642 l 285 642 b 315 611 301 642 315 629 l 315 31 b 285 0 315 14 301 0 l 108 0 b 78 31 92 0 78 14 m 192 732 b -6 899 89 732 8 804 b 21 929 -8 915 3 929 l 83 929 b 107 913 94 929 104 921 b 192 846 119 875 151 846 b 274 913 228 846 261 879 b 297 929 276 922 288 929 l 363 929 b 389 899 379 929 390 915 b 192 732 374 804 293 732 "},"î":{"ha":393,"x_min":0,"x_max":0,"o":"m 78 611 b 108 642 78 629 92 642 l 285 642 b 315 611 301 642 315 629 l 315 31 b 285 0 315 14 301 0 l 108 0 b 78 31 92 0 78 14 m 57 711 b 26 717 42 703 35 706 l -19 782 b -11 808 -26 792 -18 803 l 176 953 b 210 953 188 961 201 958 l 401 808 b 410 782 408 803 415 793 l 363 718 b 333 711 356 708 343 706 l 196 792 l 57 711 "},"ĩ":{"ha":393,"x_min":0,"x_max":0,"o":"m 78 611 b 108 642 78 629 92 642 l 285 642 b 315 611 301 642 315 629 l 315 31 b 285 0 315 14 301 0 l 108 0 b 78 31 92 0 78 14 m -17 810 b -25 842 -26 817 -29 832 b 124 958 -11 867 49 958 b 274 893 190 958 219 893 b 326 936 296 893 317 921 b 361 939 333 947 347 951 l 408 903 b 410 863 419 894 421 879 b 271 754 396 839 344 754 b 118 821 199 754 165 821 b 63 772 93 821 75 786 b 32 771 54 764 44 763 "},"ï":{"ha":393,"x_min":0,"x_max":0,"o":"m 78 611 b 108 642 78 629 92 642 l 285 642 b 315 611 301 642 315 629 l 315 31 b 285 0 315 14 301 0 l 108 0 b 78 31 92 0 78 14 m 343 736 b 239 842 285 736 239 783 b 343 946 239 900 285 946 b 449 842 401 946 449 900 b 343 736 449 783 401 736 m 58 736 b -46 842 0 736 -46 783 b 58 946 -46 900 0 946 b 164 842 117 946 164 900 b 58 736 164 783 117 736 "},"ī":{"ha":393,"x_min":0,"x_max":0,"o":"m 78 611 b 108 642 78 629 92 642 l 285 642 b 315 611 301 642 315 629 l 315 31 b 285 0 315 14 301 0 l 108 0 b 78 31 92 0 78 14 m 17 782 b -10 807 1 782 -10 793 l -10 864 b 17 890 -10 879 1 890 l 372 890 b 399 864 388 890 399 879 l 399 807 b 372 782 399 793 388 782 l 17 782 "},"į":{"ha":367,"x_min":0,"x_max":0,"o":"m 78 611 b 108 642 78 629 92 642 l 258 642 b 289 611 275 642 289 629 l 289 47 b 260 0 289 26 272 8 b 136 -164 219 -29 136 -101 b 183 -215 136 -203 156 -215 b 267 -175 219 -215 256 -186 b 297 -186 279 -162 297 -169 l 297 -265 b 275 -312 297 -283 293 -300 b 147 -346 251 -328 203 -346 b -3 -197 47 -346 -3 -279 b 121 0 -3 -100 72 -36 l 108 0 b 78 31 92 0 78 14 m 182 731 b 63 850 115 731 63 785 b 182 972 63 917 115 972 b 303 850 249 972 303 917 b 182 731 303 785 249 731 "},"ȷ":{"ha":369,"x_min":0,"x_max":0,"o":"m 290 -6 b 54 -340 290 -203 178 -308 b -14 -317 15 -350 -3 -343 l -54 -215 b -32 -168 -65 -186 -46 -174 b 79 -22 25 -146 79 -107 l 79 611 b 110 642 79 629 93 642 l 260 642 b 290 611 276 642 290 629 "},"ĵ":{"ha":369,"x_min":0,"x_max":0,"o":"m 290 -6 b 54 -340 290 -203 178 -308 b -14 -317 15 -350 -3 -343 l -54 -215 b -32 -168 -65 -186 -46 -174 b 79 -22 25 -146 79 -107 l 79 611 b 110 642 79 629 93 642 l 260 642 b 290 611 276 642 290 629 m 42 711 b 11 717 26 703 19 706 l -35 782 b -26 808 -42 792 -33 803 l 161 953 b 194 953 172 961 186 958 l 386 808 b 394 782 393 803 400 793 l 347 718 b 318 711 340 708 328 706 l 181 792 l 42 711 "},"ķ":{"ha":746,"x_min":0,"x_max":0,"o":"m 79 942 b 110 972 79 957 93 972 l 260 972 b 290 942 276 972 290 957 l 290 399 l 471 622 b 511 642 481 632 493 642 l 682 642 b 707 592 710 642 725 613 l 493 344 l 719 49 b 696 0 736 28 724 0 l 504 0 b 482 13 499 0 488 6 l 290 292 l 290 31 b 260 0 290 14 276 0 l 110 0 b 79 31 93 0 79 14 m 258 -200 b 378 -89 258 -129 308 -89 b 511 -233 449 -89 511 -128 b 439 -440 511 -331 474 -393 b 407 -442 429 -450 418 -450 l 365 -411 b 363 -379 353 -403 353 -389 b 396 -289 382 -356 396 -318 b 396 -279 396 -286 396 -283 b 350 -292 396 -279 376 -292 b 258 -200 293 -292 258 -253 "},"ĸ":{"ha":764,"x_min":0,"x_max":0,"o":"m 78 610 b 108 640 78 625 92 640 l 258 640 b 289 610 275 640 289 625 l 289 367 l 483 622 b 524 642 493 632 506 642 l 694 642 b 719 592 722 642 739 613 l 492 315 l 746 49 b 722 0 763 28 750 0 l 531 0 b 508 13 525 0 514 6 l 289 260 l 289 31 b 258 0 289 14 275 0 l 108 0 b 78 31 92 0 78 14 "},"ĺ":{"ha":369,"x_min":0,"x_max":0,"o":"m 79 942 b 110 972 79 957 93 972 l 260 972 b 290 942 276 972 290 957 l 290 31 b 260 0 290 14 276 0 l 110 0 b 79 31 93 0 79 14 m 86 1013 b 49 1025 68 1001 56 1011 l 19 1083 b 28 1110 14 1094 21 1104 l 264 1254 b 300 1250 272 1260 293 1263 l 347 1168 b 339 1126 358 1147 350 1133 l 86 1013 "},"ľ":{"ha":379,"x_min":0,"x_max":0,"o":"m 79 942 b 110 972 79 957 93 972 l 260 972 b 290 942 276 972 290 957 l 290 31 b 260 0 290 14 276 0 l 110 0 b 79 31 93 0 79 14 m 324 875 b 443 986 324 946 374 986 b 576 842 514 986 576 947 b 504 635 576 744 539 682 b 472 633 494 625 483 625 l 431 664 b 428 696 418 672 418 686 b 461 786 447 719 461 757 b 461 796 461 789 461 792 b 415 783 461 796 442 783 b 324 875 358 783 324 822 "},"ļ":{"ha":369,"x_min":0,"x_max":0,"o":"m 79 942 b 110 972 79 957 93 972 l 260 972 b 290 942 276 972 290 957 l 290 31 b 260 0 290 14 276 0 l 110 0 b 79 31 93 0 79 14 m 58 -200 b 178 -89 58 -129 108 -89 b 311 -233 249 -89 311 -128 b 239 -440 311 -331 274 -393 b 207 -442 229 -450 218 -450 l 165 -411 b 163 -379 153 -403 153 -389 b 196 -289 182 -356 196 -318 b 196 -279 196 -286 196 -283 b 150 -292 196 -279 176 -292 b 58 -200 93 -292 58 -253 "},"ł":{"ha":410,"x_min":0,"x_max":0,"o":"m 96 422 l 88 418 l 63 404 b 26 414 50 397 33 401 l 15 435 b 24 469 8 446 11 463 l 88 507 l 96 511 l 96 942 b 126 972 96 957 110 972 l 276 972 b 307 942 293 972 307 957 l 307 635 l 314 639 l 374 675 b 410 665 388 682 403 678 l 422 643 b 413 608 429 632 425 617 l 314 550 l 307 546 l 307 31 b 276 0 307 14 293 0 l 126 0 b 96 31 110 0 96 14 "},"ŀ":{"ha":632,"x_min":0,"x_max":0,"o":"m 79 942 b 110 972 79 957 93 972 l 260 972 b 290 942 276 972 290 957 l 290 31 b 260 0 290 14 276 0 l 110 0 b 79 31 93 0 79 14 m 494 351 b 375 471 428 351 375 406 b 494 593 375 538 428 593 b 615 471 561 593 615 538 b 494 351 615 406 561 351 "},"ń":{"ha":763,"x_min":0,"x_max":0,"o":"m 78 611 b 108 642 78 629 92 642 l 171 642 b 200 622 181 642 193 635 l 224 558 b 424 656 258 597 307 656 b 692 338 624 656 692 514 l 692 31 b 663 0 692 14 678 0 l 511 0 b 481 31 493 0 481 14 l 481 340 b 388 458 481 401 460 458 b 290 349 324 458 290 414 l 290 31 b 261 0 290 17 283 0 l 108 0 b 78 31 92 0 78 14 m 307 711 b 269 724 289 700 276 710 l 240 782 b 249 808 235 793 242 803 l 485 953 b 521 949 493 958 514 961 l 568 867 b 560 825 579 846 571 832 l 307 711 "},"ň":{"ha":763,"x_min":0,"x_max":0,"o":"m 78 611 b 108 642 78 629 92 642 l 171 642 b 200 622 181 642 193 635 l 224 558 b 424 656 258 597 307 656 b 692 338 624 656 692 514 l 692 31 b 663 0 692 14 678 0 l 511 0 b 481 31 493 0 481 14 l 481 340 b 388 458 481 401 460 458 b 290 349 324 458 290 414 l 290 31 b 261 0 290 17 283 0 l 108 0 b 78 31 92 0 78 14 m 197 856 b 189 882 190 861 183 871 l 236 946 b 265 953 243 956 256 958 l 403 872 l 542 953 b 572 947 557 961 564 958 l 618 882 b 610 856 625 872 617 861 l 422 711 b 389 711 411 703 397 706 "},"ñ":{"ha":763,"x_min":0,"x_max":0,"o":"m 78 611 b 108 642 78 629 92 642 l 171 642 b 200 622 181 642 193 635 l 224 558 b 424 656 258 597 307 656 b 692 338 624 656 692 514 l 692 31 b 663 0 692 14 678 0 l 511 0 b 481 31 493 0 481 14 l 481 340 b 388 458 481 401 460 458 b 290 349 324 458 290 414 l 290 31 b 261 0 290 17 283 0 l 108 0 b 78 31 92 0 78 14 m 185 810 b 176 842 175 817 172 832 b 325 958 190 867 250 958 b 475 893 392 958 421 893 b 528 936 497 893 518 921 b 563 939 535 947 549 951 l 610 903 b 611 863 621 894 622 879 b 472 754 597 839 546 754 b 319 821 400 754 367 821 b 264 772 294 821 276 786 b 233 771 256 764 246 763 "},"ņ":{"ha":763,"x_min":0,"x_max":0,"o":"m 78 611 b 108 642 78 629 92 642 l 171 642 b 200 622 181 642 193 635 l 224 558 b 424 656 258 597 307 656 b 692 338 624 656 692 514 l 692 31 b 663 0 692 14 678 0 l 511 0 b 481 31 493 0 481 14 l 481 340 b 388 458 481 401 460 458 b 290 349 324 458 290 414 l 290 31 b 261 0 290 17 283 0 l 108 0 b 78 31 92 0 78 14 m 264 -200 b 383 -89 264 -129 314 -89 b 517 -233 454 -89 517 -128 b 444 -440 517 -331 479 -393 b 413 -442 435 -450 424 -450 l 371 -411 b 368 -379 358 -403 358 -389 b 401 -289 388 -356 401 -318 b 401 -279 401 -286 401 -283 b 356 -292 401 -279 382 -292 b 264 -200 299 -292 264 -253 "},"ŉ":{"ha":797,"x_min":0,"x_max":0,"o":"m -132 875 b -12 986 -132 946 -82 986 b 121 842 58 986 121 947 b 49 635 121 744 83 682 b 17 633 39 625 28 625 l -25 664 b -28 696 -37 672 -37 686 b 6 786 -8 719 6 757 b 6 796 6 789 6 792 b -40 783 6 796 -14 783 b -132 875 -97 783 -132 822 m 113 611 b 143 642 113 629 126 642 l 206 642 b 235 622 215 642 228 635 l 258 558 b 458 656 293 597 342 656 b 726 338 658 656 726 514 l 726 31 b 697 0 726 14 713 0 l 546 0 b 515 31 528 0 515 14 l 515 340 b 422 458 515 401 494 458 b 325 349 358 458 325 414 l 325 31 b 296 0 325 17 318 0 l 143 0 b 113 31 126 0 113 14 "},"ò":{"ha":749,"x_min":0,"x_max":0,"o":"m 40 322 b 375 656 40 503 192 656 b 708 322 558 656 708 503 b 375 -15 708 139 558 -15 b 40 322 192 -15 40 139 m 240 322 b 375 183 240 247 300 183 b 508 322 449 183 508 247 b 375 458 508 396 449 458 b 240 322 300 458 240 396 m 226 825 b 218 867 215 832 207 846 l 265 949 b 301 953 272 961 293 958 l 538 808 b 546 782 544 803 551 793 l 517 724 b 479 711 510 710 497 700 "},"ó":{"ha":749,"x_min":0,"x_max":0,"o":"m 40 322 b 375 656 40 503 192 656 b 708 322 558 656 708 503 b 375 -15 708 139 558 -15 b 40 322 192 -15 40 139 m 240 322 b 375 183 240 247 300 183 b 508 322 449 183 508 247 b 375 458 508 396 449 458 b 240 322 300 458 240 396 m 279 711 b 242 724 261 700 249 710 l 213 782 b 221 808 207 793 214 803 l 457 953 b 493 949 465 958 486 961 l 540 867 b 532 825 551 846 543 832 l 279 711 "},"ô":{"ha":749,"x_min":0,"x_max":0,"o":"m 40 322 b 375 656 40 503 192 656 b 708 322 558 656 708 503 b 375 -15 708 139 558 -15 b 40 322 192 -15 40 139 m 240 322 b 375 183 240 247 300 183 b 508 322 449 183 508 247 b 375 458 508 396 449 458 b 240 322 300 458 240 396 m 239 711 b 208 717 224 703 217 706 l 163 782 b 171 808 156 792 164 803 l 358 953 b 392 953 369 961 383 958 l 583 808 b 592 782 590 803 597 793 l 544 718 b 515 711 538 708 525 706 l 378 792 l 239 711 "},"õ":{"ha":749,"x_min":0,"x_max":0,"o":"m 40 322 b 375 656 40 503 192 656 b 708 322 558 656 708 503 b 375 -15 708 139 558 -15 b 40 322 192 -15 40 139 m 240 322 b 375 183 240 247 300 183 b 508 322 449 183 508 247 b 375 458 508 396 449 458 b 240 322 300 458 240 396 m 165 810 b 157 842 156 817 153 832 b 306 958 171 867 231 958 b 456 893 372 958 401 893 b 508 936 478 893 499 921 b 543 939 515 947 529 951 l 590 903 b 592 863 601 894 603 879 b 453 754 578 839 526 754 b 300 821 381 754 347 821 b 244 772 275 821 257 786 b 214 771 236 764 226 763 "},"ö":{"ha":749,"x_min":0,"x_max":0,"o":"m 40 322 b 375 656 40 503 192 656 b 708 322 558 656 708 503 b 375 -15 708 139 558 -15 b 40 322 192 -15 40 139 m 240 322 b 375 183 240 247 300 183 b 508 322 449 183 508 247 b 375 458 508 396 449 458 b 240 322 300 458 240 396 m 517 736 b 413 842 458 736 413 783 b 517 946 413 900 458 946 b 622 842 575 946 622 900 b 517 736 622 783 575 736 m 232 736 b 128 842 174 736 128 783 b 232 946 128 900 174 946 b 338 842 290 946 338 900 b 232 736 338 783 290 736 "},"ō":{"ha":749,"x_min":0,"x_max":0,"o":"m 40 322 b 375 656 40 503 192 656 b 708 322 558 656 708 503 b 375 -15 708 139 558 -15 b 40 322 192 -15 40 139 m 240 322 b 375 183 240 247 300 183 b 508 322 449 183 508 247 b 375 458 508 396 449 458 b 240 322 300 458 240 396 m 197 782 b 171 807 182 782 171 793 l 171 864 b 197 890 171 879 182 890 l 553 890 b 579 864 568 890 579 879 l 579 807 b 553 782 579 793 568 782 l 197 782 "},"ŏ":{"ha":749,"x_min":0,"x_max":0,"o":"m 40 322 b 375 656 40 503 192 656 b 708 322 558 656 708 503 b 375 -15 708 139 558 -15 b 40 322 192 -15 40 139 m 240 322 b 375 183 240 247 300 183 b 508 322 449 183 508 247 b 375 458 508 396 449 458 b 240 322 300 458 240 396 m 378 732 b 181 899 275 732 194 804 b 207 929 178 915 189 929 l 269 929 b 293 913 281 929 290 921 b 378 846 306 875 338 846 b 460 913 414 846 447 879 b 483 929 463 922 474 929 l 549 929 b 575 899 565 929 576 915 b 378 732 560 804 479 732 "},"ő":{"ha":749,"x_min":0,"x_max":0,"o":"m 40 322 b 375 656 40 503 192 656 b 708 322 558 656 708 503 b 375 -15 708 139 558 -15 b 40 322 192 -15 40 139 m 240 322 b 375 183 240 247 300 183 b 508 322 449 183 508 247 b 375 458 508 396 449 458 b 240 322 300 458 240 396 m 444 724 b 418 750 431 724 414 736 l 460 946 b 486 972 464 960 472 972 l 617 972 b 642 938 643 972 653 954 l 533 744 b 508 724 526 735 518 724 l 444 724 m 214 724 b 188 750 200 724 183 736 l 229 946 b 256 972 233 960 242 972 l 386 972 b 411 938 413 972 421 956 l 303 744 b 278 724 297 733 288 724 l 214 724 "},"ø":{"ha":750,"x_min":0,"x_max":0,"o":"m 42 322 b 376 656 42 503 193 656 b 579 585 453 656 524 629 l 626 632 b 668 632 638 644 657 643 l 688 613 b 688 572 700 603 700 583 l 640 524 b 710 322 683 468 710 397 b 376 -15 710 139 560 -15 b 176 53 301 -15 232 10 l 136 13 b 96 14 125 1 106 3 l 75 33 b 74 76 65 46 64 64 l 113 115 b 42 322 68 174 42 244 m 242 322 b 256 260 242 300 247 278 l 438 442 b 376 458 419 453 399 458 b 242 322 301 458 242 396 m 510 322 b 497 379 510 342 506 361 l 318 196 b 376 183 335 188 356 183 b 510 322 450 183 510 247 "},"ǿ":{"ha":750,"x_min":0,"x_max":0,"o":"m 42 322 b 376 656 42 503 193 656 b 579 585 453 656 524 629 l 626 632 b 668 632 638 644 657 643 l 688 613 b 688 572 700 603 700 583 l 640 524 b 710 322 683 468 710 397 b 376 -15 710 139 560 -15 b 176 53 301 -15 232 10 l 136 13 b 96 14 125 1 106 3 l 75 33 b 74 76 65 46 64 64 l 113 115 b 42 322 68 174 42 244 m 242 322 b 256 260 242 300 247 278 l 438 442 b 376 458 419 453 399 458 b 242 322 301 458 242 396 m 510 322 b 497 379 510 342 506 361 l 318 196 b 376 183 335 188 356 183 b 510 322 450 183 510 247 m 276 711 b 239 724 258 700 246 710 l 210 782 b 218 808 204 793 211 803 l 454 953 b 490 949 463 958 483 961 l 538 867 b 529 825 549 846 540 832 l 276 711 "},"œ":{"ha":1146,"x_min":0,"x_max":0,"o":"m 40 324 b 375 656 40 504 192 656 b 590 574 457 656 532 622 b 808 656 647 624 722 656 b 1113 356 971 656 1113 532 b 1110 314 1113 346 1111 324 b 1079 286 1108 297 1093 286 l 683 286 b 811 175 682 242 728 175 b 939 215 867 175 914 199 b 978 217 950 224 968 229 l 1050 122 b 1051 79 1061 111 1063 90 b 811 -15 993 19 913 -15 b 590 67 725 -15 649 17 b 375 -15 532 17 457 -15 b 40 324 192 -15 40 140 m 242 322 b 376 183 242 247 301 183 b 510 322 450 183 510 247 b 376 458 510 396 450 458 b 242 322 301 458 242 396 m 896 408 b 803 488 893 451 857 488 b 707 408 750 488 715 451 "},"ŕ":{"ha":531,"x_min":0,"x_max":0,"o":"m 78 611 b 108 642 78 629 92 642 l 175 642 b 204 622 192 642 200 633 l 233 551 b 393 656 261 603 310 656 b 518 622 451 656 494 640 b 522 588 529 614 529 600 l 458 461 b 422 446 451 449 440 439 b 374 456 411 450 388 456 b 289 367 325 456 289 421 l 289 31 b 254 0 289 11 278 0 l 108 0 b 78 31 92 0 78 14 m 174 711 b 136 724 156 700 143 710 l 107 782 b 115 808 101 793 108 803 l 351 953 b 388 949 360 958 381 961 l 435 867 b 426 825 446 846 438 832 l 174 711 "},"ř":{"ha":531,"x_min":0,"x_max":0,"o":"m 78 611 b 108 642 78 629 92 642 l 175 642 b 204 622 192 642 200 633 l 233 551 b 393 656 261 603 310 656 b 518 622 451 656 494 640 b 522 588 529 614 529 600 l 458 461 b 422 446 451 449 440 439 b 374 456 411 450 388 456 b 289 367 325 456 289 421 l 289 31 b 254 0 289 11 278 0 l 108 0 b 78 31 92 0 78 14 m 68 856 b 60 882 61 861 54 871 l 107 946 b 136 953 114 956 126 958 l 274 872 l 413 953 b 443 947 428 961 435 958 l 489 882 b 481 856 496 872 488 861 l 293 711 b 260 711 282 703 268 706 "},"ŗ":{"ha":531,"x_min":0,"x_max":0,"o":"m 78 611 b 108 642 78 629 92 642 l 175 642 b 204 622 192 642 200 633 l 233 551 b 393 656 261 603 310 656 b 518 622 451 656 494 640 b 522 588 529 614 529 600 l 458 461 b 422 446 451 449 440 439 b 374 456 411 450 388 456 b 289 367 325 456 289 421 l 289 31 b 254 0 289 11 278 0 l 108 0 b 78 31 92 0 78 14 m 64 -200 b 183 -89 64 -129 114 -89 b 317 -233 254 -89 317 -128 b 244 -440 317 -331 279 -393 b 213 -442 235 -450 224 -450 l 171 -411 b 168 -379 158 -403 158 -389 b 201 -289 188 -356 201 -318 b 201 -279 201 -286 201 -283 b 156 -292 201 -279 182 -292 b 64 -200 99 -292 64 -253 "},"ś":{"ha":599,"x_min":0,"x_max":0,"o":"m 294 -15 b 65 38 190 -15 107 13 b 54 71 51 46 47 57 l 106 176 b 139 190 110 188 125 197 b 297 150 190 165 239 150 b 346 181 339 150 346 165 b 236 247 346 201 311 218 b 49 456 113 296 49 353 b 292 656 49 571 125 656 b 511 607 375 656 463 632 b 528 565 528 599 536 582 l 478 463 b 444 451 474 451 457 446 b 294 490 401 472 346 490 b 249 464 258 490 249 481 b 321 417 249 447 275 433 b 556 189 450 369 556 318 b 294 -15 556 78 465 -15 m 211 711 b 174 724 193 700 181 710 l 144 782 b 153 808 139 793 146 803 l 389 953 b 425 949 397 958 418 961 l 472 867 b 464 825 483 846 475 832 l 211 711 "},"ŝ":{"ha":599,"x_min":0,"x_max":0,"o":"m 294 -15 b 65 38 190 -15 107 13 b 54 71 51 46 47 57 l 106 176 b 139 190 110 188 125 197 b 297 150 190 165 239 150 b 346 181 339 150 346 165 b 236 247 346 201 311 218 b 49 456 113 296 49 353 b 292 656 49 571 125 656 b 511 607 375 656 463 632 b 528 565 528 599 536 582 l 478 463 b 444 451 474 451 457 446 b 294 490 401 472 346 490 b 249 464 258 490 249 481 b 321 417 249 447 275 433 b 556 189 450 369 556 318 b 294 -15 556 78 465 -15 m 164 711 b 133 717 149 703 142 706 l 88 782 b 96 808 81 792 89 803 l 283 953 b 317 953 294 961 308 958 l 508 808 b 517 782 515 803 522 793 l 469 718 b 440 711 463 708 450 706 l 303 792 l 164 711 "},"š":{"ha":599,"x_min":0,"x_max":0,"o":"m 294 -15 b 65 38 190 -15 107 13 b 54 71 51 46 47 57 l 106 176 b 139 190 110 188 125 197 b 297 150 190 165 239 150 b 346 181 339 150 346 165 b 236 247 346 201 311 218 b 49 456 113 296 49 353 b 292 656 49 571 125 656 b 511 607 375 656 463 632 b 528 565 528 599 536 582 l 478 463 b 444 451 474 451 457 446 b 294 490 401 472 346 490 b 249 464 258 490 249 481 b 321 417 249 447 275 433 b 556 189 450 369 556 318 b 294 -15 556 78 465 -15 m 94 856 b 86 882 88 861 81 871 l 133 946 b 163 953 140 956 153 958 l 300 872 l 439 953 b 469 947 454 961 461 958 l 515 882 b 507 856 522 872 514 861 l 319 711 b 286 711 308 703 294 706 "},"ş":{"ha":599,"x_min":0,"x_max":0,"o":"m 65 38 b 54 71 54 49 47 57 l 111 182 b 144 196 115 193 131 203 b 296 150 188 174 238 150 b 346 175 328 150 346 160 b 236 247 346 196 324 214 b 49 456 113 294 49 353 b 299 656 49 571 125 656 b 511 607 400 656 476 629 b 528 565 526 596 536 582 l 468 458 b 435 447 464 447 447 442 b 296 490 407 461 350 490 b 249 465 267 490 249 482 b 321 417 249 449 267 436 b 556 189 451 372 556 318 b 329 -12 556 88 479 0 l 288 -79 b 308 -78 296 -78 303 -78 b 433 -200 371 -78 433 -111 b 260 -346 433 -294 354 -346 b 143 -312 206 -346 167 -332 b 142 -269 131 -301 133 -287 l 156 -237 b 197 -224 165 -215 179 -211 b 253 -242 204 -229 228 -242 b 311 -196 288 -242 311 -228 b 253 -150 311 -164 288 -150 b 203 -162 229 -150 214 -158 b 175 -136 188 -168 168 -150 l 232 -12 b 65 38 151 -6 92 17 "},"ș":{"ha":599,"x_min":0,"x_max":0,"o":"m 294 -15 b 65 38 190 -15 107 13 b 54 71 51 46 47 57 l 106 176 b 139 190 110 188 125 197 b 297 150 190 165 239 150 b 346 181 339 150 346 165 b 236 247 346 201 311 218 b 49 456 113 296 49 353 b 292 656 49 571 125 656 b 511 607 375 656 463 632 b 528 565 528 599 536 582 l 478 463 b 444 451 474 451 457 446 b 294 490 401 472 346 490 b 249 464 258 490 249 481 b 321 417 249 447 275 433 b 556 189 450 369 556 318 b 294 -15 556 78 465 -15 m 185 -200 b 304 -89 185 -129 235 -89 b 438 -233 375 -89 438 -128 b 365 -440 438 -331 400 -393 b 333 -442 356 -450 344 -450 l 292 -411 b 289 -379 279 -403 279 -389 b 322 -289 308 -356 322 -318 b 322 -279 322 -286 322 -283 b 276 -292 322 -279 303 -292 b 185 -200 219 -292 185 -253 "},"ß":{"ha":806,"x_min":0,"x_max":0,"o":"m 79 589 b 411 986 79 854 215 986 b 693 738 560 986 693 879 b 583 507 693 604 583 561 b 644 431 583 481 610 458 b 767 225 699 386 767 326 b 476 -15 767 47 615 -12 b 444 7 463 -15 449 -6 l 417 136 b 440 171 413 151 424 169 b 524 242 494 175 524 197 b 457 336 524 289 490 308 b 357 492 408 376 357 419 b 474 717 357 603 474 639 b 400 786 474 756 443 786 b 290 585 333 786 290 742 l 290 29 b 263 0 290 14 278 0 l 108 0 b 79 29 93 0 79 14 "},"ť":{"ha":583,"x_min":0,"x_max":0,"o":"m 118 451 l 65 451 b 38 482 50 451 38 465 l 38 611 b 65 642 38 629 50 642 l 118 642 l 118 819 b 149 850 118 836 132 850 l 301 850 b 329 819 317 850 329 836 l 329 642 l 458 642 b 489 611 475 642 489 629 l 489 482 b 458 451 489 465 475 451 l 329 451 l 329 228 b 372 183 329 197 344 183 b 451 197 394 183 436 193 b 488 178 468 201 483 194 l 515 57 b 494 21 519 38 513 29 b 311 -15 451 3 379 -15 b 118 208 189 -15 118 63 m 435 875 b 554 986 435 946 485 986 b 688 842 625 986 688 947 b 615 635 688 744 650 682 b 583 633 606 625 594 625 l 542 664 b 539 696 529 672 529 686 b 572 786 558 719 572 757 b 572 796 572 789 572 792 b 526 783 572 796 553 783 b 435 875 469 783 435 822 "},"ţ":{"ha":550,"x_min":0,"x_max":0,"o":"m 124 451 l 71 451 b 43 482 56 451 43 465 l 43 611 b 71 642 43 629 56 642 l 124 642 l 124 819 b 154 850 124 836 138 850 l 307 850 b 335 819 322 850 335 836 l 335 642 l 464 642 b 494 611 481 642 494 629 l 494 482 b 464 451 494 465 481 451 l 335 451 l 335 228 b 378 183 335 197 350 183 b 457 197 400 183 442 193 b 493 178 474 201 489 194 l 521 57 b 500 21 525 38 518 29 b 360 -12 465 6 414 -7 l 318 -79 b 339 -78 326 -78 333 -78 b 464 -200 401 -78 464 -111 b 290 -346 464 -294 385 -346 b 174 -312 236 -346 197 -332 b 172 -269 161 -301 164 -287 l 186 -237 b 228 -224 196 -215 210 -211 b 283 -242 235 -229 258 -242 b 342 -196 318 -242 342 -228 b 283 -150 342 -164 318 -150 b 233 -162 260 -150 244 -158 b 206 -136 218 -168 199 -150 l 264 -10 b 124 208 175 10 124 85 "},"ț":{"ha":544,"x_min":0,"x_max":0,"o":"m 118 451 l 65 451 b 38 482 50 451 38 465 l 38 611 b 65 642 38 629 50 642 l 118 642 l 118 819 b 149 850 118 836 132 850 l 301 850 b 329 819 317 850 329 836 l 329 642 l 458 642 b 489 611 475 642 489 629 l 489 482 b 458 451 489 465 475 451 l 329 451 l 329 228 b 372 183 329 197 344 183 b 451 197 394 183 436 193 b 488 178 468 201 483 194 l 515 57 b 494 21 519 38 513 29 b 311 -15 451 3 379 -15 b 118 208 189 -15 118 63 m 185 -200 b 304 -89 185 -129 235 -89 b 438 -233 375 -89 438 -128 b 365 -440 438 -331 400 -393 b 333 -442 356 -450 344 -450 l 292 -411 b 289 -379 279 -403 279 -389 b 322 -289 308 -356 322 -318 b 322 -279 322 -286 322 -283 b 276 -292 322 -279 303 -292 b 185 -200 219 -292 185 -253 "},"ŧ":{"ha":549,"x_min":0,"x_max":0,"o":"m 119 269 l 76 269 b 49 300 61 269 49 285 l 49 326 b 76 357 49 343 61 357 l 119 357 l 119 438 l 76 438 b 39 468 44 438 39 454 l 39 611 b 67 642 39 629 51 642 l 76 642 l 119 642 l 119 819 b 150 850 119 836 133 850 l 303 850 b 331 819 318 850 331 836 l 331 642 l 460 642 l 469 642 b 500 611 486 642 500 629 l 500 468 b 469 438 500 451 486 438 l 331 438 l 331 357 l 469 357 b 500 326 486 357 500 343 l 500 299 b 469 269 500 283 486 269 l 331 269 l 331 228 b 374 183 331 197 346 183 b 453 197 396 183 438 193 b 489 178 469 201 485 194 l 517 57 b 496 21 521 38 514 29 b 313 -15 453 3 381 -15 b 119 208 190 -15 119 63 "},"þ":{"ha":799,"x_min":0,"x_max":0,"o":"m 290 -301 b 261 -331 290 -317 276 -331 l 108 -331 b 79 -301 93 -331 79 -317 l 79 943 b 108 972 79 958 93 972 l 260 972 b 289 943 275 972 289 958 l 289 619 b 436 656 317 639 372 656 b 754 321 610 656 754 550 b 422 -14 754 100 607 -14 b 290 10 381 -14 328 -8 m 275 322 b 411 186 275 243 332 186 b 546 322 488 186 546 243 b 411 456 546 400 488 456 b 275 322 332 456 275 400 "},"ù":{"ha":746,"x_min":0,"x_max":0,"o":"m 72 611 b 101 642 72 629 86 642 l 253 642 b 283 611 269 642 283 629 l 283 294 b 369 183 283 222 304 183 b 457 283 432 183 457 226 l 457 611 b 492 642 457 638 476 642 l 638 642 b 668 611 654 642 668 629 l 668 31 b 638 0 668 14 654 0 l 574 0 b 543 22 560 0 549 11 l 521 82 b 318 -15 482 42 414 -15 b 72 290 131 -15 72 108 m 226 825 b 218 867 215 832 207 846 l 265 949 b 301 953 272 961 293 958 l 538 808 b 546 782 544 803 551 793 l 517 724 b 479 711 510 710 497 700 "},"ú":{"ha":746,"x_min":0,"x_max":0,"o":"m 72 611 b 101 642 72 629 86 642 l 253 642 b 283 611 269 642 283 629 l 283 294 b 369 183 283 222 304 183 b 457 283 432 183 457 226 l 457 611 b 492 642 457 638 476 642 l 638 642 b 668 611 654 642 668 629 l 668 31 b 638 0 668 14 654 0 l 574 0 b 543 22 560 0 549 11 l 521 82 b 318 -15 482 42 414 -15 b 72 290 131 -15 72 108 m 279 711 b 242 724 261 700 249 710 l 213 782 b 221 808 207 793 214 803 l 457 953 b 493 949 465 958 486 961 l 540 867 b 532 825 551 846 543 832 l 279 711 "},"û":{"ha":746,"x_min":0,"x_max":0,"o":"m 72 611 b 101 642 72 629 86 642 l 253 642 b 283 611 269 642 283 629 l 283 294 b 369 183 283 222 304 183 b 457 283 432 183 457 226 l 457 611 b 492 642 457 638 476 642 l 638 642 b 668 611 654 642 668 629 l 668 31 b 638 0 668 14 654 0 l 574 0 b 543 22 560 0 549 11 l 521 82 b 318 -15 482 42 414 -15 b 72 290 131 -15 72 108 m 240 711 b 210 717 225 703 218 706 l 164 782 b 172 808 157 792 165 803 l 360 953 b 393 953 371 961 385 958 l 585 808 b 593 782 592 803 599 793 l 546 718 b 517 711 539 708 526 706 l 379 792 l 240 711 "},"ũ":{"ha":746,"x_min":0,"x_max":0,"o":"m 72 611 b 101 642 72 629 86 642 l 253 642 b 283 611 269 642 283 629 l 283 294 b 369 183 283 222 304 183 b 457 283 432 183 457 226 l 457 611 b 492 642 457 638 476 642 l 638 642 b 668 611 654 642 668 629 l 668 31 b 638 0 668 14 654 0 l 574 0 b 543 22 560 0 549 11 l 521 82 b 318 -15 482 42 414 -15 b 72 290 131 -15 72 108 m 167 810 b 158 842 157 817 154 832 b 307 958 172 867 232 958 b 457 893 374 958 403 893 b 510 936 479 893 500 921 b 544 939 517 947 531 951 l 592 903 b 593 863 603 894 604 879 b 454 754 579 839 528 754 b 301 821 382 754 349 821 b 246 772 276 821 258 786 b 215 771 238 764 228 763 "},"ü":{"ha":746,"x_min":0,"x_max":0,"o":"m 72 611 b 101 642 72 629 86 642 l 253 642 b 283 611 269 642 283 629 l 283 294 b 369 183 283 222 304 183 b 457 283 432 183 457 226 l 457 611 b 492 642 457 638 476 642 l 638 642 b 668 611 654 642 668 629 l 668 31 b 638 0 668 14 654 0 l 574 0 b 543 22 560 0 549 11 l 521 82 b 318 -15 482 42 414 -15 b 72 290 131 -15 72 108 m 519 736 b 415 842 461 736 415 783 b 519 946 415 900 461 946 b 625 842 578 946 625 900 b 519 736 625 783 578 736 m 235 736 b 131 842 176 736 131 783 b 235 946 131 900 176 946 b 340 842 293 946 340 900 b 235 736 340 783 293 736 "},"ū":{"ha":746,"x_min":0,"x_max":0,"o":"m 72 611 b 101 642 72 629 86 642 l 253 642 b 283 611 269 642 283 629 l 283 294 b 369 183 283 222 304 183 b 457 283 432 183 457 226 l 457 611 b 492 642 457 638 476 642 l 638 642 b 668 611 654 642 668 629 l 668 31 b 638 0 668 14 654 0 l 574 0 b 543 22 560 0 549 11 l 521 82 b 318 -15 482 42 414 -15 b 72 290 131 -15 72 108 m 199 782 b 172 807 183 782 172 793 l 172 864 b 199 890 172 879 183 890 l 554 890 b 581 864 569 890 581 879 l 581 807 b 554 782 581 793 569 782 l 199 782 "},"ŭ":{"ha":746,"x_min":0,"x_max":0,"o":"m 72 611 b 101 642 72 629 86 642 l 253 642 b 283 611 269 642 283 629 l 283 294 b 369 183 283 222 304 183 b 457 283 432 183 457 226 l 457 611 b 492 642 457 638 476 642 l 638 642 b 668 611 654 642 668 629 l 668 31 b 638 0 668 14 654 0 l 574 0 b 543 22 560 0 549 11 l 521 82 b 318 -15 482 42 414 -15 b 72 290 131 -15 72 108 m 381 732 b 183 899 278 732 197 804 b 210 929 181 915 192 929 l 272 929 b 296 913 283 929 293 921 b 381 846 308 875 340 846 b 463 913 417 846 450 879 b 486 929 465 922 476 929 l 551 929 b 578 899 568 929 579 915 b 381 732 563 804 482 732 "},"ů":{"ha":746,"x_min":0,"x_max":0,"o":"m 72 611 b 101 642 72 629 86 642 l 253 642 b 283 611 269 642 283 629 l 283 294 b 369 183 283 222 304 183 b 457 283 432 183 457 226 l 457 611 b 492 642 457 638 476 642 l 638 642 b 668 611 654 642 668 629 l 668 31 b 638 0 668 14 654 0 l 574 0 b 543 22 560 0 549 11 l 521 82 b 318 -15 482 42 414 -15 b 72 290 131 -15 72 108 m 381 710 b 221 869 292 710 221 781 b 381 1029 221 958 292 1029 b 540 869 468 1029 540 958 b 381 710 540 781 468 710 m 381 808 b 440 869 413 808 440 838 b 381 929 440 901 413 929 b 319 869 349 929 319 901 b 381 808 319 838 349 808 "},"ű":{"ha":744,"x_min":0,"x_max":0,"o":"m 71 611 b 100 642 71 629 85 642 l 251 642 b 282 611 268 642 282 629 l 282 294 b 368 183 282 222 303 183 b 456 283 431 183 456 226 l 456 611 b 490 642 456 638 475 642 l 636 642 b 667 611 653 642 667 629 l 667 31 b 636 0 667 14 653 0 l 572 0 b 542 22 558 0 547 11 l 519 82 b 317 -15 481 42 413 -15 b 71 290 129 -15 71 108 m 451 724 b 425 750 438 724 421 736 l 467 946 b 493 972 471 960 479 972 l 624 972 b 649 938 650 972 660 954 l 540 744 b 515 724 533 735 525 724 l 451 724 m 221 724 b 194 750 207 724 190 736 l 236 946 b 263 972 240 960 249 972 l 393 972 b 418 938 419 972 428 956 l 310 744 b 285 724 304 733 294 724 l 221 724 "},"ų":{"ha":746,"x_min":0,"x_max":0,"o":"m 72 611 b 101 642 72 629 86 642 l 253 642 b 283 611 269 642 283 629 l 283 306 b 369 183 283 233 304 183 b 457 294 432 183 457 238 l 457 611 b 492 642 457 638 476 642 l 638 642 b 668 611 654 642 668 629 l 668 39 b 647 1 668 21 658 8 b 521 -164 607 -25 521 -100 b 568 -215 521 -203 540 -215 b 651 -175 604 -215 640 -186 b 682 -186 664 -162 682 -169 l 682 -265 b 660 -312 682 -283 678 -300 b 532 -346 636 -328 588 -346 b 382 -197 432 -346 382 -279 b 543 21 382 -106 485 -19 l 521 82 b 321 -15 482 42 444 -15 b 72 301 131 -15 72 119 "},"ẃ":{"ha":1000,"x_min":0,"x_max":0,"o":"m 21 603 b 50 642 14 624 26 642 l 188 642 b 217 622 197 642 213 635 l 310 356 l 311 356 l 468 643 b 493 656 471 649 479 656 l 508 656 b 533 643 521 656 531 650 l 692 356 l 693 356 l 785 622 b 817 642 790 638 800 642 l 951 642 b 981 603 974 642 988 622 l 768 4 b 739 -15 764 -7 751 -15 l 732 -15 b 707 -1 725 -15 710 -8 l 500 344 l 499 344 l 294 -1 b 269 -15 290 -8 276 -15 l 261 -15 b 233 4 250 -15 238 -7 m 404 711 b 367 724 386 700 374 710 l 338 782 b 346 808 332 793 339 803 l 582 953 b 618 949 590 958 611 961 l 665 867 b 657 825 676 846 668 832 l 404 711 "},"ŵ":{"ha":1000,"x_min":0,"x_max":0,"o":"m 21 603 b 50 642 14 624 26 642 l 188 642 b 217 622 197 642 213 635 l 310 356 l 311 356 l 468 643 b 493 656 471 649 479 656 l 508 656 b 533 643 521 656 531 650 l 692 356 l 693 356 l 785 622 b 817 642 790 638 800 642 l 951 642 b 981 603 974 642 988 622 l 768 4 b 739 -15 764 -7 751 -15 l 732 -15 b 707 -1 725 -15 710 -8 l 500 344 l 499 344 l 294 -1 b 269 -15 290 -8 276 -15 l 261 -15 b 233 4 250 -15 238 -7 m 367 711 b 336 717 351 703 344 706 l 290 782 b 299 808 283 792 292 803 l 486 953 b 519 953 497 961 511 958 l 711 808 b 719 782 718 803 725 793 l 672 718 b 643 711 665 708 653 706 l 506 792 l 367 711 "},"ẅ":{"ha":1000,"x_min":0,"x_max":0,"o":"m 21 603 b 50 642 14 624 26 642 l 188 642 b 217 622 197 642 213 635 l 310 356 l 311 356 l 468 643 b 493 656 471 649 479 656 l 508 656 b 533 643 521 656 531 650 l 692 356 l 693 356 l 785 622 b 817 642 790 638 800 642 l 951 642 b 981 603 974 642 988 622 l 768 4 b 739 -15 764 -7 751 -15 l 732 -15 b 707 -1 725 -15 710 -8 l 500 344 l 499 344 l 294 -1 b 269 -15 290 -8 276 -15 l 261 -15 b 233 4 250 -15 238 -7 m 646 736 b 542 842 588 736 542 783 b 646 946 542 900 588 946 b 751 842 704 946 751 900 b 646 736 751 783 704 736 m 361 736 b 257 842 303 736 257 783 b 361 946 257 900 303 946 b 467 842 419 946 467 900 b 361 736 467 783 419 736 "},"ẁ":{"ha":1000,"x_min":0,"x_max":0,"o":"m 21 603 b 50 642 14 624 26 642 l 188 642 b 217 622 197 642 213 635 l 310 356 l 311 356 l 468 643 b 493 656 471 649 479 656 l 508 656 b 533 643 521 656 531 650 l 692 356 l 693 356 l 785 622 b 817 642 790 638 800 642 l 951 642 b 981 603 974 642 988 622 l 768 4 b 739 -15 764 -7 751 -15 l 732 -15 b 707 -1 725 -15 710 -8 l 500 344 l 499 344 l 294 -1 b 269 -15 290 -8 276 -15 l 261 -15 b 233 4 250 -15 238 -7 m 347 825 b 339 867 336 832 328 846 l 386 949 b 422 953 393 961 414 958 l 658 808 b 667 782 665 803 672 793 l 638 724 b 600 711 631 710 618 700 "},"ý":{"ha":688,"x_min":0,"x_max":0,"o":"m 25 600 b 51 642 18 621 28 642 l 217 642 b 242 624 228 642 239 635 l 329 283 l 332 283 l 456 624 b 483 642 460 635 471 642 l 642 642 b 669 600 667 642 679 622 l 290 -311 b 264 -331 286 -321 275 -331 l 108 -331 b 82 -287 85 -331 72 -310 l 215 49 m 224 711 b 186 724 206 700 193 710 l 157 782 b 165 808 151 793 158 803 l 401 953 b 438 949 410 958 431 961 l 485 867 b 476 825 496 846 488 832 l 224 711 "},"ŷ":{"ha":688,"x_min":0,"x_max":0,"o":"m 25 600 b 51 642 18 621 28 642 l 217 642 b 242 624 228 642 239 635 l 329 283 l 332 283 l 456 624 b 483 642 460 635 471 642 l 642 642 b 669 600 667 642 679 622 l 290 -311 b 264 -331 286 -321 275 -331 l 108 -331 b 82 -287 85 -331 72 -310 l 215 49 m 214 711 b 183 717 199 703 192 706 l 138 782 b 146 808 131 792 139 803 l 333 953 b 367 953 344 961 358 958 l 558 808 b 567 782 565 803 572 793 l 519 718 b 490 711 513 708 500 706 l 353 792 l 214 711 "},"ÿ":{"ha":688,"x_min":0,"x_max":0,"o":"m 25 600 b 51 642 18 621 28 642 l 217 642 b 242 624 228 642 239 635 l 329 283 l 332 283 l 456 624 b 483 642 460 635 471 642 l 642 642 b 669 600 667 642 679 622 l 290 -311 b 264 -331 286 -321 275 -331 l 108 -331 b 82 -287 85 -331 72 -310 l 215 49 m 489 736 b 385 842 431 736 385 783 b 489 946 385 900 431 946 b 594 842 547 946 594 900 b 489 736 594 783 547 736 m 204 736 b 100 842 146 736 100 783 b 204 946 100 900 146 946 b 310 842 263 946 310 900 b 204 736 310 783 263 736 "},"ỳ":{"ha":688,"x_min":0,"x_max":0,"o":"m 25 600 b 51 642 18 621 28 642 l 217 642 b 242 624 228 642 239 635 l 329 283 l 332 283 l 456 624 b 483 642 460 635 471 642 l 642 642 b 669 600 667 642 679 622 l 290 -311 b 264 -331 286 -321 275 -331 l 108 -331 b 82 -287 85 -331 72 -310 l 215 49 m 201 825 b 193 867 190 832 182 846 l 240 949 b 276 953 247 961 268 958 l 513 808 b 521 782 519 803 526 793 l 492 724 b 454 711 485 710 472 700 "},"ź":{"ha":583,"x_min":0,"x_max":0,"o":"m 72 0 b 42 31 56 0 42 14 b 51 67 42 43 42 47 l 251 446 l 251 449 l 86 449 b 57 479 71 449 57 463 l 57 611 b 86 642 57 629 71 642 l 521 642 b 547 597 544 642 560 621 l 332 194 l 332 192 l 489 192 b 519 161 506 192 519 179 l 519 31 b 489 0 519 14 506 0 l 72 0 m 218 711 b 181 724 200 700 188 710 l 151 782 b 160 808 146 793 153 803 l 396 953 b 432 949 404 958 425 961 l 479 867 b 471 825 490 846 482 832 l 218 711 "},"ž":{"ha":583,"x_min":0,"x_max":0,"o":"m 72 0 b 42 31 56 0 42 14 b 51 67 42 43 42 47 l 251 446 l 251 449 l 86 449 b 57 479 71 449 57 463 l 57 611 b 86 642 57 629 71 642 l 521 642 b 547 597 544 642 560 621 l 332 194 l 332 192 l 489 192 b 519 161 506 192 519 179 l 519 31 b 489 0 519 14 506 0 l 72 0 m 101 856 b 93 882 94 861 88 871 l 140 946 b 169 953 147 956 160 958 l 307 872 l 446 953 b 476 947 461 961 468 958 l 522 882 b 514 856 529 872 521 861 l 326 711 b 293 711 315 703 301 706 "},"ż":{"ha":583,"x_min":0,"x_max":0,"o":"m 72 0 b 42 31 56 0 42 14 b 51 67 42 43 42 47 l 251 446 l 251 449 l 86 449 b 57 479 71 449 57 463 l 57 611 b 86 642 57 629 71 642 l 521 642 b 547 597 544 642 560 621 l 332 194 l 332 192 l 489 192 b 519 161 506 192 519 179 l 519 31 b 489 0 519 14 506 0 l 72 0 m 301 731 b 182 850 235 731 182 785 b 301 972 182 917 235 972 b 422 850 368 972 422 917 b 301 731 422 785 368 731 "},"Ĳ":{"ha":1072,"x_min":0,"x_max":0,"o":"m 110 946 b 136 972 110 960 122 972 l 303 972 b 329 946 317 972 329 960 l 329 26 b 303 0 329 13 317 0 l 136 0 b 110 26 122 0 110 13 m 460 88 b 463 122 453 99 454 113 l 557 215 b 594 215 568 225 583 226 b 665 186 611 199 633 186 b 747 278 704 186 747 201 l 747 946 b 774 972 747 960 758 972 l 943 972 b 969 946 958 972 969 960 l 969 276 b 683 -14 969 83 833 -14 b 460 88 550 -14 483 58 "},"ĳ":{"ha":749,"x_min":0,"x_max":0,"o":"m 78 611 b 108 642 78 629 92 642 l 258 642 b 289 611 275 642 289 629 l 289 31 b 258 0 289 14 275 0 l 108 0 b 78 31 92 0 78 14 m 182 731 b 63 850 115 731 63 785 b 182 972 63 917 115 972 b 303 850 249 972 303 917 b 182 731 303 785 249 731 m 564 731 b 444 850 497 731 444 785 b 564 972 444 917 497 972 b 685 850 631 972 685 917 b 564 731 685 785 631 731 m 669 -6 b 433 -340 669 -203 557 -308 b 365 -317 394 -350 376 -343 l 325 -215 b 347 -168 314 -186 333 -174 b 458 -22 404 -146 458 -107 l 458 611 b 489 642 458 629 472 642 l 639 642 b 669 611 656 642 669 629 "},"ﬁ":{"ha":844,"x_min":0,"x_max":0,"o":"m 588 746 b 440 786 553 764 506 786 b 340 681 375 786 340 743 l 340 642 l 738 642 b 768 611 756 642 768 629 l 768 31 b 738 0 768 14 756 0 l 589 0 b 558 31 572 0 558 14 l 558 451 l 340 451 l 340 31 b 300 0 340 11 325 0 l 160 0 b 129 31 144 0 129 14 l 129 451 l 75 451 b 44 482 57 451 44 465 l 44 611 b 75 642 44 629 57 642 l 129 642 l 129 683 b 438 986 129 856 229 986 b 671 921 539 986 628 944 b 685 878 688 913 692 893 l 632 765 b 588 746 619 739 608 735 "},"ﬂ":{"ha":889,"x_min":0,"x_max":0,"o":"m 131 451 l 74 451 b 43 482 56 451 43 465 l 43 611 b 74 642 43 629 56 642 l 131 642 l 131 678 b 425 986 131 883 261 986 b 654 897 549 986 607 946 l 674 942 b 715 972 683 963 696 972 l 779 972 b 810 942 794 972 810 957 l 810 31 b 779 0 810 14 794 0 l 629 0 b 599 31 614 0 599 14 l 599 692 b 460 786 581 726 540 786 b 342 675 404 786 342 765 l 342 642 l 447 642 b 478 611 464 642 478 629 l 478 482 b 447 451 478 465 464 451 l 342 451 l 342 31 b 310 0 342 14 326 0 l 158 0 b 131 31 143 0 131 14 "},"´":{"ha":419,"x_min":0,"x_max":0,"o":"m 111 711 b 74 724 93 700 81 710 l 44 782 b 53 808 39 793 46 803 l 289 953 b 325 949 297 958 318 961 l 372 867 b 364 825 383 846 375 832 l 111 711 "},"ˆ":{"ha":518,"x_min":0,"x_max":0,"o":"m 121 711 b 90 717 106 703 99 706 l 44 782 b 53 808 38 792 46 803 l 240 953 b 274 953 251 961 265 958 l 465 808 b 474 782 472 803 479 793 l 426 718 b 397 711 419 708 407 706 l 260 792 l 121 711 "},"ˇ":{"ha":518,"x_min":0,"x_max":0,"o":"m 51 856 b 43 882 44 861 38 871 l 90 946 b 119 953 97 956 110 958 l 257 872 l 396 953 b 426 947 411 961 418 958 l 472 882 b 464 856 479 872 471 861 l 276 711 b 243 711 265 703 251 706 "},"˜":{"ha":528,"x_min":0,"x_max":0,"o":"m 53 810 b 44 842 43 817 40 832 b 193 958 58 867 118 958 b 343 893 260 958 289 893 b 396 936 365 893 386 921 b 431 939 403 947 417 951 l 478 903 b 479 863 489 894 490 879 b 340 754 465 839 414 754 b 188 821 268 754 235 821 b 132 772 163 821 144 786 b 101 771 124 764 114 763 "},"¨":{"ha":575,"x_min":0,"x_max":0,"o":"m 429 736 b 325 842 371 736 325 783 b 429 946 325 900 371 946 b 535 842 488 946 535 900 b 429 736 535 783 488 736 m 144 736 b 40 842 86 736 40 783 b 144 946 40 900 86 946 b 250 842 203 946 250 900 b 144 736 250 783 203 736 "},"¯":{"ha":575,"x_min":0,"x_max":0,"o":"m 110 782 b 83 807 94 782 83 793 l 83 864 b 110 890 83 879 94 890 l 465 890 b 492 864 481 890 492 879 l 492 807 b 465 782 492 793 481 782 l 110 782 "},"ˉ":{"ha":575,"x_min":0,"x_max":0,"o":"m 110 782 b 83 807 94 782 83 793 l 83 864 b 110 890 83 879 94 890 l 465 890 b 492 864 481 890 492 879 l 492 807 b 465 782 492 793 481 782 l 110 782 "},"˘":{"ha":481,"x_min":0,"x_max":0,"o":"m 240 732 b 43 899 138 732 57 804 b 69 929 40 915 51 929 l 132 929 b 156 913 143 929 153 921 b 240 846 168 875 200 846 b 322 913 276 846 310 879 b 346 929 325 922 336 929 l 411 929 b 438 899 428 929 439 915 b 240 732 422 804 342 732 "},"˚":{"ha":403,"x_min":0,"x_max":0,"o":"m 201 667 b 42 826 113 667 42 738 b 201 986 42 915 113 986 b 361 826 289 986 361 915 b 201 667 361 738 289 667 m 201 765 b 261 826 233 765 261 794 b 201 886 261 858 233 886 b 140 826 169 886 140 858 b 201 765 140 794 169 765 "},"˝":{"ha":544,"x_min":0,"x_max":0,"o":"m 300 724 b 274 750 286 724 269 736 l 315 946 b 342 972 319 960 328 972 l 472 972 b 497 938 499 972 508 954 l 389 744 b 364 724 382 735 374 724 l 300 724 m 69 724 b 43 750 56 724 39 736 l 85 946 b 111 972 89 960 97 972 l 242 972 b 267 938 268 972 276 956 l 158 744 b 133 724 153 733 143 724 l 69 724 "},"˙":{"ha":304,"x_min":0,"x_max":0,"o":"m 151 713 b 32 832 85 713 32 767 b 151 954 32 899 85 954 b 272 832 218 954 272 899 b 151 713 272 767 218 713 "},"¸":{"ha":343,"x_min":0,"x_max":0,"o":"m 246 4 l 193 -79 b 214 -78 201 -78 208 -78 b 339 -200 276 -78 339 -111 b 165 -346 339 -294 260 -346 b 49 -312 111 -346 72 -332 b 47 -269 36 -301 39 -287 l 61 -237 b 103 -224 71 -215 85 -211 b 158 -242 110 -229 133 -242 b 217 -196 193 -242 217 -228 b 158 -150 217 -164 193 -150 b 108 -162 135 -150 119 -158 b 81 -136 93 -168 74 -150 l 146 4 "},"˛":{"ha":383,"x_min":0,"x_max":0,"o":"m 299 4 b 168 -164 261 -22 168 -99 b 215 -215 168 -203 188 -215 b 299 -175 251 -215 288 -186 b 329 -186 311 -162 329 -169 l 329 -265 b 307 -312 329 -283 325 -300 b 179 -346 283 -328 235 -346 b 29 -197 79 -346 29 -279 b 158 4 29 -97 111 -32 l 299 4 "},"":{"ha":406,"x_min":0,"x_max":0,"o":"m 93 -200 b 213 -89 93 -129 143 -89 b 346 -233 283 -89 346 -128 b 274 -440 346 -331 308 -393 b 242 -442 264 -450 253 -450 l 200 -411 b 197 -379 188 -403 188 -389 b 231 -289 217 -356 231 -318 b 231 -279 231 -286 231 -283 b 185 -292 231 -279 211 -292 b 93 -200 128 -292 93 -253 "},"…":{"ha":940,"x_min":0,"x_max":0,"o":"m 674 97 b 783 207 674 158 722 207 b 894 97 844 207 894 158 b 783 -14 894 36 844 -14 b 674 97 722 -14 674 36 m 361 97 b 471 207 361 158 410 207 b 582 97 532 207 582 158 b 471 -14 582 36 532 -14 b 361 97 410 -14 361 36 m 47 97 b 157 207 47 158 96 207 b 268 97 218 207 268 158 b 157 -14 268 36 218 -14 b 47 97 96 -14 47 36 "},"­":{"ha":507,"x_min":0,"x_max":0,"o":""},"¡":{"ha":361,"x_min":0,"x_max":0,"o":"m 182 392 b 49 525 110 392 49 453 b 182 656 49 596 110 656 b 313 525 253 656 313 596 b 182 392 313 453 253 392 m 125 242 b 151 264 126 253 139 264 l 210 264 b 236 242 222 264 235 253 l 304 -146 l 304 -304 b 278 -331 304 -318 292 -331 l 83 -331 b 57 -304 69 -331 57 -318 l 57 -149 l 125 242 "},"¿":{"ha":696,"x_min":0,"x_max":0,"o":"m 378 392 b 244 525 306 392 244 453 b 378 656 244 596 306 656 b 508 525 449 656 508 596 b 378 392 508 453 449 392 m 68 -103 b 276 236 68 81 276 86 b 303 263 276 251 289 263 l 451 263 b 478 236 465 263 478 251 l 478 178 b 286 -79 478 61 286 10 b 390 -161 286 -122 331 -161 b 549 -104 488 -161 514 -74 l 633 -187 b 633 -224 644 -197 643 -214 b 351 -346 633 -224 531 -346 b 68 -103 204 -346 68 -243 "},"‘":{"ha":332,"x_min":0,"x_max":0,"o":"m 297 636 b 178 524 297 572 246 524 b 44 688 107 524 44 574 b 144 974 44 811 96 904 b 176 975 153 985 164 983 l 221 944 b 221 911 232 938 231 925 b 153 742 185 861 153 799 b 154 731 153 738 153 736 b 203 744 165 739 185 744 b 297 636 265 744 297 694 "},"’":{"ha":326,"x_min":0,"x_max":0,"o":"m 32 874 b 151 986 32 938 83 986 b 285 822 222 986 285 936 b 185 536 285 699 233 606 b 153 535 176 525 165 526 l 108 565 b 108 599 97 572 100 586 b 176 768 143 650 176 711 b 175 779 176 772 176 774 b 126 765 164 771 144 765 b 32 874 64 765 32 815 "},"“":{"ha":644,"x_min":0,"x_max":0,"o":"m 297 636 b 178 524 297 572 246 524 b 44 688 107 524 44 574 b 144 974 44 811 96 904 b 176 975 153 985 164 983 l 221 944 b 221 911 232 938 231 925 b 153 742 185 861 153 799 b 154 731 153 738 153 736 b 203 744 165 739 185 744 b 297 636 265 744 297 694 m 610 636 b 490 524 610 572 558 524 b 357 688 419 524 357 574 b 457 974 357 811 408 904 b 489 975 465 985 476 983 l 533 944 b 533 911 544 938 543 925 b 465 742 497 861 465 799 b 467 731 465 738 465 736 b 515 744 478 739 497 744 b 610 636 578 744 610 694 "},"”":{"ha":639,"x_min":0,"x_max":0,"o":"m 32 874 b 151 986 32 938 83 986 b 285 822 222 986 285 936 b 185 536 285 699 233 606 b 153 535 176 525 165 526 l 108 565 b 108 599 97 572 100 586 b 176 768 143 650 176 711 b 175 779 176 772 176 774 b 126 765 164 771 144 765 b 32 874 64 765 32 815 m 344 874 b 464 986 344 938 396 986 b 597 822 535 986 597 936 b 497 536 597 699 546 606 b 465 535 489 525 478 526 l 421 565 b 421 599 410 572 413 586 b 489 768 456 650 489 711 b 488 779 489 772 489 774 b 439 765 476 771 457 765 b 344 874 376 765 344 815 "},"‚":{"ha":349,"x_min":0,"x_max":0,"o":"m 47 108 b 167 221 47 172 99 221 b 300 57 238 221 300 171 b 200 -229 300 -67 249 -160 b 168 -231 192 -240 181 -239 l 124 -200 b 124 -167 113 -193 115 -179 b 192 3 158 -115 192 -54 b 190 14 192 7 192 8 b 142 0 179 6 160 0 b 47 108 79 0 47 50 "},"„":{"ha":660,"x_min":0,"x_max":0,"o":"m 47 108 b 167 221 47 172 99 221 b 300 57 238 221 300 171 b 200 -229 300 -67 249 -160 b 168 -231 192 -240 181 -239 l 124 -200 b 124 -167 113 -193 115 -179 b 192 3 158 -115 192 -54 b 190 14 192 7 192 8 b 142 0 179 6 160 0 b 47 108 79 0 47 50 m 358 108 b 478 221 358 172 410 221 b 611 57 549 221 611 171 b 511 -229 611 -67 560 -160 b 479 -231 503 -240 492 -239 l 435 -200 b 435 -167 424 -193 426 -179 b 503 3 469 -115 503 -54 b 501 14 503 7 503 8 b 453 0 490 6 471 0 b 358 108 390 0 358 50 "},"‹":{"ha":413,"x_min":0,"x_max":0,"o":"m 46 311 b 46 344 38 322 40 336 l 197 550 b 222 567 201 557 211 567 l 332 567 b 353 524 356 567 364 546 l 263 331 l 349 126 b 328 85 358 104 351 85 l 211 85 b 190 96 206 85 194 90 "},"›":{"ha":413,"x_min":0,"x_max":0,"o":"m 83 85 b 63 126 60 85 53 104 l 149 331 l 58 524 b 79 567 47 546 56 567 l 189 567 b 214 550 200 567 210 557 l 365 344 b 365 311 371 336 374 322 l 221 96 b 200 85 217 90 206 85 l 83 85 "},"«":{"ha":715,"x_min":0,"x_max":0,"o":"m 349 311 b 349 344 340 322 343 336 l 500 550 b 525 567 504 557 514 567 l 635 567 b 656 524 658 567 667 546 l 565 331 l 651 126 b 631 85 661 104 654 85 l 514 85 b 493 96 508 85 497 90 l 349 311 m 46 311 b 46 344 38 322 40 336 l 197 550 b 222 567 201 557 211 567 l 332 567 b 353 524 356 567 364 546 l 263 331 l 349 126 b 328 85 358 104 351 85 l 211 85 b 190 96 206 85 194 90 "},"»":{"ha":715,"x_min":0,"x_max":0,"o":"m 451 331 l 361 524 b 382 567 350 546 358 567 l 492 567 b 517 550 503 567 513 557 l 668 344 b 668 311 674 336 676 322 l 524 96 b 503 85 519 90 508 85 l 386 85 b 365 126 363 85 356 104 m 83 85 b 63 126 60 85 53 104 l 149 331 l 58 524 b 79 567 47 546 56 567 l 189 567 b 214 550 200 567 210 557 l 365 344 b 365 311 371 336 374 322 l 221 96 b 200 85 217 90 206 85 l 83 85 "},"–":{"ha":761,"x_min":0,"x_max":0,"o":"m 96 282 b 69 307 81 282 69 293 l 69 378 b 96 404 69 393 81 404 l 664 404 b 690 378 679 404 690 393 l 690 307 b 664 282 690 293 679 282 l 96 282 "},"—":{"ha":1067,"x_min":0,"x_max":0,"o":"m 96 282 b 69 307 81 282 69 293 l 69 378 b 96 404 69 393 81 404 l 969 404 b 996 378 985 404 996 393 l 996 307 b 969 282 996 293 985 282 l 96 282 "},"•":{"ha":553,"x_min":0,"x_max":0,"o":"m 274 157 b 78 353 168 157 78 247 b 274 554 78 463 168 554 b 475 353 383 554 475 463 b 274 157 475 247 383 157 "},"·":{"ha":389,"x_min":0,"x_max":0,"o":"m 192 207 b 46 353 113 207 46 274 b 192 504 46 436 113 504 b 343 353 275 504 343 436 b 192 207 343 274 275 207 "},"∙":{"ha":392,"x_min":0,"x_max":0,"o":"m 193 207 b 47 353 114 207 47 274 b 193 504 47 436 114 504 b 344 353 276 504 344 436 b 193 207 344 274 276 207 "},"†":{"ha":836,"x_min":0,"x_max":0,"o":"m 85 364 b 58 390 71 364 58 376 l 58 529 b 85 556 58 543 71 556 l 303 556 l 303 946 b 329 972 303 960 315 972 l 496 972 b 522 946 510 972 522 960 l 522 556 l 753 556 b 778 529 767 556 778 543 l 778 390 b 753 364 778 376 767 364 l 508 364 l 454 -308 b 428 -331 453 -319 444 -331 l 397 -331 b 371 -308 382 -331 372 -319 l 317 364 l 85 364 "},"‡":{"ha":858,"x_min":0,"x_max":0,"o":"m 111 167 b 138 193 111 181 124 193 l 339 193 l 314 553 l 314 554 l 96 554 b 69 581 82 554 69 567 l 69 719 b 96 746 69 733 82 746 l 314 746 l 314 946 b 340 972 314 960 326 972 l 507 972 b 533 946 521 972 533 960 l 533 746 l 764 746 b 789 719 778 746 789 733 l 789 581 b 764 554 789 567 778 554 l 533 554 l 507 193 l 722 193 b 747 167 736 193 747 181 l 747 28 b 722 1 747 14 736 1 l 493 1 l 465 -308 b 439 -331 464 -319 454 -331 l 408 -331 b 382 -308 393 -331 383 -319 l 353 1 l 138 1 b 111 28 124 1 111 14 "},"§":{"ha":775,"x_min":0,"x_max":0,"o":"m 144 -107 b 197 -92 156 -87 174 -78 b 379 -161 211 -99 310 -161 b 469 -83 431 -161 469 -132 b 336 46 469 -18 410 17 b 83 335 222 92 83 178 b 178 531 83 411 114 478 b 83 725 124 579 83 643 b 383 986 83 857 182 986 b 663 888 519 986 624 915 b 671 847 678 879 678 857 l 597 739 b 551 733 586 722 571 719 b 374 806 528 750 439 806 b 290 742 325 806 290 776 b 432 614 290 692 329 656 b 697 317 535 574 697 494 b 606 124 697 242 663 175 b 697 -75 657 75 697 13 b 389 -344 697 -208 581 -344 b 100 -247 218 -344 126 -272 b 94 -200 85 -232 82 -221 l 144 -107 m 281 353 b 440 214 281 285 346 253 b 479 313 440 214 479 246 b 319 451 479 382 415 410 b 314 446 319 451 318 450 b 281 353 303 433 281 403 "},"¶":{"ha":1071,"x_min":0,"x_max":0,"o":"m 346 390 b 57 682 189 390 57 518 b 326 972 57 840 175 972 l 968 972 b 994 946 982 972 994 960 l 994 861 b 968 835 994 846 982 835 l 883 835 l 883 -304 b 857 -331 883 -318 872 -331 l 758 -331 b 732 -304 744 -331 732 -318 l 732 835 l 557 835 l 557 -304 b 531 -331 557 -318 544 -331 l 433 -331 b 407 -304 419 -331 407 -318 l 407 390 l 346 390 "},"©":{"ha":1149,"x_min":0,"x_max":0,"o":"m 75 486 b 574 986 75 761 299 986 b 1074 486 849 986 1074 761 b 574 -14 1074 211 849 -14 b 75 486 299 -14 75 211 m 196 486 b 574 107 196 278 365 107 b 951 486 783 107 951 278 b 574 864 951 696 783 864 b 196 486 365 864 196 696 m 326 483 b 586 744 326 629 443 744 b 746 692 642 744 700 728 b 749 651 758 681 760 664 l 682 585 b 649 581 674 576 658 574 b 586 599 629 594 608 599 b 478 488 524 599 478 547 b 586 376 478 425 524 376 b 647 394 608 376 628 381 b 681 390 657 401 672 399 l 750 321 b 749 282 760 310 760 293 b 586 224 700 240 646 224 b 326 483 443 224 326 340 "},"®":{"ha":1149,"x_min":0,"x_max":0,"o":"m 75 486 b 574 986 75 761 299 986 b 1074 486 849 986 1074 761 b 574 -14 1074 211 849 -14 b 75 486 299 -14 75 211 m 196 486 b 574 107 196 278 365 107 b 951 486 783 107 951 278 b 574 864 951 696 783 864 b 196 486 365 864 196 696 m 382 715 b 408 742 382 729 393 742 l 633 742 b 804 561 719 742 804 672 b 711 406 804 475 757 432 l 767 271 b 743 233 775 253 763 233 l 649 233 b 624 253 638 233 626 243 l 572 400 l 518 400 l 518 260 b 492 233 518 246 507 233 l 408 233 b 382 260 393 233 382 246 m 610 513 b 654 558 633 513 654 533 b 610 604 654 585 633 604 l 514 604 l 514 513 "},"™":{"ha":1085,"x_min":0,"x_max":0,"o":"m 506 525 b 479 557 488 525 476 540 l 551 958 b 578 979 553 969 563 979 l 583 979 b 607 964 594 979 601 974 l 733 725 l 861 964 b 885 979 867 975 874 979 l 890 979 b 917 958 903 979 915 969 l 990 556 b 964 525 993 539 981 525 l 892 525 b 865 549 879 525 867 536 l 842 694 l 760 533 b 738 521 756 526 750 521 l 729 521 b 706 535 718 521 710 526 l 626 694 l 601 547 b 575 525 600 536 586 525 l 506 525 m 238 525 b 211 551 222 525 211 538 l 211 851 l 128 851 b 101 878 114 851 101 863 l 101 946 b 128 972 101 960 114 972 l 421 972 b 447 946 436 972 447 960 l 447 878 b 421 851 447 863 436 851 l 338 851 l 338 551 b 311 525 338 538 325 525 l 238 525 "},"¤":{"ha":688,"x_min":0,"x_max":0,"o":"m 99 274 b 99 311 89 283 89 301 l 171 383 b 158 450 163 404 158 428 b 169 515 158 472 163 494 l 97 589 b 97 626 88 599 88 617 l 167 694 b 203 694 176 704 193 704 l 274 624 b 346 639 297 633 321 639 b 414 626 368 639 392 635 l 485 697 b 522 696 494 707 513 707 l 590 628 b 592 592 600 618 601 601 l 521 521 b 535 451 529 499 535 475 b 519 378 535 426 529 401 l 590 307 b 589 271 600 297 599 281 l 521 203 b 485 201 511 193 494 192 l 411 275 b 344 264 390 268 367 264 b 276 276 321 264 297 268 l 204 204 b 167 204 194 194 176 194 m 346 393 b 403 453 378 393 403 419 b 346 510 403 482 376 508 b 289 451 314 508 289 482 b 346 393 289 419 315 393 "},"€":{"ha":833,"x_min":0,"x_max":0,"o":"m 113 421 b 110 485 111 442 110 463 l 110 511 l 56 511 b 31 538 42 511 31 524 l 31 561 b 56 588 31 575 42 588 l 117 588 b 528 986 147 804 279 986 b 789 879 638 986 713 960 b 790 840 800 867 801 851 l 704 711 b 669 711 694 701 679 701 b 535 776 624 760 585 776 b 354 588 456 776 379 714 l 639 588 b 665 561 654 588 665 575 l 665 536 b 639 511 665 522 654 511 l 346 511 l 346 490 b 347 421 346 467 346 443 l 583 421 b 610 394 599 421 610 408 l 610 369 b 583 344 610 356 599 344 l 360 344 b 531 208 381 264 428 208 b 661 267 586 208 622 231 b 697 265 671 275 689 275 l 792 140 b 790 103 801 131 800 113 b 522 -14 710 18 626 -14 b 122 344 322 -14 168 118 l 56 344 b 31 371 42 344 31 357 l 31 394 b 56 421 31 408 42 421 "},"¢":{"ha":757,"x_min":0,"x_max":0,"o":"m 82 321 b 422 656 82 510 239 656 b 460 653 435 656 447 654 l 478 721 b 515 740 483 736 500 747 l 542 733 b 564 696 558 731 568 714 l 546 631 b 663 543 590 613 629 582 b 654 497 675 528 669 510 l 564 410 b 528 413 557 403 540 401 b 494 438 517 421 506 431 l 425 183 l 426 183 b 542 236 486 183 514 208 b 578 242 553 250 569 253 l 668 164 b 679 118 682 150 690 135 b 421 -15 619 29 536 -15 b 372 -11 404 -15 388 -14 l 329 -171 b 293 -192 326 -186 308 -194 l 267 -182 b 244 -147 250 -179 242 -164 l 288 11 b 82 321 168 61 82 176 m 293 321 b 342 214 293 276 311 239 l 407 456 b 293 321 343 444 293 385 "},"£":{"ha":833,"x_min":0,"x_max":0,"o":"m 167 51 b 228 289 213 136 228 215 b 217 401 228 328 224 365 l 157 401 b 132 428 143 401 132 414 l 132 451 b 157 478 132 465 143 478 l 200 478 b 160 686 181 553 160 621 b 457 986 160 876 276 986 b 697 888 576 986 663 918 b 700 851 708 879 710 863 l 613 746 b 576 742 604 735 588 735 b 461 796 576 742 513 796 b 371 699 411 796 371 761 b 428 478 371 647 407 576 l 556 478 b 582 451 571 478 582 465 l 582 426 b 556 401 582 413 571 401 l 440 401 b 443 331 442 379 443 356 b 428 186 443 286 439 238 l 663 186 b 688 160 676 186 688 175 l 688 26 b 663 0 688 13 676 0 l 193 0 b 167 26 179 0 167 13 "},"ƒ":{"ha":561,"x_min":0,"x_max":0,"o":"m 167 379 l 54 379 b 28 406 39 379 28 392 l 28 529 b 54 556 28 544 39 556 l 167 556 l 167 685 b 464 986 167 875 286 986 b 618 933 544 986 596 951 b 624 899 626 925 631 910 l 557 789 b 525 779 550 778 536 774 b 467 794 525 779 490 794 b 379 683 417 794 379 760 l 379 556 l 507 556 b 533 529 522 556 533 544 l 533 406 b 507 379 533 392 522 379 l 379 379 l 379 -44 b 82 -346 379 -235 251 -346 b -72 -293 1 -346 -50 -311 b -78 -258 -81 -285 -85 -269 l -11 -149 b 21 -139 -4 -137 10 -133 b 79 -154 21 -139 56 -154 b 167 -43 128 -154 167 -119 "},"¥":{"ha":833,"x_min":0,"x_max":0,"o":"m 165 164 b 140 190 151 164 140 176 l 140 214 b 165 240 140 228 151 240 l 306 240 l 306 331 l 165 331 b 140 357 151 331 140 343 l 140 381 b 165 407 140 394 151 407 l 306 407 l 306 468 l -1 932 b 21 972 -12 950 -1 972 l 201 972 b 224 960 213 972 219 965 l 417 675 l 610 960 b 632 972 614 965 619 972 l 813 972 b 835 932 835 972 846 950 l 524 469 l 524 407 l 661 407 b 688 381 676 407 688 394 l 688 356 b 661 331 688 342 676 331 l 524 331 l 524 240 l 661 240 b 688 214 676 240 688 228 l 688 189 b 661 164 688 175 676 164 l 524 164 l 524 26 b 497 0 524 13 511 0 l 332 0 b 306 26 317 0 306 13 l 306 164 l 165 164 "},"ª":{"ha":472,"x_min":0,"x_max":0,"o":"m 185 550 b 39 694 99 550 39 606 b 204 824 39 767 100 824 b 275 814 246 824 275 814 b 218 874 276 853 261 874 b 115 861 190 874 142 867 b 90 883 100 858 92 867 l 81 942 b 96 971 78 961 88 968 b 235 986 106 974 178 986 b 410 810 363 986 410 932 l 410 579 b 390 560 410 569 400 560 l 344 560 b 325 574 338 560 331 563 l 311 603 b 185 550 286 579 251 550 m 222 649 b 267 694 247 649 267 669 b 222 739 267 718 247 739 b 178 694 196 739 178 718 b 222 649 178 669 196 649 "},"º":{"ha":450,"x_min":0,"x_max":0,"o":"m 225 547 b 43 767 108 547 43 631 b 225 986 43 904 108 986 b 407 767 342 986 407 904 b 225 547 407 631 342 547 m 225 658 b 268 767 253 658 268 690 b 225 875 268 844 253 875 b 182 767 197 875 182 844 b 225 658 182 690 197 658 "},"¹":{"ha":304,"x_min":0,"x_max":0,"o":"m 129 700 b 115 713 121 700 115 706 l 115 968 l 40 968 b 29 983 33 968 29 975 l 29 1036 b 40 1051 29 1043 33 1047 l 146 1111 l 233 1111 b 246 1099 240 1111 246 1106 l 246 713 b 233 700 246 706 240 700 l 129 700 "},"²":{"ha":383,"x_min":0,"x_max":0,"o":"m 47 700 b 33 713 39 700 33 706 l 33 738 l 175 908 b 203 974 194 933 203 957 b 160 1014 203 1001 182 1014 b 111 993 139 1014 118 1000 b 86 999 103 988 93 986 l 56 1049 b 61 1086 46 1065 40 1071 b 190 1125 74 1096 122 1125 b 335 994 271 1125 335 1075 b 293 878 335 954 319 915 l 238 804 l 318 804 b 332 792 325 804 332 799 l 332 713 b 318 700 332 706 325 700 l 47 700 "},"³":{"ha":379,"x_min":0,"x_max":0,"o":"m 171 686 b 46 726 96 686 57 718 b 42 757 35 735 33 744 l 74 804 b 101 810 81 814 89 817 b 151 794 101 810 121 794 b 197 828 185 794 197 807 b 151 863 197 847 182 863 l 106 863 b 88 885 94 864 88 867 l 88 932 b 113 956 88 949 97 956 l 151 956 b 190 989 172 956 190 968 b 150 1019 190 1007 175 1019 b 108 1004 133 1019 119 1013 b 85 1010 100 999 94 996 l 49 1058 b 50 1088 39 1071 43 1081 b 171 1125 50 1088 93 1125 b 324 1010 264 1125 324 1081 b 253 913 324 958 286 929 b 336 806 285 900 336 871 b 171 686 336 726 257 686 "},"⁄":{"ha":167,"x_min":0,"x_max":0,"o":"m -94 14 b -118 0 -97 8 -104 0 l -194 0 b -218 38 -215 0 -228 19 l 260 958 b 283 972 264 967 272 972 l 361 972 b 385 935 382 972 394 953 l -94 14 "},"∕":{"ha":167,"x_min":0,"x_max":0,"o":"m -94 14 b -118 0 -97 8 -104 0 l -194 0 b -218 38 -215 0 -228 19 l 260 958 b 283 972 264 967 272 972 l 361 972 b 385 935 382 972 394 953 l -94 14 "},"½":{"ha":928,"x_min":0,"x_max":0,"o":"m 617 958 b 640 972 621 967 629 972 l 718 972 b 742 935 739 972 751 953 l 263 14 b 239 0 260 8 253 0 l 163 0 b 139 38 142 0 129 19 m 165 561 b 151 574 157 561 151 567 l 151 829 l 76 829 b 65 844 69 829 65 836 l 65 897 b 76 913 65 904 69 908 l 182 972 l 269 972 b 282 960 276 972 282 967 l 282 574 b 269 561 282 567 276 561 l 165 561 m 551 38 l 693 208 b 721 274 713 233 721 257 b 678 314 721 301 700 314 b 629 293 657 314 636 300 b 604 299 621 288 611 286 l 574 349 b 579 386 564 365 558 371 b 708 425 592 396 640 425 b 853 294 789 425 853 375 b 811 178 853 254 838 215 l 756 104 l 836 104 b 850 92 843 104 850 99 l 850 13 b 836 0 850 6 843 0 l 565 0 b 551 13 557 0 551 6 "},"⅓":{"ha":933,"x_min":0,"x_max":0,"o":"m 617 958 b 640 972 621 967 629 972 l 718 972 b 742 935 739 972 751 953 l 263 14 b 239 0 260 8 253 0 l 163 0 b 139 38 142 0 129 19 m 165 561 b 151 574 157 561 151 567 l 151 829 l 76 829 b 65 844 69 829 65 836 l 65 897 b 76 913 65 904 69 908 l 182 972 l 269 972 b 282 960 276 972 282 967 l 282 574 b 269 561 282 567 276 561 l 165 561 m 600 104 b 628 110 607 114 615 117 b 678 94 628 110 647 94 b 724 128 711 94 724 107 b 678 163 724 147 708 163 l 632 163 b 614 185 621 164 614 167 l 614 232 b 639 256 614 249 624 256 l 678 256 b 717 289 699 256 717 268 b 676 319 717 307 701 319 b 635 304 660 319 646 313 b 611 310 626 299 621 296 l 575 358 b 576 388 565 371 569 381 b 697 425 576 388 619 425 b 850 310 790 425 850 381 b 779 213 850 258 813 229 b 863 106 811 200 863 171 b 697 -14 863 26 783 -14 b 572 26 622 -14 583 18 b 568 57 561 35 560 44 "},"¼":{"ha":925,"x_min":0,"x_max":0,"o":"m 617 958 b 640 972 621 967 629 972 l 718 972 b 742 935 739 972 751 953 l 263 14 b 239 0 260 8 253 0 l 163 0 b 139 38 142 0 129 19 m 165 561 b 151 574 157 561 151 567 l 151 829 l 76 829 b 65 844 69 829 65 836 l 65 897 b 76 913 65 904 69 908 l 182 972 l 269 972 b 282 960 276 972 282 967 l 282 574 b 269 561 282 567 276 561 l 165 561 m 476 175 l 669 407 b 679 411 671 410 676 411 l 778 411 b 790 399 785 411 790 406 l 790 172 l 844 172 b 857 161 851 172 857 167 l 857 90 b 844 78 857 83 851 78 l 790 78 l 790 13 b 778 0 790 6 785 0 l 683 0 b 669 13 676 0 669 6 l 669 78 l 489 78 b 476 89 482 78 476 83 m 671 169 l 671 260 l 600 169 "},"⅛":{"ha":954,"x_min":0,"x_max":0,"o":"m 617 958 b 640 972 621 967 629 972 l 718 972 b 742 935 739 972 751 953 l 263 14 b 239 0 260 8 253 0 l 163 0 b 139 38 142 0 129 19 m 165 561 b 151 574 157 561 151 567 l 151 829 l 76 829 b 65 844 69 829 65 836 l 65 897 b 76 913 65 904 69 908 l 182 972 l 269 972 b 282 960 276 972 282 967 l 282 574 b 269 561 282 567 276 561 l 165 561 m 535 107 b 619 213 535 176 614 211 l 619 214 b 547 311 593 224 547 254 b 708 426 547 382 622 426 b 872 311 799 426 872 382 b 800 214 872 256 828 222 l 800 213 b 886 107 835 204 886 174 b 708 -12 886 39 815 -12 b 535 107 604 -12 535 39 m 676 292 b 710 260 676 274 693 260 b 742 292 726 260 742 274 b 710 325 742 310 726 325 b 676 292 693 325 676 310 m 671 124 b 711 86 671 101 692 86 b 750 124 729 86 750 99 b 711 163 750 144 735 163 b 671 124 690 163 671 144 "},"⅔":{"ha":1001,"x_min":0,"x_max":0,"o":"m 82 561 b 68 574 74 561 68 567 l 68 599 l 210 769 b 238 835 229 794 238 818 b 194 875 238 863 217 875 b 146 854 174 875 153 861 b 121 860 138 849 128 847 l 90 910 b 96 947 81 926 75 932 b 225 986 108 957 157 986 b 369 856 306 986 369 936 b 328 739 369 815 354 776 l 272 665 l 353 665 b 367 653 360 665 367 660 l 367 574 b 353 561 367 567 360 561 l 82 561 m 688 958 b 711 972 692 967 700 972 l 789 972 b 813 935 810 972 822 953 l 333 14 b 310 0 331 8 324 0 l 233 0 b 210 38 213 0 200 19 m 671 104 b 699 110 678 114 686 117 b 749 94 699 110 718 94 b 794 128 782 94 794 107 b 749 163 794 147 779 163 l 703 163 b 685 185 692 164 685 167 l 685 232 b 710 256 685 249 694 256 l 749 256 b 788 289 769 256 788 268 b 747 319 788 307 772 319 b 706 304 731 319 717 313 b 682 310 697 299 692 296 l 646 358 b 647 388 636 371 640 381 b 768 425 647 388 690 425 b 921 310 861 425 921 381 b 850 213 921 258 883 229 b 933 106 882 200 933 171 b 768 -14 933 26 854 -14 b 643 26 693 -14 654 18 b 639 57 632 35 631 44 "},"¾":{"ha":958,"x_min":0,"x_max":0,"o":"m 206 547 b 81 588 131 547 92 579 b 76 618 69 596 68 606 l 108 665 b 136 671 115 675 124 678 b 186 656 136 671 156 656 b 232 689 219 656 232 668 b 186 724 232 708 217 724 l 140 724 b 122 746 129 725 122 728 l 122 793 b 147 817 122 810 132 817 l 186 817 b 225 850 207 817 225 829 b 185 881 225 868 210 881 b 143 865 168 881 154 874 b 119 871 135 860 129 857 l 83 919 b 85 949 74 932 78 942 b 206 986 85 949 128 986 b 358 871 299 986 358 942 b 288 774 358 819 321 790 b 371 667 319 761 371 732 b 206 547 371 588 292 547 m 651 958 b 675 972 656 967 664 972 l 753 972 b 776 935 774 972 786 953 l 297 14 b 274 0 294 8 288 0 l 197 0 b 174 38 176 0 164 19 m 511 175 l 704 407 b 714 411 706 410 711 411 l 813 411 b 825 399 819 411 825 406 l 825 172 l 879 172 b 892 161 886 172 892 167 l 892 90 b 879 78 892 83 886 78 l 825 78 l 825 13 b 813 0 825 6 819 0 l 718 0 b 704 13 711 0 704 6 l 704 78 l 524 78 b 511 89 517 78 511 83 m 706 169 l 706 260 l 635 169 "},"⅜":{"ha":986,"x_min":0,"x_max":0,"o":"m 206 547 b 81 588 131 547 92 579 b 76 618 69 596 68 606 l 108 665 b 136 671 115 675 124 678 b 186 656 136 671 156 656 b 232 689 219 656 232 668 b 186 724 232 708 217 724 l 140 724 b 122 746 129 725 122 728 l 122 793 b 147 817 122 810 132 817 l 186 817 b 225 850 207 817 225 829 b 185 881 225 868 210 881 b 143 865 168 881 154 874 b 119 871 135 860 129 857 l 83 919 b 85 949 74 932 78 942 b 206 986 85 949 128 986 b 358 871 299 986 358 942 b 288 774 358 819 321 790 b 371 667 319 761 371 732 b 206 547 371 588 292 547 m 651 958 b 675 972 656 967 664 972 l 753 972 b 776 935 774 972 786 953 l 297 14 b 274 0 294 8 288 0 l 197 0 b 174 38 176 0 164 19 m 568 107 b 653 213 568 176 647 211 l 653 214 b 581 311 626 224 581 254 b 742 426 581 382 656 426 b 906 311 832 426 906 382 b 833 214 906 256 861 222 l 833 213 b 919 107 868 204 919 174 b 742 -12 919 39 849 -12 b 568 107 638 -12 568 39 m 710 292 b 743 260 710 274 726 260 b 775 292 760 260 775 274 b 743 325 775 310 760 325 b 710 292 726 325 710 310 m 704 124 b 744 86 704 101 725 86 b 783 124 763 86 783 99 b 744 163 783 144 768 163 b 704 124 724 163 704 144 "},"⅝":{"ha":1003,"x_min":0,"x_max":0,"o":"m 668 958 b 692 972 672 967 681 972 l 769 972 b 793 935 790 972 803 953 l 314 14 b 290 0 311 8 304 0 l 214 0 b 190 38 193 0 181 19 m 211 547 b 78 600 142 547 94 581 b 76 621 72 606 71 613 l 118 675 b 142 681 126 688 135 688 b 213 656 142 681 168 656 b 261 694 235 656 261 669 b 208 735 261 719 239 735 l 108 735 b 86 756 94 735 86 746 l 86 960 b 100 972 86 967 92 972 l 324 972 b 338 960 332 972 338 967 l 338 886 b 324 874 338 879 332 874 l 190 874 l 190 833 l 231 833 b 389 696 329 833 389 785 b 211 547 389 608 319 547 m 585 107 b 669 213 585 176 664 211 l 669 214 b 597 311 643 224 597 254 b 758 426 597 382 672 426 b 922 311 849 426 922 382 b 850 214 922 256 878 222 l 850 213 b 936 107 885 204 936 174 b 758 -12 936 39 865 -12 b 585 107 654 -12 585 39 m 726 292 b 760 260 726 274 743 260 b 792 292 776 260 792 274 b 760 325 792 310 776 325 b 726 292 743 325 726 310 m 721 124 b 761 86 721 101 742 86 b 800 124 779 86 800 99 b 761 163 800 144 785 163 b 721 124 740 163 721 144 "},"⅞":{"ha":958,"x_min":0,"x_max":0,"o":"m 624 958 b 647 972 628 967 636 972 l 725 972 b 749 935 746 972 758 953 l 269 14 b 246 0 267 8 260 0 l 169 0 b 146 38 149 0 136 19 m 96 561 b 78 574 85 561 78 564 l 78 581 l 228 869 l 100 869 b 86 881 93 869 86 875 l 86 960 b 100 972 86 967 93 972 l 375 972 b 389 960 382 972 389 967 l 389 938 l 213 574 b 190 561 207 564 200 561 l 96 561 m 540 107 b 625 213 540 176 619 211 l 625 214 b 553 311 599 224 553 254 b 714 426 553 382 628 426 b 878 311 804 426 878 382 b 806 214 878 256 833 222 l 806 213 b 892 107 840 204 892 174 b 714 -12 892 39 821 -12 b 540 107 610 -12 540 39 m 682 292 b 715 260 682 274 699 260 b 747 292 732 260 747 274 b 715 325 747 310 732 325 b 682 292 699 325 682 310 m 676 124 b 717 86 676 101 697 86 b 756 124 735 86 756 99 b 717 163 756 144 740 163 b 676 124 696 163 676 144 "},"‰":{"ha":1386,"x_min":0,"x_max":0,"o":"m 257 613 b 69 800 153 613 69 696 b 257 988 69 904 153 988 b 444 800 360 988 444 904 b 257 613 444 696 360 613 m 649 958 b 672 972 654 968 665 972 l 778 972 b 801 935 799 972 811 953 l 322 14 b 299 0 318 8 306 0 l 196 0 b 172 38 175 0 163 19 m 257 751 b 304 800 282 751 304 774 b 257 847 304 825 282 847 b 208 800 231 847 208 825 b 257 751 208 774 231 751 m 951 174 b 1139 361 951 278 1036 361 b 1328 174 1243 361 1328 278 b 1139 -14 1328 71 1243 -14 b 951 174 1036 -14 951 71 m 535 174 b 722 361 535 278 619 361 b 911 174 826 361 911 278 b 722 -14 911 71 826 -14 b 535 174 619 -14 535 71 m 1092 174 b 1139 126 1092 149 1114 126 b 1188 174 1165 126 1188 149 b 1139 222 1188 200 1165 222 b 1092 174 1114 222 1092 200 m 675 174 b 722 126 675 149 697 126 b 771 174 749 126 771 149 b 722 222 771 200 749 222 b 675 174 697 222 675 200 "},"−":{"ha":833,"x_min":0,"x_max":0,"o":"m 139 407 b 113 433 125 407 113 419 l 113 531 b 139 557 113 544 125 557 l 696 557 b 721 531 710 557 721 544 l 721 433 b 696 407 721 419 710 407 l 139 407 "},"±":{"ha":833,"x_min":0,"x_max":0,"o":"m 369 332 b 343 357 356 332 343 343 l 343 490 l 140 490 b 114 517 126 490 114 503 l 114 614 b 140 640 114 628 126 640 l 343 640 l 343 844 b 369 869 343 858 356 869 l 467 869 b 493 844 481 869 493 858 l 493 640 l 697 640 b 722 614 711 640 722 628 l 722 517 b 697 490 722 503 711 490 l 493 490 l 493 357 b 467 332 493 343 481 332 l 369 332 m 128 178 b 154 204 128 192 140 204 l 674 204 b 699 178 688 204 699 192 l 699 81 b 674 54 699 67 688 54 l 154 54 b 128 81 140 54 128 67 "},"×":{"ha":833,"x_min":0,"x_max":0,"o":"m 167 303 b 167 339 157 313 157 329 l 310 482 l 167 626 b 167 663 157 636 157 653 l 235 732 b 272 732 244 742 263 742 l 415 589 l 560 733 b 596 732 569 743 586 742 l 665 663 b 667 626 675 653 676 636 l 522 482 l 667 338 b 665 301 676 328 675 311 l 596 233 b 560 232 586 224 569 222 l 415 376 l 272 233 b 236 233 263 224 246 224 "},"÷":{"ha":833,"x_min":0,"x_max":0,"o":"m 413 654 b 310 758 356 654 310 701 b 413 861 310 815 356 861 b 517 758 469 861 517 815 b 413 654 517 701 469 654 m 139 406 b 113 432 125 406 113 418 l 113 529 b 139 556 113 543 125 556 l 696 556 b 721 529 710 556 721 543 l 721 432 b 696 406 721 418 710 406 l 139 406 m 308 214 b 411 317 308 271 354 317 b 515 214 468 317 515 271 b 411 110 515 157 468 110 b 308 214 354 110 308 157 "},"≠":{"ha":833,"x_min":0,"x_max":0,"o":"m 256 67 b 242 100 243 72 236 88 l 272 167 l 179 167 b 153 193 164 167 153 179 l 153 292 b 179 318 153 306 164 318 l 343 318 l 408 460 l 179 460 b 153 486 164 460 153 472 l 153 583 b 179 610 153 597 164 610 l 478 610 l 526 713 b 561 725 532 726 549 731 l 582 714 b 594 681 596 710 601 694 l 561 610 l 650 610 b 676 583 665 610 676 597 l 676 486 b 650 460 676 472 665 460 l 492 460 l 426 318 l 650 318 b 676 292 665 318 676 306 l 676 193 b 650 167 676 179 665 167 l 357 167 l 311 67 b 276 56 306 54 289 50 l 256 67 "},"≈":{"ha":833,"x_min":0,"x_max":0,"o":"m 149 486 b 147 513 143 494 140 506 b 325 628 147 513 224 628 b 432 581 371 628 400 603 b 514 543 457 565 482 543 b 589 604 544 543 574 582 b 622 606 599 615 611 615 l 683 550 b 685 522 689 543 692 531 b 511 408 685 522 611 408 b 393 463 456 408 429 438 b 325 492 371 476 351 492 b 246 432 294 492 261 454 b 214 429 238 419 222 419 m 149 214 b 147 240 143 222 140 233 b 325 356 147 240 224 356 b 432 308 371 356 400 331 b 514 271 457 293 482 271 b 589 332 544 271 574 310 b 622 333 599 343 611 343 l 683 278 b 685 250 689 271 692 258 b 511 136 685 250 611 136 b 393 190 456 136 429 165 b 325 219 371 204 351 219 b 246 160 294 219 261 182 b 214 157 238 147 222 147 "},"≤":{"ha":833,"x_min":0,"x_max":0,"o":"m 129 532 b 115 556 122 536 115 540 l 115 576 b 129 600 115 589 122 596 l 653 853 b 692 831 672 863 692 853 l 692 710 b 681 690 692 700 686 693 l 392 568 l 681 451 b 692 432 686 449 692 442 l 692 311 b 653 289 692 289 671 278 l 129 532 m 147 54 b 121 81 133 54 121 67 l 121 178 b 147 204 121 192 133 204 l 667 204 b 692 178 681 204 692 192 l 692 81 b 667 54 692 67 681 54 l 147 54 "},"≥":{"ha":833,"x_min":0,"x_max":0,"o":"m 181 289 b 142 311 163 278 142 289 l 142 432 b 153 451 142 442 147 449 l 442 568 l 153 690 b 142 710 147 693 142 700 l 142 831 b 181 853 142 853 161 863 l 704 600 b 718 576 711 596 718 589 l 718 556 b 704 532 718 540 711 536 l 181 289 m 167 54 b 142 81 153 54 142 67 l 142 178 b 167 204 142 192 153 204 l 686 204 b 713 178 700 204 713 192 l 713 81 b 686 54 713 67 700 54 l 167 54 "},"¬":{"ha":794,"x_min":0,"x_max":0,"o":"m 108 407 b 82 433 94 407 82 419 l 82 531 b 108 557 82 544 94 557 l 664 557 b 690 531 679 557 690 543 l 690 203 b 664 178 690 189 678 178 l 567 178 b 540 203 553 178 540 189 l 540 407 l 108 407 "},"∆":{"ha":1028,"x_min":0,"x_max":0,"o":"m 485 971 b 508 986 489 979 499 986 l 522 986 b 546 971 532 986 542 979 l 968 60 b 940 0 982 29 972 0 l 101 0 b 61 63 65 0 40 18 m 681 201 l 513 563 l 511 563 l 350 200 "},"Δ":{"ha":1028,"x_min":0,"x_max":0,"o":"m 485 971 b 508 986 489 979 499 986 l 522 986 b 546 971 532 986 542 979 l 968 60 b 940 0 982 29 972 0 l 101 0 b 61 63 65 0 40 18 m 681 201 l 513 563 l 511 563 l 350 200 "},"Ω":{"ha":1161,"x_min":0,"x_max":0,"o":"m 75 178 b 101 204 75 192 86 204 l 208 204 b 81 497 135 257 81 392 b 581 986 81 775 303 986 b 1081 497 858 986 1081 775 b 953 204 1081 392 1026 257 l 1060 204 b 1086 178 1075 204 1086 192 l 1086 26 b 1060 0 1086 13 1075 0 l 672 0 b 646 26 657 0 646 13 l 646 117 b 685 181 646 161 658 165 b 858 485 801 250 858 375 b 581 764 858 638 733 764 b 303 485 428 764 303 638 b 476 181 303 375 360 250 b 515 117 503 165 515 161 l 515 26 b 489 0 515 13 504 0 l 101 0 b 75 26 86 0 75 13 "},"Ω":{"ha":1161,"x_min":0,"x_max":0,"o":"m 75 178 b 101 204 75 192 86 204 l 208 204 b 81 497 135 257 81 392 b 581 986 81 775 303 986 b 1081 497 858 986 1081 775 b 953 204 1081 392 1026 257 l 1060 204 b 1086 178 1075 204 1086 192 l 1086 26 b 1060 0 1086 13 1075 0 l 672 0 b 646 26 657 0 646 13 l 646 117 b 685 181 646 161 658 165 b 858 485 801 250 858 375 b 581 764 858 638 733 764 b 303 485 428 764 303 638 b 476 181 303 375 360 250 b 515 117 503 165 515 161 l 515 26 b 489 0 515 13 504 0 l 101 0 b 75 26 86 0 75 13 "},"µ":{"ha":774,"x_min":0,"x_max":0,"o":"m 103 611 b 132 642 103 629 117 642 l 283 642 b 314 611 300 642 314 629 l 314 306 b 400 183 314 233 335 183 b 488 294 463 183 488 238 l 488 611 b 522 642 488 638 507 642 l 668 642 b 699 611 685 642 699 629 l 699 31 b 668 0 699 14 685 0 l 604 0 b 574 22 590 0 579 11 l 551 82 b 351 -15 513 42 475 -15 b 314 -12 338 -15 325 -14 l 314 -300 b 283 -331 314 -317 300 -331 l 133 -331 b 103 -300 117 -331 103 -317 "},"μ":{"ha":774,"x_min":0,"x_max":0,"o":"m 103 611 b 132 642 103 629 117 642 l 283 642 b 314 611 300 642 314 629 l 314 306 b 400 183 314 233 335 183 b 488 294 463 183 488 238 l 488 611 b 522 642 488 638 507 642 l 668 642 b 699 611 685 642 699 629 l 699 31 b 668 0 699 14 685 0 l 604 0 b 574 22 590 0 579 11 l 551 82 b 351 -15 513 42 475 -15 b 314 -12 338 -15 325 -14 l 314 -300 b 283 -331 314 -317 300 -331 l 133 -331 b 103 -300 117 -331 103 -317 "},"π":{"ha":967,"x_min":0,"x_max":0,"o":"m 176 451 l 56 451 b 25 482 38 451 25 465 l 25 611 b 56 642 25 629 38 642 l 911 642 b 942 611 929 642 942 629 l 942 482 b 911 451 942 465 929 451 l 778 451 l 778 31 b 747 0 778 14 764 0 l 597 0 b 567 31 582 0 567 14 l 567 451 l 389 451 l 389 31 b 358 0 389 14 374 0 l 207 0 b 176 31 192 0 176 14 "},"°":{"ha":450,"x_min":0,"x_max":0,"o":"m 225 611 b 38 799 121 611 38 694 b 225 986 38 903 121 986 b 413 799 328 986 413 903 b 225 611 413 694 328 611 m 225 750 b 272 799 250 750 272 772 b 225 846 272 824 250 846 b 176 799 199 846 176 824 b 225 750 176 772 199 750 "},"ℓ":{"ha":664,"x_min":0,"x_max":0,"o":"m 132 217 b 136 285 132 240 133 263 b 79 271 119 281 93 272 b 58 288 67 268 60 275 l 51 350 b 74 379 50 360 46 374 b 158 400 103 385 131 390 b 179 513 165 439 171 474 b 469 986 235 815 324 986 b 635 793 574 986 635 911 b 247 322 635 551 447 399 b 236 219 240 288 236 254 b 332 92 236 154 264 92 b 531 151 400 92 464 111 b 571 144 554 165 561 164 l 593 111 b 590 69 606 89 607 88 b 332 -14 571 57 463 -14 b 132 217 192 -14 132 97 m 271 431 b 531 793 421 499 531 619 b 469 881 531 849 507 881 b 282 494 386 881 324 733 l 271 431 "},"℮":{"ha":1158,"x_min":0,"x_max":0,"o":"m 269 239 b 589 88 338 144 463 88 b 861 197 682 88 782 129 b 904 201 876 211 888 218 l 938 165 b 928 121 950 151 946 139 b 589 -14 832 31 714 -14 b 85 485 307 -14 85 204 b 589 986 85 767 307 986 b 1093 479 868 986 1090 761 b 1057 435 1093 444 1085 435 l 269 435 l 269 239 m 910 533 l 910 731 b 589 883 836 824 719 883 b 269 733 454 883 342 829 l 269 533 "},"ŋ":{"ha":763,"x_min":0,"x_max":0,"o":"m 481 340 b 388 458 481 401 460 458 b 290 349 324 458 290 414 l 290 31 b 261 0 290 17 283 0 l 108 0 b 78 31 92 0 78 14 l 78 611 b 108 642 78 629 92 642 l 171 642 b 200 622 181 642 193 635 l 224 558 b 424 656 261 596 307 656 b 692 338 624 656 692 514 l 692 29 b 456 -340 692 -168 579 -308 b 388 -317 417 -350 399 -343 l 347 -215 b 369 -168 336 -186 356 -174 b 481 -22 426 -146 481 -107 "},"Ŋ":{"ha":1054,"x_min":0,"x_max":0,"o":"m 725 142 l 329 544 l 328 544 l 328 26 b 301 0 328 13 317 0 l 136 0 b 110 26 122 0 110 13 l 110 961 b 136 986 110 975 122 986 l 157 986 b 181 976 167 986 174 983 l 724 444 l 725 444 l 725 946 b 751 972 725 960 736 972 l 918 972 b 944 946 932 972 944 960 l 943 -6 b 708 -340 943 -203 832 -308 b 640 -317 669 -350 651 -343 l 600 -215 b 614 -168 589 -186 600 -174 b 725 -22 671 -146 725 -107 "},"∞":{"ha":831,"x_min":0,"x_max":0,"o":"m 272 217 b 78 411 165 217 78 304 b 272 606 78 519 165 606 b 414 536 328 606 379 574 b 557 606 450 574 501 606 b 753 411 665 606 753 519 b 557 217 753 304 665 217 b 414 286 501 217 450 247 b 272 217 379 247 328 217 m 497 411 b 550 358 497 382 521 358 b 604 411 581 358 604 382 b 550 465 604 442 581 465 b 497 411 521 465 497 442 m 279 358 b 333 411 310 358 333 382 b 279 465 333 442 310 465 b 226 411 250 465 226 442 b 279 358 226 382 250 358 "},"∂":{"ha":824,"x_min":0,"x_max":0,"o":"m 74 314 b 358 624 74 525 225 624 b 494 594 397 624 458 611 b 207 829 465 743 275 808 b 181 871 179 839 175 854 l 222 982 b 267 1004 229 1001 244 1011 b 747 375 389 965 747 796 b 401 -14 747 151 624 -14 b 74 314 224 -14 74 133 m 268 321 b 404 183 268 246 329 183 b 542 321 481 183 542 246 b 404 460 542 396 481 460 b 268 321 329 460 268 396 "},"∫":{"ha":699,"x_min":0,"x_max":0,"o":"m 243 685 b 540 986 243 875 363 986 b 694 933 621 986 672 951 b 700 899 703 925 707 910 l 633 789 b 601 779 626 778 613 774 b 543 794 601 779 567 794 b 456 683 493 794 456 760 l 456 -44 b 158 -346 456 -235 328 -346 b 4 -293 78 -346 26 -311 b -1 -258 -4 -285 -8 -269 l 65 -149 b 97 -139 72 -137 86 -133 b 156 -154 97 -139 132 -154 b 243 -43 204 -154 243 -119 "},"√":{"ha":915,"x_min":0,"x_max":0,"o":"m 28 519 b 51 556 19 538 31 556 l 208 556 b 232 540 219 556 229 547 l 297 393 l 306 393 l 563 957 b 586 972 565 964 575 972 l 871 972 b 897 946 886 972 897 961 l 897 822 b 871 796 897 808 886 796 l 701 796 l 331 1 b 307 -14 326 -7 314 -14 l 293 -14 b 269 1 286 -14 274 -7 "},"∑":{"ha":792,"x_min":0,"x_max":0,"o":"m 72 94 l 440 490 l 72 889 l 72 946 b 99 972 72 960 83 972 l 674 972 b 700 946 689 972 700 960 l 700 794 b 674 768 700 781 689 768 l 418 768 l 606 596 b 632 539 615 586 632 569 l 632 443 b 606 392 632 417 615 401 l 418 204 l 674 204 b 700 178 689 204 700 192 l 700 26 b 674 0 700 13 689 0 l 99 0 b 72 26 83 0 72 13 "},"∏":{"ha":1081,"x_min":0,"x_max":0,"o":"m 124 946 b 150 972 124 960 136 972 l 931 972 b 957 946 944 972 957 960 l 957 26 b 931 0 957 13 944 0 l 765 0 b 739 26 750 0 739 13 l 739 768 l 342 768 l 342 26 b 315 0 342 13 331 0 l 150 0 b 124 26 136 0 124 13 "},"◊":{"ha":921,"x_min":0,"x_max":0,"o":"m 86 436 b 94 556 61 467 61 515 l 429 971 b 453 986 433 979 443 986 l 467 986 b 490 971 476 986 486 979 l 826 556 b 825 429 858 517 863 475 l 490 1 b 467 -14 486 -7 476 -14 l 453 -14 b 429 1 443 -14 433 -7 l 86 436 m 460 275 l 632 493 l 460 711 l 458 711 l 286 493 l 458 275 "},"":{"ha":832,"x_min":0,"x_max":0,"o":"m 69 931 b 111 972 69 960 82 972 l 721 972 b 763 931 750 972 763 960 l 763 42 b 721 0 763 13 750 0 l 111 0 b 69 42 82 0 69 13 m 364 436 b 383 419 364 426 374 419 l 433 419 b 454 438 446 419 454 425 l 454 474 b 600 682 454 540 600 561 b 426 836 600 772 525 836 b 246 751 306 836 246 751 b 246 726 240 743 238 733 l 276 696 b 300 696 285 690 292 690 b 417 753 318 713 350 753 b 501 681 472 753 501 718 b 364 476 501 593 364 581 l 364 436 m 340 217 b 407 150 340 181 371 150 b 475 217 444 150 475 181 b 407 283 475 253 444 283 b 340 217 371 283 340 253 "},"⁰":{"ha":453,"x_min":0,"x_max":0,"o":"m 226 686 b 44 906 110 686 44 769 b 226 1125 44 1043 110 1125 b 408 906 343 1125 408 1043 b 226 686 408 769 343 686 m 226 797 b 269 906 254 797 269 829 b 226 1014 269 983 254 1014 b 183 906 199 1014 183 983 b 226 797 183 829 199 797 "},"⁴":{"ha":451,"x_min":0,"x_max":0,"o":"m 238 700 b 224 713 231 700 224 706 l 224 778 l 43 778 b 31 789 36 778 31 783 l 31 875 l 224 1107 b 233 1111 225 1110 231 1111 l 332 1111 b 344 1099 339 1111 344 1106 l 344 872 l 399 872 b 411 861 406 872 411 867 l 411 790 b 399 778 411 783 406 778 l 344 778 l 344 713 b 332 700 344 706 339 700 l 238 700 m 225 869 l 225 960 l 144 869 "},"⁵":{"ha":401,"x_min":0,"x_max":0,"o":"m 183 686 b 50 739 114 686 67 719 b 49 760 44 744 43 751 l 90 814 b 114 819 99 826 107 826 b 185 794 114 819 140 794 b 233 833 207 794 233 808 b 181 874 233 858 211 874 l 81 874 b 58 894 67 874 58 885 l 58 1099 b 72 1111 58 1106 64 1111 l 296 1111 b 310 1099 304 1111 310 1106 l 310 1025 b 296 1013 310 1018 304 1013 l 163 1013 l 163 972 l 203 972 b 361 835 301 972 361 924 b 183 686 361 747 292 686 "},"⁶":{"ha":411,"x_min":0,"x_max":0,"o":"m 211 686 b 40 851 106 686 40 756 b 275 1131 40 1040 225 1115 b 303 1118 289 1135 299 1129 l 324 1063 b 311 1039 326 1054 325 1043 b 176 949 278 1029 197 996 b 246 965 176 949 200 965 b 372 831 307 965 372 921 b 211 686 372 751 299 686 m 211 797 b 251 838 233 797 251 814 b 211 879 251 861 233 879 b 169 838 189 879 169 861 b 211 797 169 814 189 797 "},"⁷":{"ha":372,"x_min":0,"x_max":0,"o":"m 58 700 b 40 713 47 700 40 703 l 40 719 l 190 1008 l 63 1008 b 49 1019 56 1008 49 1014 l 49 1099 b 63 1111 49 1106 56 1111 l 338 1111 b 351 1099 344 1111 351 1106 l 351 1076 l 175 713 b 153 700 169 703 163 700 l 58 700 "},"⁸":{"ha":438,"x_min":0,"x_max":0,"o":"m 217 686 b 43 806 113 686 43 738 b 128 911 43 875 122 910 l 128 913 b 56 1010 101 922 56 953 b 217 1125 56 1081 131 1125 b 381 1010 307 1125 381 1081 b 308 913 381 954 336 921 l 308 911 b 394 806 343 903 394 872 b 217 686 394 738 324 686 m 218 956 b 253 990 236 956 253 971 b 218 1026 253 1010 236 1026 b 182 990 200 1026 182 1010 b 218 956 182 971 200 956 m 219 781 b 263 822 239 781 263 794 b 219 865 263 844 246 865 b 175 822 197 865 175 844 b 219 781 175 797 199 781 "},"⁹":{"ha":411,"x_min":0,"x_max":0,"o":"m 136 681 b 108 693 122 676 113 682 l 88 749 b 100 772 85 757 86 768 b 235 863 133 782 214 815 b 160 846 235 863 211 846 b 39 981 104 846 39 893 b 200 1125 39 1060 113 1125 b 371 960 306 1125 371 1056 b 136 681 371 771 186 696 m 200 932 b 242 974 222 932 242 950 b 200 1014 242 997 222 1014 b 160 974 178 1014 160 997 b 200 932 160 950 178 932 "},"₀":{"ha":453,"x_min":0,"x_max":0,"o":"m 44 -3 b 226 217 44 135 110 217 b 408 -3 343 217 408 135 b 226 -222 408 -139 343 -222 b 44 -3 110 -222 44 -139 m 183 -3 b 226 -111 183 -79 199 -111 b 269 -3 254 -111 269 -79 b 226 106 269 75 254 106 b 183 -3 199 106 183 75 "},"₁":{"ha":306,"x_min":0,"x_max":0,"o":"m 42 60 b 31 75 35 60 31 67 l 31 128 b 42 143 31 135 35 139 l 147 203 l 235 203 b 247 190 242 203 247 197 l 247 -196 b 235 -208 247 -203 242 -208 l 131 -208 b 117 -196 122 -208 117 -203 l 117 60 l 42 60 "},"₂":{"ha":386,"x_min":0,"x_max":0,"o":"m 57 140 b 63 178 47 157 42 163 b 192 217 75 188 124 217 b 336 86 272 217 336 167 b 294 -31 336 46 321 7 l 239 -104 l 319 -104 b 333 -117 326 -104 333 -110 l 333 -196 b 319 -208 333 -203 326 -208 l 49 -208 b 35 -196 40 -208 35 -203 l 35 -171 l 176 0 b 204 65 196 25 204 49 b 161 106 204 93 183 106 b 113 85 140 106 119 92 b 88 90 104 79 94 78 "},"₃":{"ha":381,"x_min":0,"x_max":0,"o":"m 89 24 b 114 47 89 40 99 47 l 153 47 b 192 81 174 47 192 60 b 151 111 192 99 176 111 b 110 96 135 111 121 104 b 86 101 101 90 96 88 l 50 150 b 51 179 40 163 44 172 b 172 217 51 179 94 217 b 325 101 265 217 325 172 b 254 4 325 50 288 21 b 338 -103 286 -8 338 -37 b 172 -222 338 -182 258 -222 b 47 -182 97 -222 58 -190 b 43 -151 36 -174 35 -164 l 75 -104 b 103 -99 82 -94 90 -92 b 153 -114 103 -99 122 -114 b 199 -81 186 -114 199 -101 b 153 -46 199 -61 183 -46 l 107 -46 b 89 -24 96 -44 89 -42 l 89 24 "},"₄":{"ha":453,"x_min":0,"x_max":0,"o":"m 225 199 b 235 203 226 201 232 203 l 333 203 b 346 190 340 203 346 197 l 346 -36 l 400 -36 b 413 -47 407 -36 413 -42 l 413 -118 b 400 -131 413 -125 407 -131 l 346 -131 l 346 -196 b 333 -208 346 -203 340 -208 l 239 -208 b 225 -196 232 -208 225 -203 l 225 -131 l 44 -131 b 32 -119 38 -131 32 -125 l 32 -33 m 226 -39 l 226 51 l 146 -39 "},"₅":{"ha":401,"x_min":0,"x_max":0,"o":"m 58 190 b 72 203 58 197 64 203 l 296 203 b 310 190 304 203 310 197 l 310 117 b 296 104 310 110 304 104 l 163 104 l 163 64 l 203 64 b 361 -74 301 64 361 15 b 183 -222 361 -161 292 -222 b 50 -169 114 -222 67 -189 b 49 -149 44 -164 43 -157 l 90 -94 b 114 -89 99 -82 107 -82 b 185 -114 114 -89 140 -114 b 233 -75 207 -114 233 -100 b 181 -35 233 -50 211 -35 l 81 -35 b 58 -14 67 -35 58 -24 "},"₆":{"ha":411,"x_min":0,"x_max":0,"o":"m 40 -57 b 275 222 40 132 225 207 b 303 210 289 226 299 221 l 324 154 b 311 131 326 146 325 135 b 176 40 278 121 197 88 b 246 57 176 40 200 57 b 372 -78 307 57 372 13 b 211 -222 372 -157 299 -222 b 40 -57 106 -222 40 -153 m 169 -71 b 211 -111 169 -94 189 -111 b 251 -71 233 -111 251 -94 b 211 -29 251 -47 233 -29 b 169 -71 189 -29 169 -47 "},"₇":{"ha":372,"x_min":0,"x_max":0,"o":"m 49 190 b 63 203 49 197 56 203 l 338 203 b 351 190 344 203 351 197 l 351 168 l 175 -196 b 153 -208 169 -206 163 -208 l 58 -208 b 40 -196 47 -208 40 -206 l 40 -189 l 190 100 l 63 100 b 49 111 56 100 49 106 "},"₈":{"ha":438,"x_min":0,"x_max":0,"o":"m 43 -103 b 128 3 43 -33 122 1 l 128 4 b 56 101 101 14 56 44 b 217 217 56 172 131 217 b 381 101 307 217 381 172 b 308 4 381 46 336 13 l 308 3 b 394 -103 343 -6 394 -36 b 217 -222 394 -171 324 -222 b 43 -103 113 -222 43 -171 m 182 82 b 218 47 182 63 200 47 b 253 82 236 47 253 63 b 218 118 253 101 236 118 b 182 82 200 118 182 101 m 175 -86 b 219 -128 175 -111 199 -128 b 263 -86 239 -128 263 -114 b 219 -43 263 -64 246 -43 b 175 -86 197 -43 175 -64 "},"₉":{"ha":411,"x_min":0,"x_max":0,"o":"m 39 72 b 200 217 39 151 113 217 b 371 51 306 217 371 147 b 136 -228 371 -137 186 -212 b 108 -215 122 -232 113 -226 l 88 -160 b 100 -136 85 -151 86 -140 b 235 -46 133 -126 214 -93 b 160 -62 235 -46 211 -62 b 39 72 104 -62 39 -15 m 160 65 b 200 24 160 42 178 24 b 242 65 222 24 242 42 b 200 106 242 89 222 106 b 160 65 178 106 160 89 "},"¦":{"ha":244,"x_min":0,"x_max":0,"o":"m 111 544 b 85 569 97 544 85 556 l 85 1029 b 111 1056 85 1044 97 1056 l 135 1056 b 160 1029 149 1056 160 1044 l 160 569 b 133 544 160 556 147 544 l 111 544 m 85 154 b 111 181 85 169 97 181 l 135 181 b 160 154 149 181 160 169 l 160 -306 b 133 -331 160 -319 147 -331 l 111 -331 b 85 -306 97 -331 85 -319 l 85 154 "},"q":{"ha":800,"x_min":0,"x_max":0,"o":"m 43 322 b 360 656 43 506 179 656 b 576 557 501 656 576 557 l 594 610 b 628 642 600 626 613 642 l 690 642 b 721 611 707 642 721 626 l 721 -300 b 690 -331 721 -317 707 -331 l 540 -331 b 510 -300 524 -331 510 -317 l 510 24 b 361 -15 489 7 421 -15 b 43 322 190 -15 43 96 m 256 321 b 392 183 256 243 315 183 b 528 321 471 183 528 243 b 392 458 528 397 471 458 b 256 321 315 458 256 397 "},"℗":{"ha":1149,"x_min":0,"x_max":0,"o":"m 75 486 b 574 986 75 761 299 986 b 1074 486 849 986 1074 761 b 574 -14 1074 211 849 -14 b 75 486 299 -14 75 211 m 196 486 b 574 107 196 278 365 107 b 951 486 783 107 951 278 b 574 864 951 696 783 864 b 196 486 365 864 196 696 m 396 715 b 422 742 396 729 407 742 l 647 742 b 818 561 733 742 818 672 b 624 390 818 475 761 390 l 532 390 l 532 260 b 506 233 532 246 521 233 l 422 233 b 396 260 407 233 396 246 m 624 513 b 668 558 653 513 668 533 b 624 604 668 585 653 604 l 528 604 l 528 513 "}}}
